{"glyphs":{"0":{"ha":683,"x_min":57,"x_max":624,"o":"m 413 871 q 566 803 508 871 q 624 586 624 736 q 581 276 624 413 q 459 62 538 139 q 275 -15 381 -15 q 110 52 164 -15 q 57 274 57 119 q 95 567 57 431 q 213 787 133 703 q 413 871 293 871 m 289 93 q 419 151 363 93 q 506 313 475 208 q 538 556 538 418 q 498 719 538 674 q 393 765 458 765 q 206 633 269 765 q 143 303 143 500 q 183 140 143 186 q 289 93 222 93 z "},"1":{"ha":683,"x_min":1,"x_max":554,"o":"m 554 46 l 546 0 l 1 0 l 10 46 l 243 83 l 364 751 l 144 751 l 154 803 l 501 853 l 361 83 l 554 46 z "},"2":{"ha":683,"x_min":3,"x_max":638,"o":"m 3 69 l 328 353 q 467 510 424 436 q 510 669 510 585 q 477 753 510 721 q 371 785 444 785 q 279 772 338 785 q 168 735 221 758 l 154 789 q 286 850 229 829 q 417 871 343 871 q 578 826 519 871 q 638 682 638 782 q 577 494 638 592 q 394 294 517 396 l 142 86 l 572 108 l 549 0 l 17 0 l 3 69 z "},"3":{"ha":683,"x_min":-6,"x_max":579,"o":"m 365 871 q 519 833 460 871 q 579 721 579 794 q 515 564 579 628 q 357 465 450 500 q 498 401 449 449 q 547 286 547 354 q 498 135 547 204 q 359 27 449 67 q 154 -12 269 -12 q 69 -10 101 -12 q -6 1 36 -7 l 4 65 q 124 57 67 57 q 340 117 257 57 q 424 285 424 176 q 360 390 424 361 q 186 419 297 419 l 186 479 q 381 551 313 493 q 449 693 449 608 q 421 765 449 740 q 329 790 393 790 q 244 781 285 790 q 154 751 203 772 l 139 808 q 247 856 196 840 q 365 871 297 871 z "},"4":{"ha":683,"x_min":-7,"x_max":601,"o":"m 340 0 l 372 181 l 1 181 l -7 240 l 515 861 l 599 851 l 493 264 l 601 264 l 586 181 l 479 181 l 447 0 l 340 0 m 103 264 l 388 264 l 464 690 l 103 264 z "},"5":{"ha":683,"x_min":13,"x_max":631,"o":"m 614 756 l 257 756 l 200 549 q 569 315 569 549 q 518 144 569 218 q 372 28 467 69 q 153 -12 278 -12 q 78 -10 110 -12 q 13 0 47 -8 l 24 65 q 90 58 63 60 q 144 57 117 57 q 296 88 228 57 q 403 173 364 118 q 442 297 442 228 q 363 433 442 392 q 122 474 283 474 l 114 503 l 213 849 l 631 849 l 614 756 z "},"6":{"ha":683,"x_min":50,"x_max":607,"o":"m 271 -17 q 104 50 158 -17 q 50 229 50 117 q 122 519 50 382 q 314 749 193 656 q 576 876 435 843 l 583 825 q 338 673 429 774 q 206 442 246 572 q 426 522 310 522 q 607 336 607 522 q 577 178 607 258 q 472 40 547 97 q 271 -17 397 -17 m 300 54 q 436 126 390 54 q 482 315 482 199 q 461 412 482 378 q 383 446 440 446 q 272 419 322 446 q 186 360 221 393 q 172 207 172 285 q 202 97 172 140 q 300 54 232 54 z "},"7":{"ha":683,"x_min":89,"x_max":692,"o":"m 143 849 l 676 849 l 692 804 l 197 -28 l 89 7 l 578 756 l 128 756 l 143 849 z "},"8":{"ha":683,"x_min":40,"x_max":635,"o":"m 257 -18 q 93 28 146 -18 q 40 144 40 74 q 98 304 40 231 q 260 433 156 378 q 174 518 206 472 q 142 625 142 564 q 179 752 142 696 q 283 840 217 808 q 435 871 350 871 q 589 825 543 871 q 635 714 635 779 q 587 581 635 649 q 431 458 539 513 q 564 247 564 358 q 483 55 564 128 q 257 -18 403 -18 m 379 490 q 489 583 457 535 q 521 690 521 631 q 499 774 521 744 q 411 804 476 804 q 299 768 349 804 q 250 661 250 732 q 285 570 250 615 q 379 490 321 525 m 275 50 q 403 93 354 50 q 453 203 453 136 q 423 302 453 258 q 311 400 393 346 q 197 301 240 357 q 154 158 154 244 q 185 77 154 104 q 275 50 217 50 z "},"9":{"ha":683,"x_min":67,"x_max":640,"o":"m 67 31 q 338 154 229 50 q 492 414 447 258 q 395 355 450 378 q 279 332 340 332 q 124 391 171 332 q 76 560 76 450 q 109 694 76 622 q 216 819 142 767 q 407 871 290 871 q 577 802 514 871 q 640 625 640 733 q 559 287 640 432 q 347 63 478 142 q 75 -21 217 -17 l 67 31 m 322 408 q 419 432 369 408 q 508 485 469 456 q 521 621 521 551 q 488 757 521 714 q 383 800 454 800 q 248 733 294 800 q 201 560 201 665 q 232 450 201 492 q 322 408 263 408 z "},"\u0000":{"ha":0,"x_min":0,"x_max":0,"o":""},"\r":{"ha":257,"x_min":0,"x_max":0,"o":""}," ":{"ha":257,"x_min":0,"x_max":0,"o":""},"A":{"ha":764,"x_min":-44,"x_max":725,"o":"m 494 310 l 263 310 l 142 65 l 232 51 l 219 0 l -44 0 l -37 49 l 63 67 l 456 854 l 529 869 l 639 72 l 725 49 l 717 0 l 433 0 l 440 50 l 526 67 l 494 310 m 292 369 l 486 369 l 446 679 l 292 369 z "},"Á":{"ha":815,"x_min":-46,"x_max":724,"o":"m 394 904 l 372 931 l 586 1111 l 692 1072 l 692 1047 l 394 904 m -46 0 l -39 49 l 61 67 l 454 854 l 528 869 l 638 72 l 724 49 l 715 0 l 432 0 l 439 50 l 525 67 l 493 310 l 261 310 l 140 65 l 231 51 l 218 0 l -46 0 m 290 369 l 485 369 l 444 679 l 290 369 z "},"Ă":{"ha":815,"x_min":-46,"x_max":724,"o":"m 510 929 q 369 1050 369 929 q 376 1090 369 1060 l 424 1090 q 419 1068 419 1081 q 443 1021 422 1038 q 519 1004 464 1004 q 656 1090 639 1004 l 701 1090 q 510 929 668 929 m -46 0 l -39 49 l 61 67 l 454 854 l 528 869 l 638 72 l 724 49 l 715 0 l 432 0 l 439 50 l 525 67 l 493 310 l 261 310 l 140 65 l 231 51 l 218 0 l -46 0 m 290 369 l 485 369 l 444 679 l 290 369 z "},"Ắ":{"ha":764,"x_min":-44,"x_max":768,"o":"m 0 0 m 494 310 l 263 310 l 142 65 l 232 51 l 219 0 l -44 0 l -37 49 l 63 67 l 456 854 l 529 869 l 639 72 l 725 49 l 717 0 l 433 0 l 440 50 l 526 67 l 494 310 m 292 369 l 486 369 l 446 679 l 292 369 m 499 929 q 358 1050 358 929 q 365 1090 358 1060 l 413 1090 q 408 1068 408 1081 q 432 1021 411 1038 q 508 1004 453 1004 q 644 1090 628 1004 l 690 1090 q 499 929 657 929 m 471 1083 l 449 1110 l 663 1290 l 768 1251 l 768 1226 l 471 1083 z "},"Ặ":{"ha":764,"x_min":-44,"x_max":725,"o":"m 0 0 m 494 310 l 263 310 l 142 65 l 232 51 l 219 0 l -44 0 l -37 49 l 63 67 l 456 854 l 529 869 l 639 72 l 725 49 l 717 0 l 433 0 l 440 50 l 526 67 l 494 310 m 292 369 l 486 369 l 446 679 l 292 369 m 289 -57 q 347 -82 322 -57 q 372 -140 372 -107 q 347 -197 372 -174 q 289 -219 322 -219 q 231 -197 256 -219 q 206 -140 206 -174 q 231 -81 206 -106 q 289 -57 256 -57 m 499 929 q 358 1050 358 929 q 365 1090 358 1060 l 413 1090 q 408 1068 408 1081 q 432 1021 411 1038 q 508 1004 453 1004 q 644 1090 628 1004 l 690 1090 q 499 929 657 929 z "},"Ằ":{"ha":764,"x_min":-44,"x_max":725,"o":"m 0 0 m 494 310 l 263 310 l 142 65 l 232 51 l 219 0 l -44 0 l -37 49 l 63 67 l 456 854 l 529 869 l 639 72 l 725 49 l 717 0 l 433 0 l 440 50 l 526 67 l 494 310 m 292 369 l 486 369 l 446 679 l 292 369 m 499 929 q 358 1050 358 929 q 365 1090 358 1060 l 413 1090 q 408 1068 408 1081 q 432 1021 411 1038 q 508 1004 453 1004 q 644 1090 628 1004 l 690 1090 q 499 929 657 929 m 600 1083 l 303 1226 l 303 1251 l 408 1290 l 622 1110 l 600 1083 z "},"Ẳ":{"ha":764,"x_min":-44,"x_max":725,"o":"m 0 0 m 494 310 l 263 310 l 142 65 l 232 51 l 219 0 l -44 0 l -37 49 l 63 67 l 456 854 l 529 869 l 639 72 l 725 49 l 717 0 l 433 0 l 440 50 l 526 67 l 494 310 m 292 369 l 486 369 l 446 679 l 292 369 m 499 929 q 358 1050 358 929 q 365 1090 358 1060 l 413 1090 q 408 1068 408 1081 q 432 1021 411 1038 q 508 1004 453 1004 q 644 1090 628 1004 l 690 1090 q 499 929 657 929 m 521 1132 q 535 1161 522 1151 q 568 1179 547 1171 q 601 1198 590 1189 q 611 1225 611 1207 q 569 1256 611 1256 l 542 1254 l 522 1210 l 481 1210 l 486 1283 q 582 1292 540 1292 q 659 1276 631 1292 q 688 1229 688 1260 q 642 1165 688 1188 q 613 1154 631 1161 q 585 1140 596 1147 q 572 1118 575 1132 l 519 1118 l 521 1132 z "},"Ẵ":{"ha":764,"x_min":-44,"x_max":756,"o":"m 0 0 m 494 310 l 263 310 l 142 65 l 232 51 l 219 0 l -44 0 l -37 49 l 63 67 l 456 854 l 529 869 l 639 72 l 725 49 l 717 0 l 433 0 l 440 50 l 526 67 l 494 310 m 292 369 l 486 369 l 446 679 l 292 369 m 499 929 q 358 1050 358 929 q 365 1090 358 1060 l 413 1090 q 408 1068 408 1081 q 432 1021 411 1038 q 508 1004 453 1004 q 644 1090 628 1004 l 690 1090 q 499 929 657 929 m 756 1242 q 706 1144 729 1178 q 651 1110 682 1110 q 544 1138 628 1110 q 440 1165 464 1165 q 413 1154 426 1165 q 390 1131 399 1143 q 378 1115 381 1119 l 336 1132 q 386 1231 363 1196 q 442 1265 410 1265 q 546 1238 465 1265 q 606 1218 576 1226 q 653 1210 636 1210 q 680 1221 667 1210 q 702 1243 693 1232 q 713 1258 711 1254 l 756 1242 z "},"Ǎ":{"ha":764,"x_min":-44,"x_max":725,"o":"m 0 0 m 494 310 l 263 310 l 142 65 l 232 51 l 219 0 l -44 0 l -37 49 l 63 67 l 456 854 l 529 869 l 639 72 l 725 49 l 717 0 l 433 0 l 440 50 l 526 67 l 494 310 m 292 369 l 486 369 l 446 679 l 292 369 m 369 1117 l 511 1003 l 692 1118 l 719 1092 l 539 904 l 456 904 l 332 1092 l 369 1117 z "},"Â":{"ha":815,"x_min":-46,"x_max":724,"o":"m 667 903 l 538 1018 l 344 903 l 317 929 l 510 1117 l 593 1117 l 703 929 l 667 903 m 493 310 l 261 310 l 140 65 l 231 51 l 218 0 l -46 0 l -39 49 l 61 67 l 454 854 l 528 869 l 638 72 l 724 49 l 715 0 l 432 0 l 439 50 l 525 67 l 493 310 m 290 369 l 485 369 l 444 679 l 290 369 z "},"Ấ":{"ha":764,"x_min":-44,"x_max":878,"o":"m 650 974 l 619 990 l 757 1235 l 869 1235 l 878 1211 l 650 974 m 610 903 l 479 1021 l 288 903 l 260 929 l 453 1117 l 536 1117 l 646 929 l 610 903 m 494 310 l 263 310 l 142 65 l 232 51 l 219 0 l -44 0 l -37 49 l 63 67 l 456 854 l 529 869 l 639 72 l 725 49 l 717 0 l 433 0 l 440 50 l 526 67 l 494 310 m 292 369 l 486 369 l 446 679 l 292 369 z "},"Ậ":{"ha":764,"x_min":-44,"x_max":725,"o":"m 0 0 m 494 310 l 263 310 l 142 65 l 232 51 l 219 0 l -44 0 l -37 49 l 63 67 l 456 854 l 529 869 l 639 72 l 725 49 l 717 0 l 433 0 l 440 50 l 526 67 l 494 310 m 292 369 l 486 369 l 446 679 l 292 369 m 289 -57 q 347 -82 322 -57 q 372 -140 372 -107 q 347 -197 372 -174 q 289 -219 322 -219 q 231 -197 256 -219 q 206 -140 206 -174 q 231 -81 206 -106 q 289 -57 256 -57 m 644 903 l 514 1021 l 322 903 l 294 929 l 488 1117 l 571 1117 l 681 929 l 644 903 z "},"Ầ":{"ha":764,"x_min":-44,"x_max":725,"o":"m 672 971 l 526 1214 l 540 1235 l 629 1235 l 706 981 l 672 971 m 610 903 l 479 1021 l 288 903 l 260 929 l 453 1117 l 536 1117 l 646 929 l 610 903 m 494 310 l 263 310 l 142 65 l 232 51 l 219 0 l -44 0 l -37 49 l 63 67 l 456 854 l 529 869 l 639 72 l 725 49 l 717 0 l 433 0 l 440 50 l 526 67 l 494 310 m 292 369 l 486 369 l 446 679 l 292 369 z "},"Ẩ":{"ha":764,"x_min":-44,"x_max":817,"o":"m 0 0 m 494 310 l 263 310 l 142 65 l 232 51 l 219 0 l -44 0 l -37 49 l 63 67 l 456 854 l 529 869 l 639 72 l 725 49 l 717 0 l 433 0 l 440 50 l 526 67 l 494 310 m 292 369 l 486 369 l 446 679 l 292 369 m 644 903 l 514 1021 l 322 903 l 294 929 l 488 1117 l 571 1117 l 681 929 l 644 903 m 650 1075 q 664 1104 651 1094 q 697 1122 676 1114 q 730 1141 719 1132 q 740 1168 740 1150 q 699 1199 740 1199 l 671 1197 l 651 1153 l 610 1153 l 615 1226 q 711 1235 669 1235 q 788 1219 760 1235 q 817 1172 817 1203 q 771 1108 817 1131 q 742 1097 760 1104 q 715 1083 725 1090 q 701 1061 704 1075 l 649 1061 l 650 1075 z "},"Ẫ":{"ha":764,"x_min":-44,"x_max":761,"o":"m 0 0 m 494 310 l 263 310 l 142 65 l 232 51 l 219 0 l -44 0 l -37 49 l 63 67 l 456 854 l 529 869 l 639 72 l 725 49 l 717 0 l 433 0 l 440 50 l 526 67 l 494 310 m 292 369 l 486 369 l 446 679 l 292 369 m 644 903 l 514 1021 l 322 903 l 294 929 l 488 1117 l 571 1117 l 681 929 l 644 903 m 761 1261 q 711 1163 735 1197 q 657 1129 688 1129 q 550 1157 633 1129 q 446 1185 469 1185 q 418 1174 432 1185 q 395 1151 404 1163 q 383 1135 386 1139 l 342 1151 q 392 1250 368 1215 q 447 1285 415 1285 q 551 1257 471 1285 q 612 1238 582 1246 q 658 1229 642 1229 q 685 1240 672 1229 q 708 1263 699 1251 q 718 1278 717 1274 l 761 1261 z "},"Ȁ":{"ha":764,"x_min":-44,"x_max":725,"o":"m 0 0 m 494 310 l 263 310 l 142 65 l 232 51 l 219 0 l -44 0 l -37 49 l 63 67 l 456 854 l 529 869 l 639 72 l 725 49 l 717 0 l 433 0 l 440 50 l 526 67 l 494 310 m 292 369 l 486 369 l 446 679 l 292 369 m 383 897 l 231 1099 l 231 1122 l 335 1122 l 414 913 l 383 897 m 608 897 l 454 1099 l 454 1122 l 558 1122 l 638 913 l 608 897 z "},"Ä":{"ha":815,"x_min":-46,"x_max":743,"o":"m 393 932 q 338 955 361 932 q 314 1008 314 978 q 338 1065 314 1042 q 393 1089 361 1089 q 449 1065 425 1089 q 472 1008 472 1042 q 449 955 472 978 q 393 932 425 932 m 663 932 q 607 955 631 932 q 583 1008 583 978 q 607 1065 583 1042 q 663 1089 631 1089 q 719 1065 694 1089 q 743 1008 743 1042 q 719 955 743 978 q 663 932 694 932 m -46 0 l -39 49 l 61 67 l 454 854 l 528 869 l 638 72 l 724 49 l 715 0 l 432 0 l 439 50 l 525 67 l 493 310 l 261 310 l 140 65 l 231 51 l 218 0 l -46 0 m 290 369 l 485 369 l 444 679 l 290 369 z "},"Ạ":{"ha":764,"x_min":-44,"x_max":725,"o":"m 0 0 m 494 310 l 263 310 l 142 65 l 232 51 l 219 0 l -44 0 l -37 49 l 63 67 l 456 854 l 529 869 l 639 72 l 725 49 l 717 0 l 433 0 l 440 50 l 526 67 l 494 310 m 292 369 l 486 369 l 446 679 l 292 369 m 289 -57 q 347 -82 322 -57 q 372 -140 372 -107 q 347 -197 372 -174 q 289 -219 322 -219 q 231 -197 256 -219 q 206 -140 206 -174 q 231 -81 206 -106 q 289 -57 256 -57 z "},"À":{"ha":815,"x_min":-46,"x_max":724,"o":"m 619 904 l 322 1047 l 322 1072 l 428 1111 l 642 931 l 619 904 m -46 0 l -39 49 l 61 67 l 454 854 l 528 869 l 638 72 l 724 49 l 715 0 l 432 0 l 439 50 l 525 67 l 493 310 l 261 310 l 140 65 l 231 51 l 218 0 l -46 0 m 290 369 l 485 369 l 444 679 l 290 369 z "},"Ả":{"ha":764,"x_min":-44,"x_max":725,"o":"m 0 0 m 494 310 l 263 310 l 142 65 l 232 51 l 219 0 l -44 0 l -37 49 l 63 67 l 456 854 l 529 869 l 639 72 l 725 49 l 717 0 l 433 0 l 440 50 l 526 67 l 494 310 m 292 369 l 486 369 l 446 679 l 292 369 m 486 953 q 500 982 488 972 q 533 1000 513 992 q 566 1019 556 1010 q 576 1046 576 1028 q 535 1076 576 1076 l 507 1075 l 488 1031 l 446 1031 l 451 1104 q 547 1113 506 1113 q 624 1097 596 1113 q 653 1050 653 1081 q 607 986 653 1008 q 578 975 596 982 q 551 960 561 968 q 538 939 540 953 l 485 939 l 486 953 z "},"Ȃ":{"ha":764,"x_min":-44,"x_max":725,"o":"m 0 0 m 494 310 l 263 310 l 142 65 l 232 51 l 219 0 l -44 0 l -37 49 l 63 67 l 456 854 l 529 869 l 639 72 l 725 49 l 717 0 l 433 0 l 440 50 l 526 67 l 494 310 m 292 369 l 486 369 l 446 679 l 292 369 m 526 1099 q 667 978 667 1099 q 660 938 667 969 l 613 938 q 617 960 617 949 q 593 1007 614 990 q 517 1024 572 1024 q 381 938 397 1024 l 335 938 q 526 1099 368 1099 z "},"Ā":{"ha":815,"x_min":-46,"x_max":724,"o":"m 340 957 l 351 1032 l 681 1032 l 669 957 l 340 957 m -46 0 l -39 49 l 61 67 l 454 854 l 528 869 l 638 72 l 724 49 l 715 0 l 432 0 l 439 50 l 525 67 l 493 310 l 261 310 l 140 65 l 231 51 l 218 0 l -46 0 m 290 369 l 485 369 l 444 679 l 290 369 z "},"Ą":{"ha":815,"x_min":-46,"x_max":729,"o":"m 446 -328 q 359 -300 388 -328 q 331 -229 331 -272 q 369 -117 331 -167 q 471 -14 407 -68 q 513 24 499 10 q 526 49 526 38 q 524 82 526 54 l 497 315 l 271 315 l 140 65 l 231 51 l 218 0 l -46 0 l -39 49 l 61 67 l 469 849 l 550 867 l 643 69 l 729 49 l 721 0 l 582 0 q 513 -32 549 0 q 451 -112 476 -64 q 426 -201 426 -160 q 444 -250 426 -233 q 493 -267 461 -267 q 567 -236 532 -267 l 586 -258 q 567 -279 586 -261 q 516 -312 547 -297 q 446 -328 485 -328 m 303 376 l 492 376 l 460 678 l 303 376 z "},"Å":{"ha":815,"x_min":-46,"x_max":724,"o":"m 515 888 q 427 915 457 888 q 397 985 397 942 q 441 1094 397 1050 q 560 1139 485 1139 q 647 1112 617 1139 q 676 1040 676 1085 q 632 932 676 976 q 515 888 588 888 m 524 936 q 583 965 565 936 q 601 1036 601 994 q 551 1090 601 1090 q 491 1060 510 1090 q 472 988 472 1031 q 524 936 472 936 m -46 0 l -39 49 l 61 67 l 454 854 l 528 869 l 638 72 l 724 49 l 715 0 l 432 0 l 439 50 l 525 67 l 493 310 l 261 310 l 140 65 l 231 51 l 218 0 l -46 0 m 290 369 l 485 369 l 444 679 l 290 369 z "},"Ǻ":{"ha":764,"x_min":-44,"x_max":782,"o":"m 0 0 m 494 310 l 263 310 l 142 65 l 232 51 l 219 0 l -44 0 l -37 49 l 63 67 l 456 854 l 529 869 l 639 72 l 725 49 l 717 0 l 433 0 l 440 50 l 526 67 l 494 310 m 292 369 l 486 369 l 446 679 l 292 369 m 490 888 q 402 915 432 888 q 372 985 372 942 q 416 1094 372 1050 q 535 1139 460 1139 q 622 1112 592 1139 q 651 1040 651 1085 q 607 932 651 976 q 490 888 563 888 m 499 936 q 558 965 540 936 q 576 1036 576 994 q 526 1090 576 1090 q 466 1060 485 1090 q 447 988 447 1031 q 499 936 447 936 m 485 1154 l 463 1181 l 676 1361 l 782 1322 l 782 1297 l 485 1154 z "},"Ã":{"ha":815,"x_min":-46,"x_max":736,"o":"m 736 1063 q 686 965 710 999 q 632 931 663 931 q 525 958 608 931 q 421 986 444 986 q 393 975 407 986 q 370 952 379 964 q 358 936 361 940 l 317 953 q 367 1051 343 1017 q 422 1086 390 1086 q 526 1058 446 1086 q 587 1039 557 1047 q 633 1031 617 1031 q 660 1042 647 1031 q 683 1064 674 1053 q 693 1079 692 1075 l 736 1063 m 493 310 l 261 310 l 140 65 l 231 51 l 218 0 l -46 0 l -39 49 l 61 67 l 454 854 l 528 869 l 638 72 l 724 49 l 715 0 l 432 0 l 439 50 l 525 67 l 493 310 m 290 369 l 485 369 l 444 679 l 290 369 z "},"Æ":{"ha":1004,"x_min":-140,"x_max":946,"o":"m 579 429 l 740 429 l 786 521 l 833 521 l 785 269 l 738 269 l 724 365 l 571 365 l 535 78 l 775 78 l 833 204 l 885 204 l 846 0 l 288 0 l 296 46 l 425 74 l 463 365 l 263 365 l 46 65 l 136 51 l 124 0 l -140 0 l -133 49 l -33 67 l 481 783 l 397 803 l 406 849 l 946 849 l 911 665 l 858 665 l 858 776 l 625 776 l 579 429 m 471 429 l 506 701 l 308 429 l 471 429 z "},"Ǽ":{"ha":1004,"x_min":-140,"x_max":946,"o":"m 0 0 m 579 429 l 740 429 l 786 521 l 833 521 l 785 269 l 738 269 l 724 365 l 571 365 l 535 78 l 775 78 l 833 204 l 885 204 l 846 0 l 288 0 l 296 46 l 425 74 l 463 365 l 263 365 l 46 65 l 136 51 l 124 0 l -140 0 l -133 49 l -33 67 l 481 783 l 397 803 l 406 849 l 946 849 l 911 665 l 858 665 l 858 776 l 625 776 l 579 429 m 471 429 l 506 701 l 308 429 l 471 429 m 557 904 l 535 931 l 749 1111 l 854 1072 l 854 1047 l 557 904 z "},"B":{"ha":736,"x_min":-22,"x_max":688,"o":"m 471 449 q 597 385 556 429 q 638 269 638 340 q 594 133 638 194 q 472 35 550 71 q 297 0 394 0 l -22 0 l -14 46 l 107 74 l 243 775 l 133 803 l 142 849 l 453 849 q 629 805 571 849 q 688 689 688 761 q 627 530 688 593 q 471 449 567 467 m 356 468 q 509 522 447 468 q 571 674 571 575 q 536 760 571 732 q 438 789 501 789 q 353 779 393 789 l 293 468 l 356 468 m 214 68 q 292 57 247 57 q 398 80 346 57 q 484 153 450 103 q 518 279 518 203 q 472 381 518 346 q 336 415 425 415 l 282 415 l 214 68 z "},"C":{"ha":718,"x_min":49,"x_max":753,"o":"m 596 32 q 479 -1 535 10 q 354 -12 424 -12 q 123 69 197 -12 q 49 293 49 151 q 108 579 49 447 q 275 790 167 711 q 526 869 383 869 q 753 832 660 869 l 704 651 l 658 651 l 658 786 q 522 803 604 803 q 330 730 408 803 q 213 542 251 657 q 174 301 174 426 q 223 118 174 182 q 385 54 272 54 q 513 75 444 54 l 568 192 l 615 192 l 596 32 z "},"Ć":{"ha":724,"x_min":31,"x_max":735,"o":"m 415 904 l 393 931 l 607 1111 l 713 1072 l 713 1047 l 415 904 m 578 32 q 461 -1 517 10 q 336 -12 406 -12 q 105 69 179 -12 q 31 293 31 151 q 90 579 31 447 q 257 790 149 711 q 508 869 365 869 q 735 832 642 869 l 686 651 l 640 651 l 640 786 q 504 803 586 803 q 312 730 390 803 q 194 542 233 657 q 156 301 156 426 q 205 118 156 182 q 367 54 254 54 q 494 75 426 54 l 550 192 l 597 192 l 578 32 z "},"Č":{"ha":724,"x_min":31,"x_max":735,"o":"m 375 1117 l 517 1003 l 697 1118 l 725 1092 l 544 904 l 461 904 l 338 1092 l 375 1117 m 578 32 q 461 -1 517 10 q 336 -12 406 -12 q 105 69 179 -12 q 31 293 31 151 q 90 579 31 447 q 257 790 149 711 q 508 869 365 869 q 735 832 642 869 l 686 651 l 640 651 l 640 786 q 504 803 586 803 q 312 730 390 803 q 194 542 233 657 q 156 301 156 426 q 205 118 156 182 q 367 54 254 54 q 494 75 426 54 l 550 192 l 597 192 l 578 32 z "},"Ç":{"ha":724,"x_min":31,"x_max":735,"o":"m 578 32 q 465 -1 519 10 q 343 -12 411 -11 l 317 -61 q 413 -84 381 -61 q 444 -143 444 -107 q 415 -223 444 -186 q 336 -282 385 -260 q 235 -304 288 -304 q 158 -294 189 -304 l 178 -257 q 231 -265 200 -265 q 318 -235 282 -265 q 354 -164 354 -206 q 333 -121 354 -137 q 260 -104 311 -104 l 258 -92 l 300 -11 q 97 78 163 -3 q 31 293 31 160 q 90 579 31 447 q 257 790 149 711 q 508 869 365 869 q 735 832 642 869 l 686 651 l 640 651 l 640 786 q 504 803 586 803 q 312 730 390 803 q 194 542 233 657 q 156 301 156 426 q 205 118 156 182 q 367 54 254 54 q 494 75 426 54 l 550 192 l 597 192 l 578 32 z "},"Ĉ":{"ha":718,"x_min":49,"x_max":753,"o":"m 49 0 m 596 32 q 479 -1 535 10 q 354 -12 424 -12 q 123 69 197 -12 q 49 293 49 151 q 108 579 49 447 q 275 790 167 711 q 526 869 383 869 q 753 832 660 869 l 704 651 l 658 651 l 658 786 q 522 803 604 803 q 330 730 408 803 q 213 542 251 657 q 174 301 174 426 q 223 118 174 182 q 385 54 272 54 q 513 75 444 54 l 568 192 l 615 192 l 596 32 m 692 903 l 561 1021 l 369 903 l 342 929 l 535 1117 l 618 1117 l 728 929 l 692 903 z "},"Ċ":{"ha":718,"x_min":49,"x_max":753,"o":"m 49 0 m 596 32 q 479 -1 535 10 q 354 -12 424 -12 q 123 69 197 -12 q 49 293 49 151 q 108 579 49 447 q 275 790 167 711 q 526 869 383 869 q 753 832 660 869 l 704 651 l 658 651 l 658 786 q 522 803 604 803 q 330 730 408 803 q 213 542 251 657 q 174 301 174 426 q 223 118 174 182 q 385 54 272 54 q 513 75 444 54 l 568 192 l 615 192 l 596 32 m 642 1007 q 617 951 642 974 q 558 928 592 928 q 500 951 525 928 q 475 1007 475 974 q 500 1066 475 1042 q 558 1090 525 1090 q 617 1065 592 1090 q 642 1007 642 1040 z "},"D":{"ha":864,"x_min":-15,"x_max":815,"o":"m -7 46 l 115 74 l 251 775 l 140 803 l 149 849 l 499 849 q 737 773 658 849 q 815 558 815 697 q 760 288 815 417 q 599 80 706 160 q 349 0 493 0 l -15 0 l -7 46 m 351 57 q 547 135 469 57 q 658 328 624 214 q 693 557 693 443 q 478 783 693 783 q 360 775 407 783 l 225 81 q 284 64 250 71 q 351 57 318 57 z "},"Ǳ":{"ha":1575,"x_min":-15,"x_max":1592,"o":"m 0 0 m -7 46 l 115 74 l 251 775 l 140 803 l 149 849 l 499 849 q 737 773 658 849 q 815 558 815 697 q 760 288 815 417 q 599 80 706 160 q 349 0 493 0 l -15 0 l -7 46 m 351 57 q 547 135 469 57 q 658 328 624 214 q 693 557 693 443 q 478 783 693 783 q 360 775 407 783 l 225 81 q 284 64 250 71 q 351 57 318 57 m 1486 204 l 1433 0 l 894 0 l 879 46 l 1439 775 l 1129 775 l 1079 665 l 1029 665 l 1053 849 l 1592 849 l 1589 804 l 1029 75 l 1363 75 l 1436 204 l 1486 204 z "},"Ǆ":{"ha":1575,"x_min":-15,"x_max":1592,"o":"m 0 0 m -7 46 l 115 74 l 251 775 l 140 803 l 149 849 l 499 849 q 737 773 658 849 q 815 558 815 697 q 760 288 815 417 q 599 80 706 160 q 349 0 493 0 l -15 0 l -7 46 m 351 57 q 547 135 469 57 q 658 328 624 214 q 693 557 693 443 q 478 783 693 783 q 360 775 407 783 l 225 81 q 284 64 250 71 q 351 57 318 57 m 1486 204 l 1433 0 l 894 0 l 879 46 l 1439 775 l 1129 775 l 1079 665 l 1029 665 l 1053 849 l 1592 849 l 1589 804 l 1029 75 l 1363 75 l 1436 204 l 1486 204 m 1207 1117 l 1349 1003 l 1529 1118 l 1557 1092 l 1376 904 l 1293 904 l 1169 1092 l 1207 1117 z "},"Ð":{"ha":865,"x_min":-14,"x_max":817,"o":"m -6 46 l 117 74 l 176 385 l 64 385 l 76 449 l 189 449 l 253 775 l 142 803 l 150 849 l 500 849 q 738 773 660 849 q 817 558 817 697 q 762 288 817 417 q 601 80 707 160 q 350 0 494 0 l -14 0 l -6 46 m 353 57 q 548 135 471 57 q 660 328 625 214 q 694 557 694 443 q 479 783 694 783 q 361 775 408 783 l 297 449 l 453 449 l 440 385 l 285 385 l 226 81 q 285 64 251 71 q 353 57 319 57 z "},"Ď":{"ha":865,"x_min":-6,"x_max":825,"o":"m 450 904 l 326 1092 l 364 1117 l 506 1003 l 686 1118 l 714 1092 l 533 904 l 450 904 m 3 46 l 125 74 l 261 775 l 150 803 l 158 849 l 508 849 q 747 773 668 849 q 825 558 825 697 q 770 288 825 417 q 609 80 715 160 q 358 0 503 0 l -6 0 l 3 46 m 361 57 q 556 135 479 57 q 668 328 633 214 q 703 557 703 443 q 488 783 703 783 q 369 775 417 783 l 235 81 q 294 64 260 71 q 361 57 328 57 z "},"Đ":{"ha":865,"x_min":-6,"x_max":825,"o":"m 3 46 l 125 74 l 185 385 l 72 385 l 85 449 l 197 449 l 261 775 l 150 803 l 158 849 l 508 849 q 747 773 668 849 q 825 558 825 697 q 770 288 825 417 q 609 80 715 160 q 358 0 503 0 l -6 0 l 3 46 m 361 57 q 556 135 479 57 q 668 328 633 214 q 703 557 703 443 q 488 783 703 783 q 369 775 417 783 l 306 449 l 460 449 l 447 385 l 293 385 l 235 81 q 294 64 260 71 q 361 57 328 57 z "},"Ḍ":{"ha":864,"x_min":-15,"x_max":815,"o":"m 0 0 m -7 46 l 115 74 l 251 775 l 140 803 l 149 849 l 499 849 q 737 773 658 849 q 815 558 815 697 q 760 288 815 417 q 599 80 706 160 q 349 0 493 0 l -15 0 l -7 46 m 351 57 q 547 135 469 57 q 658 328 624 214 q 693 557 693 443 q 478 783 693 783 q 360 775 407 783 l 225 81 q 284 64 250 71 q 351 57 318 57 m 339 -57 q 397 -82 372 -57 q 422 -140 422 -107 q 397 -197 422 -174 q 339 -219 372 -219 q 281 -197 306 -219 q 256 -140 256 -174 q 281 -81 256 -106 q 339 -57 306 -57 z "},"ǲ":{"ha":1408,"x_min":-15,"x_max":1440,"o":"m 0 0 m -7 46 l 115 74 l 251 775 l 140 803 l 149 849 l 499 849 q 737 773 658 849 q 815 558 815 697 q 760 288 815 417 q 599 80 706 160 q 349 0 493 0 l -15 0 l -7 46 m 351 57 q 547 135 469 57 q 658 328 624 214 q 693 557 693 443 q 478 783 693 783 q 360 775 407 783 l 225 81 q 284 64 250 71 q 351 57 318 57 m 1226 -56 q 1164 -42 1196 -56 q 1089 -3 1132 -28 q 1017 35 1047 22 q 957 49 986 49 q 919 38 938 49 q 891 15 901 26 q 878 -1 881 3 l 840 21 l 1283 583 l 963 583 l 950 685 l 1331 685 l 1413 707 l 1440 669 l 1006 125 q 1090 112 1053 125 q 1169 75 1126 99 q 1240 43 1214 53 q 1299 33 1265 33 q 1363 46 1336 33 l 1374 1 q 1297 -41 1331 -26 q 1226 -56 1264 -56 z "},"ǅ":{"ha":1408,"x_min":-15,"x_max":1440,"o":"m 0 0 m -7 46 l 115 74 l 251 775 l 140 803 l 149 849 l 499 849 q 737 773 658 849 q 815 558 815 697 q 760 288 815 417 q 599 80 706 160 q 349 0 493 0 l -15 0 l -7 46 m 351 57 q 547 135 469 57 q 658 328 624 214 q 693 557 693 443 q 478 783 693 783 q 360 775 407 783 l 225 81 q 284 64 250 71 q 351 57 318 57 m 1226 -56 q 1164 -42 1196 -56 q 1089 -3 1132 -28 q 1017 35 1047 22 q 957 49 986 49 q 919 38 938 49 q 891 15 901 26 q 878 -1 881 3 l 840 21 l 1283 583 l 963 583 l 950 685 l 1331 685 l 1413 707 l 1440 669 l 1006 125 q 1090 112 1053 125 q 1169 75 1126 99 q 1240 43 1214 53 q 1299 33 1265 33 q 1363 46 1336 33 l 1374 1 q 1297 -41 1331 -26 q 1226 -56 1264 -56 m 1111 993 l 1239 865 l 1406 994 l 1433 968 l 1267 767 l 1183 767 l 1074 968 l 1111 993 z "},"E":{"ha":733,"x_min":-15,"x_max":717,"o":"m 539 540 l 586 540 l 538 289 l 490 289 l 476 385 l 292 385 l 232 78 l 514 78 l 572 204 l 624 204 l 585 0 l -15 0 l -7 46 l 122 74 l 258 775 l 140 803 l 149 849 l 717 849 l 682 665 l 629 665 l 629 776 l 367 776 l 304 449 l 493 449 l 539 540 z "},"É":{"ha":749,"x_min":-6,"x_max":726,"o":"m 378 904 l 356 931 l 569 1111 l 675 1072 l 675 1047 l 378 904 m 549 540 l 596 540 l 547 289 l 500 289 l 486 385 l 301 385 l 242 78 l 524 78 l 582 204 l 633 204 l 594 0 l -6 0 l 3 46 l 132 74 l 268 775 l 150 803 l 158 849 l 726 849 l 692 665 l 639 665 l 639 776 l 376 776 l 314 449 l 503 449 l 549 540 z "},"Ĕ":{"ha":733,"x_min":-15,"x_max":717,"o":"m 0 0 m 539 540 l 586 540 l 538 289 l 490 289 l 476 385 l 292 385 l 232 78 l 514 78 l 572 204 l 624 204 l 585 0 l -15 0 l -7 46 l 122 74 l 258 775 l 140 803 l 149 849 l 717 849 l 682 665 l 629 665 l 629 776 l 367 776 l 304 449 l 493 449 l 539 540 m 483 929 q 343 1050 343 929 q 350 1090 343 1060 l 397 1090 q 393 1068 393 1081 q 417 1021 396 1038 q 493 1004 438 1004 q 629 1090 613 1004 l 675 1090 q 483 929 642 929 z "},"Ě":{"ha":749,"x_min":-6,"x_max":726,"o":"m 350 1117 l 492 1003 l 672 1118 l 700 1092 l 519 904 l 436 904 l 313 1092 l 350 1117 m 549 540 l 596 540 l 547 289 l 500 289 l 486 385 l 301 385 l 242 78 l 524 78 l 582 204 l 633 204 l 594 0 l -6 0 l 3 46 l 132 74 l 268 775 l 150 803 l 158 849 l 726 849 l 692 665 l 639 665 l 639 776 l 376 776 l 314 449 l 503 449 l 549 540 z "},"Ê":{"ha":749,"x_min":-6,"x_max":726,"o":"m 619 903 l 489 1021 l 297 903 l 269 929 l 463 1117 l 546 1117 l 656 929 l 619 903 m 549 540 l 596 540 l 547 289 l 500 289 l 486 385 l 301 385 l 242 78 l 524 78 l 582 204 l 633 204 l 594 0 l -6 0 l 3 46 l 132 74 l 268 775 l 150 803 l 158 849 l 726 849 l 692 665 l 639 665 l 639 776 l 376 776 l 314 449 l 503 449 l 549 540 z "},"Ế":{"ha":733,"x_min":-15,"x_max":863,"o":"m 635 974 l 604 990 l 742 1235 l 854 1235 l 863 1211 l 635 974 m 594 903 l 464 1021 l 272 903 l 244 929 l 438 1117 l 521 1117 l 631 929 l 594 903 m 539 540 l 586 540 l 538 289 l 490 289 l 476 385 l 292 385 l 232 78 l 514 78 l 572 204 l 624 204 l 585 0 l -15 0 l -7 46 l 122 74 l 258 775 l 140 803 l 149 849 l 717 849 l 682 665 l 629 665 l 629 776 l 367 776 l 304 449 l 493 449 l 539 540 z "},"Ệ":{"ha":733,"x_min":-15,"x_max":717,"o":"m 0 0 m 539 540 l 586 540 l 538 289 l 490 289 l 476 385 l 292 385 l 232 78 l 514 78 l 572 204 l 624 204 l 585 0 l -15 0 l -7 46 l 122 74 l 258 775 l 140 803 l 149 849 l 717 849 l 682 665 l 629 665 l 629 776 l 367 776 l 304 449 l 493 449 l 539 540 m 274 -57 q 332 -82 307 -57 q 357 -140 357 -107 q 332 -197 357 -174 q 274 -219 307 -219 q 215 -197 240 -219 q 190 -140 190 -174 q 215 -81 190 -106 q 274 -57 240 -57 m 629 903 l 499 1021 l 307 903 l 279 929 l 472 1117 l 556 1117 l 665 929 l 629 903 z "},"Ề":{"ha":733,"x_min":-15,"x_max":717,"o":"m 657 971 l 511 1214 l 525 1235 l 614 1235 l 690 981 l 657 971 m 594 903 l 464 1021 l 272 903 l 244 929 l 438 1117 l 521 1117 l 631 929 l 594 903 m 539 540 l 586 540 l 538 289 l 490 289 l 476 385 l 292 385 l 232 78 l 514 78 l 572 204 l 624 204 l 585 0 l -15 0 l -7 46 l 122 74 l 258 775 l 140 803 l 149 849 l 717 849 l 682 665 l 629 665 l 629 776 l 367 776 l 304 449 l 493 449 l 539 540 z "},"Ể":{"ha":733,"x_min":-15,"x_max":801,"o":"m 0 0 m 539 540 l 586 540 l 538 289 l 490 289 l 476 385 l 292 385 l 232 78 l 514 78 l 572 204 l 624 204 l 585 0 l -15 0 l -7 46 l 122 74 l 258 775 l 140 803 l 149 849 l 717 849 l 682 665 l 629 665 l 629 776 l 367 776 l 304 449 l 493 449 l 539 540 m 629 903 l 499 1021 l 307 903 l 279 929 l 472 1117 l 556 1117 l 665 929 l 629 903 m 635 1075 q 649 1104 636 1094 q 682 1122 661 1114 q 715 1141 704 1132 q 725 1168 725 1150 q 683 1199 725 1199 l 656 1197 l 636 1153 l 594 1153 l 600 1226 q 696 1235 654 1235 q 773 1219 744 1235 q 801 1172 801 1203 q 756 1108 801 1131 q 727 1097 744 1104 q 699 1083 710 1090 q 686 1061 689 1075 l 633 1061 l 635 1075 z "},"Ễ":{"ha":733,"x_min":-15,"x_max":746,"o":"m 0 0 m 539 540 l 586 540 l 538 289 l 490 289 l 476 385 l 292 385 l 232 78 l 514 78 l 572 204 l 624 204 l 585 0 l -15 0 l -7 46 l 122 74 l 258 775 l 140 803 l 149 849 l 717 849 l 682 665 l 629 665 l 629 776 l 367 776 l 304 449 l 493 449 l 539 540 m 629 903 l 499 1021 l 307 903 l 279 929 l 472 1117 l 556 1117 l 665 929 l 629 903 m 746 1261 q 696 1163 719 1197 q 642 1129 672 1129 q 535 1157 618 1129 q 431 1185 454 1185 q 403 1174 417 1185 q 380 1151 389 1163 q 368 1135 371 1139 l 326 1151 q 376 1250 353 1215 q 432 1285 400 1285 q 536 1257 456 1285 q 597 1238 567 1246 q 643 1229 626 1229 q 670 1240 657 1229 q 692 1263 683 1251 q 703 1278 701 1274 l 746 1261 z "},"Ȅ":{"ha":733,"x_min":-15,"x_max":717,"o":"m 0 0 m 539 540 l 586 540 l 538 289 l 490 289 l 476 385 l 292 385 l 232 78 l 514 78 l 572 204 l 624 204 l 585 0 l -15 0 l -7 46 l 122 74 l 258 775 l 140 803 l 149 849 l 717 849 l 682 665 l 629 665 l 629 776 l 367 776 l 304 449 l 493 449 l 539 540 m 368 897 l 215 1099 l 215 1122 l 319 1122 l 399 913 l 368 897 m 593 897 l 439 1099 l 439 1122 l 543 1122 l 622 913 l 593 897 z "},"Ë":{"ha":749,"x_min":-6,"x_max":726,"o":"m 414 1008 q 390 955 414 978 q 335 932 367 932 q 279 955 303 932 q 256 1008 256 978 q 279 1065 256 1042 q 335 1089 303 1089 q 390 1065 367 1089 q 414 1008 414 1042 m 685 1008 q 660 955 685 978 q 604 932 636 932 q 549 955 572 932 q 525 1008 525 978 q 549 1065 525 1042 q 604 1089 572 1089 q 660 1065 636 1089 q 685 1008 685 1042 m 549 540 l 596 540 l 547 289 l 500 289 l 486 385 l 301 385 l 242 78 l 524 78 l 582 204 l 633 204 l 594 0 l -6 0 l 3 46 l 132 74 l 268 775 l 150 803 l 158 849 l 726 849 l 692 665 l 639 665 l 639 776 l 376 776 l 314 449 l 503 449 l 549 540 z "},"Ė":{"ha":749,"x_min":-6,"x_max":726,"o":"m 565 1007 q 540 951 565 974 q 482 928 515 928 q 424 951 449 928 q 399 1007 399 974 q 424 1066 399 1042 q 482 1090 449 1090 q 540 1065 515 1090 q 565 1007 565 1040 m 549 540 l 596 540 l 547 289 l 500 289 l 486 385 l 301 385 l 242 78 l 524 78 l 582 204 l 633 204 l 594 0 l -6 0 l 3 46 l 132 74 l 268 775 l 150 803 l 158 849 l 726 849 l 692 665 l 639 665 l 639 776 l 376 776 l 314 449 l 503 449 l 549 540 z "},"Ẹ":{"ha":733,"x_min":-15,"x_max":717,"o":"m 0 0 m 539 540 l 586 540 l 538 289 l 490 289 l 476 385 l 292 385 l 232 78 l 514 78 l 572 204 l 624 204 l 585 0 l -15 0 l -7 46 l 122 74 l 258 775 l 140 803 l 149 849 l 717 849 l 682 665 l 629 665 l 629 776 l 367 776 l 304 449 l 493 449 l 539 540 m 274 -57 q 332 -82 307 -57 q 357 -140 357 -107 q 332 -197 357 -174 q 274 -219 307 -219 q 215 -197 240 -219 q 190 -140 190 -174 q 215 -81 190 -106 q 274 -57 240 -57 z "},"È":{"ha":749,"x_min":-6,"x_max":726,"o":"m 311 1047 l 311 1072 l 417 1111 l 631 931 l 608 904 l 311 1047 m 549 540 l 596 540 l 547 289 l 500 289 l 486 385 l 301 385 l 242 78 l 524 78 l 582 204 l 633 204 l 594 0 l -6 0 l 3 46 l 132 74 l 268 775 l 150 803 l 158 849 l 726 849 l 692 665 l 639 665 l 639 776 l 376 776 l 314 449 l 503 449 l 549 540 z "},"Ẻ":{"ha":733,"x_min":-15,"x_max":717,"o":"m 0 0 m 539 540 l 586 540 l 538 289 l 490 289 l 476 385 l 292 385 l 232 78 l 514 78 l 572 204 l 624 204 l 585 0 l -15 0 l -7 46 l 122 74 l 258 775 l 140 803 l 149 849 l 717 849 l 682 665 l 629 665 l 629 776 l 367 776 l 304 449 l 493 449 l 539 540 m 471 953 q 485 982 472 972 q 518 1000 497 992 q 551 1019 540 1010 q 561 1046 561 1028 q 519 1076 561 1076 l 492 1075 l 472 1031 l 431 1031 l 436 1104 q 532 1113 490 1113 q 609 1097 581 1113 q 638 1050 638 1081 q 592 986 638 1008 q 563 975 581 982 q 535 960 546 968 q 522 939 525 953 l 469 939 l 471 953 z "},"Ȇ":{"ha":733,"x_min":-15,"x_max":717,"o":"m 0 0 m 539 540 l 586 540 l 538 289 l 490 289 l 476 385 l 292 385 l 232 78 l 514 78 l 572 204 l 624 204 l 585 0 l -15 0 l -7 46 l 122 74 l 258 775 l 140 803 l 149 849 l 717 849 l 682 665 l 629 665 l 629 776 l 367 776 l 304 449 l 493 449 l 539 540 m 511 1099 q 651 978 651 1099 q 644 938 651 969 l 597 938 q 601 960 601 949 q 578 1007 599 990 q 501 1024 557 1024 q 365 938 382 1024 l 319 938 q 511 1099 353 1099 z "},"Ē":{"ha":749,"x_min":-6,"x_max":726,"o":"m 336 1032 l 665 1032 l 654 957 l 325 957 l 336 1032 m 549 540 l 596 540 l 547 289 l 500 289 l 486 385 l 301 385 l 242 78 l 524 78 l 582 204 l 633 204 l 594 0 l -6 0 l 3 46 l 132 74 l 268 775 l 150 803 l 158 849 l 726 849 l 692 665 l 639 665 l 639 776 l 376 776 l 314 449 l 503 449 l 549 540 z "},"Ę":{"ha":749,"x_min":-6,"x_max":726,"o":"m 503 -328 q 416 -300 444 -328 q 388 -229 388 -272 q 426 -119 388 -179 q 547 0 465 -58 l -6 0 l 3 46 l 132 74 l 268 775 l 150 803 l 158 849 l 726 849 l 692 665 l 639 665 l 639 776 l 376 776 l 314 449 l 503 449 l 549 540 l 596 540 l 547 289 l 500 289 l 486 385 l 301 385 l 242 78 l 524 78 l 582 204 l 633 204 l 594 0 q 517 -95 550 -40 q 483 -201 483 -150 q 501 -250 483 -233 q 550 -267 518 -267 q 624 -236 589 -267 l 643 -258 q 624 -279 643 -261 q 573 -312 604 -297 q 503 -328 542 -328 z "},"Ẽ":{"ha":749,"x_min":-6,"x_max":726,"o":"m 706 1063 q 656 965 679 999 q 601 931 632 931 q 494 958 578 931 q 390 986 414 986 q 363 975 376 986 q 340 952 349 964 q 328 936 331 940 l 286 953 q 336 1051 313 1017 q 392 1086 360 1086 q 496 1058 415 1086 q 556 1039 526 1047 q 603 1031 586 1031 q 630 1042 617 1031 q 652 1064 643 1053 q 663 1079 661 1075 l 706 1063 m 549 540 l 596 540 l 547 289 l 500 289 l 486 385 l 301 385 l 242 78 l 524 78 l 582 204 l 633 204 l 594 0 l -6 0 l 3 46 l 132 74 l 268 775 l 150 803 l 158 849 l 726 849 l 692 665 l 639 665 l 639 776 l 376 776 l 314 449 l 503 449 l 549 540 z "},"F":{"ha":682,"x_min":-15,"x_max":717,"o":"m 717 849 l 682 665 l 628 665 l 628 776 l 367 776 l 301 435 l 488 435 l 533 526 l 581 526 l 532 275 l 485 275 l 478 371 l 289 371 l 231 75 l 388 47 l 379 0 l -15 0 l -7 46 l 122 74 l 258 775 l 140 803 l 149 849 l 717 849 z "},"G":{"ha":815,"x_min":49,"x_max":781,"o":"m 671 788 q 540 803 615 803 q 319 713 401 803 q 206 508 238 624 q 174 304 174 393 q 224 122 174 193 q 390 51 274 51 q 517 78 464 51 l 565 325 l 454 353 l 463 400 l 781 400 l 772 353 l 674 325 l 619 43 q 372 -15 515 -15 q 126 67 203 -15 q 49 290 49 149 q 105 577 49 444 q 275 790 161 710 q 553 871 389 871 q 677 860 613 871 q 779 829 742 850 l 725 653 l 676 653 l 671 788 z "},"Ǵ":{"ha":815,"x_min":49,"x_max":781,"o":"m 49 0 m 671 788 q 540 803 615 803 q 319 713 401 803 q 206 508 238 624 q 174 304 174 393 q 224 122 174 193 q 390 51 274 51 q 517 78 464 51 l 565 325 l 454 353 l 463 400 l 781 400 l 772 353 l 674 325 l 619 43 q 372 -15 515 -15 q 126 67 203 -15 q 49 290 49 149 q 105 577 49 444 q 275 790 161 710 q 553 871 389 871 q 677 860 613 871 q 779 829 742 850 l 725 653 l 676 653 l 671 788 m 463 904 l 440 931 l 654 1111 l 760 1072 l 760 1047 l 463 904 z "},"Ğ":{"ha":806,"x_min":36,"x_max":768,"o":"m 526 929 q 386 1050 386 929 q 393 1090 386 1060 l 440 1090 q 436 1068 436 1081 q 460 1021 439 1038 q 536 1004 481 1004 q 672 1090 656 1004 l 718 1090 q 526 929 685 929 m 658 788 q 528 803 603 803 q 307 713 389 803 q 193 508 225 624 q 161 304 161 393 q 211 122 161 193 q 378 51 261 51 q 504 78 451 51 l 553 325 l 442 353 l 450 400 l 768 400 l 760 353 l 661 325 l 607 43 q 360 -15 503 -15 q 113 67 190 -15 q 36 290 36 149 q 92 577 36 444 q 263 790 149 710 q 540 871 376 871 q 665 860 600 871 q 767 829 729 850 l 713 653 l 664 653 l 658 788 z "},"Ǧ":{"ha":815,"x_min":49,"x_max":781,"o":"m 49 0 m 671 788 q 540 803 615 803 q 319 713 401 803 q 206 508 238 624 q 174 304 174 393 q 224 122 174 193 q 390 51 274 51 q 517 78 464 51 l 565 325 l 454 353 l 463 400 l 781 400 l 772 353 l 674 325 l 619 43 q 372 -15 515 -15 q 126 67 203 -15 q 49 290 49 149 q 105 577 49 444 q 275 790 161 710 q 553 871 389 871 q 677 860 613 871 q 779 829 742 850 l 725 653 l 676 653 l 671 788 m 396 1117 l 538 1003 l 718 1118 l 746 1092 l 565 904 l 482 904 l 358 1092 l 396 1117 z "},"Ĝ":{"ha":815,"x_min":49,"x_max":781,"o":"m 49 0 m 671 788 q 540 803 615 803 q 319 713 401 803 q 206 508 238 624 q 174 304 174 393 q 224 122 174 193 q 390 51 274 51 q 517 78 464 51 l 565 325 l 454 353 l 463 400 l 781 400 l 772 353 l 674 325 l 619 43 q 372 -15 515 -15 q 126 67 203 -15 q 49 290 49 149 q 105 577 49 444 q 275 790 161 710 q 553 871 389 871 q 677 860 613 871 q 779 829 742 850 l 725 653 l 676 653 l 671 788 m 671 903 l 540 1021 l 349 903 l 321 929 l 514 1117 l 597 1117 l 707 929 l 671 903 z "},"Ģ":{"ha":806,"x_min":36,"x_max":768,"o":"m 658 788 q 528 803 603 803 q 307 713 389 803 q 193 508 225 624 q 161 304 161 393 q 211 122 161 193 q 378 51 261 51 q 504 78 451 51 l 553 325 l 442 353 l 450 400 l 768 400 l 760 353 l 661 325 l 607 43 q 360 -15 503 -15 q 113 67 190 -15 q 36 290 36 149 q 92 577 36 444 q 263 790 149 710 q 540 871 376 871 q 665 860 600 871 q 767 829 729 850 l 713 653 l 664 653 l 658 788 m 282 -307 l 247 -297 l 296 -65 l 400 -43 l 421 -67 l 282 -307 z "},"Ġ":{"ha":815,"x_min":49,"x_max":781,"o":"m 49 0 m 671 788 q 540 803 615 803 q 319 713 401 803 q 206 508 238 624 q 174 304 174 393 q 224 122 174 193 q 390 51 274 51 q 517 78 464 51 l 565 325 l 454 353 l 463 400 l 781 400 l 772 353 l 674 325 l 619 43 q 372 -15 515 -15 q 126 67 203 -15 q 49 290 49 149 q 105 577 49 444 q 275 790 161 710 q 553 871 389 871 q 677 860 613 871 q 779 829 742 850 l 725 653 l 676 653 l 671 788 m 621 1007 q 596 951 621 974 q 538 928 571 928 q 479 951 504 928 q 454 1007 454 974 q 479 1066 454 1042 q 538 1090 504 1090 q 596 1065 571 1090 q 621 1007 621 1040 z "},"H":{"ha":917,"x_min":-15,"x_max":953,"o":"m -15 0 l -7 46 l 107 74 l 243 776 l 140 803 l 147 849 l 474 849 l 467 803 l 351 776 l 289 457 l 660 457 l 722 776 l 618 803 l 626 849 l 953 849 l 944 803 l 831 776 l 694 74 l 800 46 l 792 0 l 464 0 l 472 46 l 586 74 l 647 389 l 276 389 l 215 74 l 319 46 l 311 0 l -15 0 z "},"Ħ":{"ha":917,"x_min":-15,"x_max":953,"o":"m 944 803 l 831 776 l 799 610 l 903 610 l 890 546 l 786 546 l 694 74 l 800 46 l 792 0 l 464 0 l 472 46 l 586 74 l 639 347 l 268 347 l 215 74 l 319 46 l 311 0 l -15 0 l -7 46 l 107 74 l 199 546 l 93 546 l 106 610 l 211 610 l 243 776 l 140 803 l 147 849 l 474 849 l 467 803 l 351 776 l 319 610 l 690 610 l 722 776 l 618 803 l 626 849 l 953 849 l 944 803 m 653 415 l 678 546 l 307 546 l 282 415 l 653 415 z "},"Ĥ":{"ha":917,"x_min":-15,"x_max":953,"o":"m 0 0 m -15 0 l -7 46 l 107 74 l 243 776 l 140 803 l 147 849 l 474 849 l 467 803 l 351 776 l 289 457 l 660 457 l 722 776 l 618 803 l 626 849 l 953 849 l 944 803 l 831 776 l 694 74 l 800 46 l 792 0 l 464 0 l 472 46 l 586 74 l 647 389 l 276 389 l 215 74 l 319 46 l 311 0 l -15 0 m 721 903 l 590 1021 l 399 903 l 371 929 l 564 1117 l 647 1117 l 757 929 l 721 903 z "},"Ḥ":{"ha":917,"x_min":-15,"x_max":953,"o":"m 0 0 m -15 0 l -7 46 l 107 74 l 243 776 l 140 803 l 147 849 l 474 849 l 467 803 l 351 776 l 289 457 l 660 457 l 722 776 l 618 803 l 626 849 l 953 849 l 944 803 l 831 776 l 694 74 l 800 46 l 792 0 l 464 0 l 472 46 l 586 74 l 647 389 l 276 389 l 215 74 l 319 46 l 311 0 l -15 0 m 365 -57 q 424 -82 399 -57 q 449 -140 449 -107 q 424 -197 449 -174 q 365 -219 399 -219 q 307 -197 332 -219 q 282 -140 282 -174 q 307 -81 282 -106 q 365 -57 332 -57 z "},"I":{"ha":456,"x_min":-15,"x_max":492,"o":"m -15 0 l -7 46 l 115 74 l 251 775 l 140 803 l 149 849 l 492 849 l 483 803 l 360 775 l 224 74 l 336 46 l 328 0 l -15 0 z "},"Ĳ":{"ha":879,"x_min":-15,"x_max":944,"o":"m 0 0 m -15 0 l -7 46 l 115 74 l 251 775 l 140 803 l 149 849 l 492 849 l 483 803 l 360 775 l 224 74 l 336 46 l 328 0 l -15 0 m 456 -207 q 333 -169 381 -207 l 346 -131 l 440 -131 q 528 -87 499 -131 q 572 42 557 -43 l 706 775 l 594 803 l 603 849 l 944 849 l 936 803 l 815 775 l 690 88 q 604 -142 661 -76 q 456 -207 547 -207 z "},"Í":{"ha":489,"x_min":-7,"x_max":513,"o":"m 215 904 l 193 931 l 407 1111 l 513 1072 l 513 1047 l 215 904 m -7 0 l 1 46 l 124 74 l 260 775 l 149 803 l 157 849 l 500 849 l 492 803 l 368 775 l 232 74 l 344 46 l 336 0 l -7 0 z "},"Ĭ":{"ha":456,"x_min":-15,"x_max":536,"o":"m 0 0 m -15 0 l -7 46 l 115 74 l 251 775 l 140 803 l 149 849 l 492 849 l 483 803 l 360 775 l 224 74 l 336 46 l 328 0 l -15 0 m 344 929 q 204 1050 204 929 q 211 1090 204 1060 l 258 1090 q 254 1068 254 1081 q 278 1021 257 1038 q 354 1004 299 1004 q 490 1090 474 1004 l 536 1090 q 344 929 503 929 z "},"Ǐ":{"ha":456,"x_min":-15,"x_max":565,"o":"m 0 0 m -15 0 l -7 46 l 115 74 l 251 775 l 140 803 l 149 849 l 492 849 l 483 803 l 360 775 l 224 74 l 336 46 l 328 0 l -15 0 m 215 1117 l 357 1003 l 538 1118 l 565 1092 l 385 904 l 301 904 l 178 1092 l 215 1117 z "},"Î":{"ha":489,"x_min":-7,"x_max":536,"o":"m 178 903 l 150 929 l 343 1117 l 426 1117 l 536 929 l 500 903 l 369 1021 l 178 903 m -7 0 l 1 46 l 124 74 l 260 775 l 149 803 l 157 849 l 500 849 l 492 803 l 368 775 l 232 74 l 344 46 l 336 0 l -7 0 z "},"Ȉ":{"ha":456,"x_min":-15,"x_max":492,"o":"m 0 0 m -15 0 l -7 46 l 115 74 l 251 775 l 140 803 l 149 849 l 492 849 l 483 803 l 360 775 l 224 74 l 336 46 l 328 0 l -15 0 m 229 897 l 76 1099 l 76 1122 l 181 1122 l 260 913 l 229 897 m 454 897 l 300 1099 l 300 1122 l 404 1122 l 483 913 l 454 897 z "},"Ï":{"ha":489,"x_min":-7,"x_max":567,"o":"m 217 932 q 161 955 185 932 q 138 1008 138 978 q 161 1065 138 1042 q 217 1089 185 1089 q 272 1065 249 1089 q 296 1008 296 1042 q 272 955 296 978 q 217 932 249 932 m 486 932 q 431 955 454 932 q 407 1008 407 978 q 431 1065 407 1042 q 486 1089 454 1089 q 542 1065 518 1089 q 567 1008 567 1042 q 542 955 567 978 q 486 932 518 932 m -7 0 l 1 46 l 124 74 l 260 775 l 149 803 l 157 849 l 500 849 l 492 803 l 368 775 l 232 74 l 344 46 l 336 0 l -7 0 z "},"İ":{"ha":489,"x_min":-7,"x_max":500,"o":"m 353 928 q 294 951 319 928 q 269 1007 269 974 q 294 1066 269 1042 q 353 1090 319 1090 q 411 1065 386 1090 q 436 1007 436 1040 q 411 951 436 974 q 353 928 386 928 m -7 0 l 1 46 l 124 74 l 260 775 l 149 803 l 157 849 l 500 849 l 492 803 l 368 775 l 232 74 l 344 46 l 336 0 l -7 0 z "},"Ị":{"ha":456,"x_min":-15,"x_max":492,"o":"m 0 0 m -15 0 l -7 46 l 115 74 l 251 775 l 140 803 l 149 849 l 492 849 l 483 803 l 360 775 l 224 74 l 336 46 l 328 0 l -15 0 m 135 -57 q 193 -82 168 -57 q 218 -140 218 -107 q 193 -197 218 -174 q 135 -219 168 -219 q 76 -197 101 -219 q 51 -140 51 -174 q 76 -81 51 -106 q 135 -57 101 -57 z "},"Ì":{"ha":489,"x_min":-7,"x_max":513,"o":"m 490 904 l 193 1047 l 193 1072 l 299 1111 l 513 931 l 490 904 m -7 0 l 1 46 l 124 74 l 260 775 l 149 803 l 157 849 l 500 849 l 492 803 l 368 775 l 232 74 l 344 46 l 336 0 l -7 0 z "},"Ỉ":{"ha":456,"x_min":-15,"x_max":499,"o":"m 0 0 m -15 0 l -7 46 l 115 74 l 251 775 l 140 803 l 149 849 l 492 849 l 483 803 l 360 775 l 224 74 l 336 46 l 328 0 l -15 0 m 332 953 q 346 982 333 972 q 379 1000 358 992 q 412 1019 401 1010 q 422 1046 422 1028 q 381 1076 422 1076 l 353 1075 l 333 1031 l 292 1031 l 297 1104 q 393 1113 351 1113 q 470 1097 442 1113 q 499 1050 499 1081 q 453 986 499 1008 q 424 975 442 982 q 397 960 407 968 q 383 939 386 953 l 331 939 l 332 953 z "},"Ȋ":{"ha":456,"x_min":-15,"x_max":513,"o":"m 0 0 m -15 0 l -7 46 l 115 74 l 251 775 l 140 803 l 149 849 l 492 849 l 483 803 l 360 775 l 224 74 l 336 46 l 328 0 l -15 0 m 372 1099 q 513 978 513 1099 q 506 938 513 969 l 458 938 q 463 960 463 949 q 439 1007 460 990 q 363 1024 418 1024 q 226 938 243 1024 l 181 938 q 372 1099 214 1099 z "},"Ī":{"ha":489,"x_min":-7,"x_max":513,"o":"m 200 968 l 211 1040 l 513 1040 l 501 968 l 200 968 m -7 0 l 1 46 l 124 74 l 260 775 l 149 803 l 157 849 l 500 849 l 492 803 l 368 775 l 232 74 l 344 46 l 336 0 l -7 0 z "},"Į":{"ha":489,"x_min":-7,"x_max":500,"o":"m 200 -328 q 113 -300 142 -328 q 85 -229 85 -272 q 128 -108 85 -169 q 257 0 172 -46 l -7 0 l 1 46 l 124 74 l 260 775 l 149 803 l 157 849 l 500 849 l 492 803 l 368 775 l 232 74 l 344 46 l 336 0 q 224 -90 267 -33 q 181 -201 181 -146 q 198 -250 181 -233 q 247 -267 215 -267 q 321 -236 286 -267 l 340 -258 q 321 -279 340 -261 q 270 -312 301 -297 q 200 -328 239 -328 z "},"Ĩ":{"ha":489,"x_min":-7,"x_max":563,"o":"m 458 931 q 351 958 435 931 q 247 986 271 986 q 219 975 233 986 q 197 952 206 964 q 185 936 188 940 l 143 953 q 193 1051 169 1017 q 249 1086 217 1086 q 353 1058 272 1086 q 413 1039 383 1047 q 460 1031 443 1031 q 487 1042 474 1031 q 509 1064 500 1053 q 519 1079 518 1075 l 563 1063 q 513 965 536 999 q 458 931 489 931 m -7 0 l 1 46 l 124 74 l 260 775 l 149 803 l 157 849 l 500 849 l 492 803 l 368 775 l 232 74 l 344 46 l 336 0 l -7 0 z "},"J":{"ha":424,"x_min":-122,"x_max":489,"o":"m 0 -207 q -122 -169 -75 -207 l -110 -131 l -15 -131 q 72 -87 43 -131 q 117 42 101 -43 l 250 775 l 139 803 l 147 849 l 489 849 l 481 803 l 360 775 l 235 88 q 149 -142 206 -76 q 0 -207 92 -207 z "},"Ĵ":{"ha":424,"x_min":-122,"x_max":511,"o":"m 0 0 m 0 -207 q -122 -169 -75 -207 l -110 -131 l -15 -131 q 72 -87 43 -131 q 117 42 101 -43 l 250 775 l 139 803 l 147 849 l 489 849 l 481 803 l 360 775 l 235 88 q 149 -142 206 -76 q 0 -207 92 -207 m 475 903 l 344 1021 l 153 903 l 125 929 l 318 1117 l 401 1117 l 511 929 l 475 903 z "},"K":{"ha":772,"x_min":-15,"x_max":833,"o":"m 701 0 l 501 0 l 293 433 l 224 74 l 336 46 l 328 0 l -15 0 l -7 46 l 115 74 l 251 775 l 140 803 l 149 849 l 492 849 l 483 803 l 360 775 l 296 450 l 639 775 l 558 803 l 567 849 l 833 849 l 825 803 l 726 775 l 401 463 l 596 72 l 710 46 l 701 0 z "},"Ķ":{"ha":782,"x_min":-6,"x_max":843,"o":"m 711 0 l 511 0 l 303 433 l 233 74 l 346 46 l 338 0 l -6 0 l 3 46 l 125 74 l 261 775 l 150 803 l 158 849 l 501 849 l 493 803 l 369 775 l 306 450 l 649 775 l 568 803 l 576 849 l 843 849 l 835 803 l 736 775 l 411 463 l 606 72 l 719 46 l 711 0 m 283 -307 l 249 -297 l 297 -65 l 401 -43 l 422 -67 l 283 -307 z "},"L":{"ha":624,"x_min":-15,"x_max":582,"o":"m 543 0 l -15 0 l -7 46 l 115 74 l 251 775 l 140 803 l 149 849 l 492 849 l 483 803 l 360 775 l 224 78 l 475 78 l 532 204 l 582 204 l 543 0 z "},"Ǉ":{"ha":1047,"x_min":-15,"x_max":1113,"o":"m 0 0 m 543 0 l -15 0 l -7 46 l 115 74 l 251 775 l 140 803 l 149 849 l 492 849 l 483 803 l 360 775 l 224 78 l 475 78 l 532 204 l 582 204 l 543 0 m 624 -207 q 501 -169 549 -207 l 514 -131 l 608 -131 q 696 -87 667 -131 q 740 42 725 -43 l 874 775 l 763 803 l 771 849 l 1113 849 l 1104 803 l 983 775 l 858 88 q 772 -142 829 -76 q 624 -207 715 -207 z "},"Ĺ":{"ha":642,"x_min":-6,"x_max":592,"o":"m 238 904 l 215 931 l 429 1111 l 535 1072 l 535 1047 l 238 904 m 553 0 l -6 0 l 3 46 l 125 74 l 261 775 l 150 803 l 158 849 l 501 849 l 493 803 l 369 775 l 233 78 l 485 78 l 542 204 l 592 204 l 553 0 z "},"Ľ":{"ha":642,"x_min":-6,"x_max":592,"o":"m 221 1117 l 363 1003 l 543 1118 l 571 1092 l 390 904 l 307 904 l 183 1092 l 221 1117 m 553 0 l -6 0 l 3 46 l 125 74 l 261 775 l 150 803 l 158 849 l 501 849 l 493 803 l 369 775 l 233 78 l 485 78 l 542 204 l 592 204 l 553 0 z "},"Ļ":{"ha":642,"x_min":-6,"x_max":592,"o":"m 553 0 l -6 0 l 3 46 l 125 74 l 261 775 l 150 803 l 158 849 l 501 849 l 493 803 l 369 775 l 233 78 l 485 78 l 542 204 l 592 204 l 553 0 m 239 -307 l 204 -297 l 253 -65 l 357 -43 l 378 -67 l 239 -307 z "},"Ŀ":{"ha":624,"x_min":-15,"x_max":635,"o":"m 0 0 m 543 0 l -15 0 l -7 46 l 115 74 l 251 775 l 140 803 l 149 849 l 492 849 l 483 803 l 360 775 l 224 78 l 475 78 l 532 204 l 582 204 l 543 0 m 635 606 q 612 549 635 572 q 554 525 589 525 q 499 549 522 525 q 476 606 476 572 q 499 663 476 640 q 554 685 521 685 q 613 663 590 685 q 635 606 635 640 z "},"ǈ":{"ha":1008,"x_min":-15,"x_max":1006,"o":"m 0 0 m 543 0 l -15 0 l -7 46 l 115 74 l 251 775 l 140 803 l 149 849 l 492 849 l 483 803 l 360 775 l 224 78 l 475 78 l 532 204 l 582 204 l 543 0 m 924 808 q 867 832 892 808 q 842 886 842 856 q 866 944 842 919 q 924 968 890 968 q 981 944 957 968 q 1006 886 1006 921 q 981 831 1006 854 q 924 808 957 808 m 592 -232 q 519 -223 553 -232 q 467 -204 486 -214 q 442 -192 447 -194 l 453 -140 q 558 -156 508 -156 q 667 -122 628 -156 q 721 0 706 -87 l 826 608 l 721 618 l 715 653 q 829 687 764 672 q 921 701 894 701 q 949 669 949 701 q 903 399 938 596 q 831 -14 869 203 q 751 -174 811 -117 q 592 -232 690 -232 z "},"Ł":{"ha":642,"x_min":-6,"x_max":592,"o":"m 553 0 l -6 0 l 3 46 l 125 74 l 179 357 l 74 303 l 46 357 l 194 433 l 261 775 l 150 803 l 158 849 l 501 849 l 493 803 l 369 775 l 314 494 l 436 557 l 467 504 l 300 418 l 233 78 l 485 78 l 542 204 l 592 204 l 553 0 z "},"M":{"ha":1103,"x_min":-3,"x_max":1122,"o":"m 290 0 l -3 0 l 6 46 l 117 74 l 275 776 l 176 803 l 185 849 l 421 849 l 514 164 l 868 849 l 1122 849 l 1114 803 l 990 775 l 879 74 l 993 46 l 985 0 l 639 0 l 647 46 l 769 74 l 871 706 l 499 0 l 431 -14 l 332 710 l 189 74 l 299 46 l 290 0 z "},"N":{"ha":939,"x_min":-19,"x_max":979,"o":"m 689 849 l 979 849 l 971 803 l 858 776 l 708 0 l 644 -11 l 292 678 l 175 74 l 282 46 l 274 0 l -19 0 l -11 46 l 99 74 l 235 776 l 136 803 l 144 849 l 325 849 l 671 181 l 786 776 l 681 803 l 689 849 z "},"Ǌ":{"ha":1363,"x_min":-19,"x_max":1428,"o":"m 0 0 m 689 849 l 979 849 l 971 803 l 858 776 l 708 0 l 644 -11 l 292 678 l 175 74 l 282 46 l 274 0 l -19 0 l -11 46 l 99 74 l 235 776 l 136 803 l 144 849 l 325 849 l 671 181 l 786 776 l 681 803 l 689 849 m 939 -207 q 817 -169 864 -207 l 829 -131 l 924 -131 q 1011 -87 982 -131 q 1056 42 1040 -43 l 1189 775 l 1078 803 l 1086 849 l 1428 849 l 1419 803 l 1299 775 l 1174 88 q 1088 -142 1144 -76 q 939 -207 1031 -207 z "},"Ń":{"ha":981,"x_min":-6,"x_max":993,"o":"m 494 904 l 472 931 l 686 1111 l 792 1072 l 792 1047 l 494 904 m 703 849 l 993 849 l 985 803 l 872 776 l 722 0 l 658 -11 l 306 678 l 189 74 l 296 46 l 288 0 l -6 0 l 3 46 l 113 74 l 249 776 l 150 803 l 158 849 l 339 849 l 685 181 l 800 776 l 694 803 l 703 849 z "},"Ň":{"ha":981,"x_min":-6,"x_max":993,"o":"m 440 1117 l 582 1003 l 763 1118 l 790 1092 l 610 904 l 526 904 l 403 1092 l 440 1117 m 703 849 l 993 849 l 985 803 l 872 776 l 722 0 l 658 -11 l 306 678 l 189 74 l 296 46 l 288 0 l -6 0 l 3 46 l 113 74 l 249 776 l 150 803 l 158 849 l 339 849 l 685 181 l 800 776 l 694 803 l 703 849 z "},"Ņ":{"ha":981,"x_min":-6,"x_max":993,"o":"m 703 849 l 993 849 l 985 803 l 872 776 l 722 0 l 658 -11 l 306 678 l 189 74 l 296 46 l 288 0 l -6 0 l 3 46 l 113 74 l 249 776 l 150 803 l 158 849 l 339 849 l 685 181 l 800 776 l 694 803 l 703 849 m 342 -307 l 307 -297 l 356 -65 l 460 -43 l 481 -67 l 342 -307 z "},"Ṅ":{"ha":939,"x_min":-19,"x_max":979,"o":"m 0 0 m 689 849 l 979 849 l 971 803 l 858 776 l 708 0 l 644 -11 l 292 678 l 175 74 l 282 46 l 274 0 l -19 0 l -11 46 l 99 74 l 235 776 l 136 803 l 144 849 l 325 849 l 671 181 l 786 776 l 681 803 l 689 849 m 682 1007 q 657 951 682 974 q 599 928 632 928 q 540 951 565 928 q 515 1007 515 974 q 540 1066 515 1042 q 599 1090 565 1090 q 657 1065 632 1090 q 682 1007 682 1040 z "},"Ŋ":{"ha":939,"x_min":-19,"x_max":979,"o":"m 979 849 l 971 803 l 858 776 l 725 88 q 668 -106 701 -36 q 586 -203 635 -175 q 463 -232 538 -232 q 318 -192 392 -232 l 329 -140 q 443 -156 383 -156 q 558 -106 521 -156 q 608 58 594 -57 l 292 678 l 175 74 l 282 46 l 274 0 l -19 0 l -11 46 l 99 74 l 235 776 l 136 803 l 144 849 l 325 849 l 671 181 l 786 776 l 681 803 l 689 849 l 979 849 z "},"Ɲ":{"ha":939,"x_min":-182,"x_max":979,"o":"m 979 849 l 971 803 l 858 776 l 708 0 l 644 -11 l 292 676 q 172 -14 275 567 q 98 -176 153 -121 q -43 -232 43 -232 q -182 -192 -121 -232 l -171 -140 q -64 -156 -115 -156 q 43 -121 4 -156 q 97 0 82 -86 l 233 776 l 136 803 l 144 849 l 325 849 l 671 181 l 786 776 l 681 803 l 689 849 l 979 849 z "},"ǋ":{"ha":1324,"x_min":-19,"x_max":1321,"o":"m 0 0 m 689 849 l 979 849 l 971 803 l 858 776 l 708 0 l 644 -11 l 292 678 l 175 74 l 282 46 l 274 0 l -19 0 l -11 46 l 99 74 l 235 776 l 136 803 l 144 849 l 325 849 l 671 181 l 786 776 l 681 803 l 689 849 m 1239 808 q 1182 832 1207 808 q 1157 886 1157 856 q 1181 944 1157 919 q 1239 968 1206 968 q 1297 944 1272 968 q 1321 886 1321 921 q 1297 831 1321 854 q 1239 808 1272 808 m 907 -232 q 835 -223 868 -232 q 782 -204 801 -214 q 757 -192 763 -194 l 768 -140 q 874 -156 824 -156 q 982 -122 943 -156 q 1036 0 1021 -87 l 1142 608 l 1036 618 l 1031 653 q 1144 687 1079 672 q 1236 701 1210 701 q 1264 669 1264 701 q 1219 399 1253 596 q 1146 -14 1185 203 q 1066 -174 1126 -117 q 907 -232 1006 -232 z "},"Ñ":{"ha":981,"x_min":-6,"x_max":993,"o":"m 819 1063 q 769 965 793 999 q 715 931 746 931 q 608 958 692 931 q 504 986 528 986 q 476 975 490 986 q 453 952 463 964 q 442 936 444 940 l 400 953 q 450 1051 426 1017 q 506 1086 474 1086 q 610 1058 529 1086 q 670 1039 640 1047 q 717 1031 700 1031 q 744 1042 731 1031 q 766 1064 757 1053 q 776 1079 775 1075 l 819 1063 m 703 849 l 993 849 l 985 803 l 872 776 l 722 0 l 658 -11 l 306 678 l 189 74 l 296 46 l 288 0 l -6 0 l 3 46 l 113 74 l 249 776 l 150 803 l 158 849 l 339 849 l 685 181 l 800 776 l 694 803 l 703 849 z "},"O":{"ha":865,"x_min":58,"x_max":838,"o":"m 364 -12 q 133 72 208 -12 q 58 299 58 156 q 115 579 58 449 q 278 790 171 710 q 535 869 386 869 q 765 788 692 869 q 838 564 838 706 q 783 279 838 411 q 621 67 728 147 q 364 -12 514 -12 m 376 54 q 569 133 493 54 q 681 328 646 213 q 715 557 715 444 q 518 803 715 803 q 318 713 393 803 q 213 506 243 622 q 183 301 183 389 q 376 54 183 54 z "},"Ó":{"ha":865,"x_min":58,"x_max":838,"o":"m 58 0 m 364 -12 q 133 72 208 -12 q 58 299 58 156 q 115 579 58 449 q 278 790 171 710 q 535 869 386 869 q 765 788 692 869 q 838 564 838 706 q 783 279 838 411 q 621 67 728 147 q 364 -12 514 -12 m 376 54 q 569 133 493 54 q 681 328 646 213 q 715 557 715 444 q 518 803 715 803 q 318 713 393 803 q 213 506 243 622 q 183 301 183 389 q 376 54 183 54 m 485 904 l 463 931 l 676 1111 l 782 1072 l 782 1047 l 485 904 z "},"Ŏ":{"ha":865,"x_min":58,"x_max":838,"o":"m 58 0 m 364 -12 q 133 72 208 -12 q 58 299 58 156 q 115 579 58 449 q 278 790 171 710 q 535 869 386 869 q 765 788 692 869 q 838 564 838 706 q 783 279 838 411 q 621 67 728 147 q 364 -12 514 -12 m 376 54 q 569 133 493 54 q 681 328 646 213 q 715 557 715 444 q 518 803 715 803 q 318 713 393 803 q 213 506 243 622 q 183 301 183 389 q 376 54 183 54 m 547 929 q 407 1050 407 929 q 414 1090 407 1060 l 461 1090 q 457 1068 457 1081 q 481 1021 460 1038 q 557 1004 501 1004 q 693 1090 676 1004 l 739 1090 q 547 929 706 929 z "},"Ǒ":{"ha":865,"x_min":58,"x_max":838,"o":"m 58 0 m 364 -12 q 133 72 208 -12 q 58 299 58 156 q 115 579 58 449 q 278 790 171 710 q 535 869 386 869 q 765 788 692 869 q 838 564 838 706 q 783 279 838 411 q 621 67 728 147 q 364 -12 514 -12 m 376 54 q 569 133 493 54 q 681 328 646 213 q 715 557 715 444 q 518 803 715 803 q 318 713 393 803 q 213 506 243 622 q 183 301 183 389 q 376 54 183 54 m 418 1117 l 560 1003 l 740 1118 l 768 1092 l 588 904 l 504 904 l 381 1092 l 418 1117 z "},"Ô":{"ha":865,"x_min":58,"x_max":838,"o":"m 372 903 l 344 929 l 538 1117 l 621 1117 l 731 929 l 694 903 l 564 1021 l 372 903 m 364 -12 q 133 72 208 -12 q 58 299 58 156 q 115 579 58 449 q 278 790 171 710 q 535 869 386 869 q 765 788 692 869 q 838 564 838 706 q 783 279 838 411 q 621 67 728 147 q 364 -12 514 -12 m 376 54 q 569 133 493 54 q 681 328 646 213 q 715 557 715 444 q 518 803 715 803 q 318 713 393 803 q 213 506 243 622 q 183 301 183 389 q 376 54 183 54 z "},"Ố":{"ha":865,"x_min":58,"x_max":926,"o":"m 699 974 l 668 990 l 806 1235 l 918 1235 l 926 1211 l 699 974 m 658 903 l 528 1021 l 336 903 l 308 929 l 501 1117 l 585 1117 l 694 929 l 658 903 m 364 -12 q 133 72 208 -12 q 58 299 58 156 q 115 579 58 449 q 278 790 171 710 q 535 869 386 869 q 765 788 692 869 q 838 564 838 706 q 783 279 838 411 q 621 67 728 147 q 364 -12 514 -12 m 376 54 q 569 133 493 54 q 681 328 646 213 q 715 557 715 444 q 518 803 715 803 q 318 713 393 803 q 213 506 243 622 q 183 301 183 389 q 376 54 183 54 z "},"Ộ":{"ha":865,"x_min":58,"x_max":838,"o":"m 58 0 m 364 -12 q 133 72 208 -12 q 58 299 58 156 q 115 579 58 449 q 278 790 171 710 q 535 869 386 869 q 765 788 692 869 q 838 564 838 706 q 783 279 838 411 q 621 67 728 147 q 364 -12 514 -12 m 376 54 q 569 133 493 54 q 681 328 646 213 q 715 557 715 444 q 518 803 715 803 q 318 713 393 803 q 213 506 243 622 q 183 301 183 389 q 376 54 183 54 m 338 -57 q 396 -82 371 -57 q 421 -140 421 -107 q 396 -197 421 -174 q 338 -219 371 -219 q 279 -197 304 -219 q 254 -140 254 -174 q 279 -81 254 -106 q 338 -57 304 -57 m 693 903 l 563 1021 l 371 903 l 343 929 l 536 1117 l 619 1117 l 729 929 l 693 903 z "},"Ồ":{"ha":865,"x_min":58,"x_max":838,"o":"m 721 971 l 575 1214 l 589 1235 l 678 1235 l 754 981 l 721 971 m 658 903 l 528 1021 l 336 903 l 308 929 l 501 1117 l 585 1117 l 694 929 l 658 903 m 364 -12 q 133 72 208 -12 q 58 299 58 156 q 115 579 58 449 q 278 790 171 710 q 535 869 386 869 q 765 788 692 869 q 838 564 838 706 q 783 279 838 411 q 621 67 728 147 q 364 -12 514 -12 m 376 54 q 569 133 493 54 q 681 328 646 213 q 715 557 715 444 q 518 803 715 803 q 318 713 393 803 q 213 506 243 622 q 183 301 183 389 q 376 54 183 54 z "},"Ổ":{"ha":865,"x_min":58,"x_max":865,"o":"m 58 0 m 364 -12 q 133 72 208 -12 q 58 299 58 156 q 115 579 58 449 q 278 790 171 710 q 535 869 386 869 q 765 788 692 869 q 838 564 838 706 q 783 279 838 411 q 621 67 728 147 q 364 -12 514 -12 m 376 54 q 569 133 493 54 q 681 328 646 213 q 715 557 715 444 q 518 803 715 803 q 318 713 393 803 q 213 506 243 622 q 183 301 183 389 q 376 54 183 54 m 693 903 l 563 1021 l 371 903 l 343 929 l 536 1117 l 619 1117 l 729 929 l 693 903 m 699 1075 q 713 1104 700 1094 q 746 1122 725 1114 q 778 1141 768 1132 q 789 1168 789 1150 q 747 1199 789 1199 l 719 1197 l 700 1153 l 658 1153 l 664 1226 q 760 1235 718 1235 q 837 1219 808 1235 q 865 1172 865 1203 q 819 1108 865 1131 q 791 1097 808 1104 q 763 1083 774 1090 q 750 1061 753 1075 l 697 1061 l 699 1075 z "},"Ỗ":{"ha":865,"x_min":58,"x_max":838,"o":"m 58 0 m 364 -12 q 133 72 208 -12 q 58 299 58 156 q 115 579 58 449 q 278 790 171 710 q 535 869 386 869 q 765 788 692 869 q 838 564 838 706 q 783 279 838 411 q 621 67 728 147 q 364 -12 514 -12 m 376 54 q 569 133 493 54 q 681 328 646 213 q 715 557 715 444 q 518 803 715 803 q 318 713 393 803 q 213 506 243 622 q 183 301 183 389 q 376 54 183 54 m 693 903 l 563 1021 l 371 903 l 343 929 l 536 1117 l 619 1117 l 729 929 l 693 903 m 810 1261 q 760 1163 783 1197 q 706 1129 736 1129 q 599 1157 682 1129 q 494 1185 518 1185 q 467 1174 481 1185 q 444 1151 453 1163 q 432 1135 435 1139 l 390 1151 q 440 1250 417 1215 q 496 1285 464 1285 q 600 1257 519 1285 q 660 1238 631 1246 q 707 1229 690 1229 q 734 1240 721 1229 q 756 1263 747 1251 q 767 1278 765 1274 l 810 1261 z "},"Ȍ":{"ha":865,"x_min":58,"x_max":838,"o":"m 58 0 m 364 -12 q 133 72 208 -12 q 58 299 58 156 q 115 579 58 449 q 278 790 171 710 q 535 869 386 869 q 765 788 692 869 q 838 564 838 706 q 783 279 838 411 q 621 67 728 147 q 364 -12 514 -12 m 376 54 q 569 133 493 54 q 681 328 646 213 q 715 557 715 444 q 518 803 715 803 q 318 713 393 803 q 213 506 243 622 q 183 301 183 389 q 376 54 183 54 m 432 897 l 279 1099 l 279 1122 l 383 1122 l 463 913 l 432 897 m 657 897 l 503 1099 l 503 1122 l 607 1122 l 686 913 l 657 897 z "},"Ö":{"ha":865,"x_min":58,"x_max":838,"o":"m 426 932 q 371 955 394 932 q 347 1008 347 978 q 371 1065 347 1042 q 426 1089 394 1089 q 482 1065 458 1089 q 506 1008 506 1042 q 482 955 506 978 q 426 932 458 932 m 696 932 q 640 955 664 932 q 617 1008 617 978 q 640 1065 617 1042 q 696 1089 664 1089 q 752 1065 728 1089 q 776 1008 776 1042 q 752 955 776 978 q 696 932 728 932 m 364 -12 q 133 72 208 -12 q 58 299 58 156 q 115 579 58 449 q 278 790 171 710 q 535 869 386 869 q 765 788 692 869 q 838 564 838 706 q 783 279 838 411 q 621 67 728 147 q 364 -12 514 -12 m 376 54 q 569 133 493 54 q 681 328 646 213 q 715 557 715 444 q 518 803 715 803 q 318 713 393 803 q 213 506 243 622 q 183 301 183 389 q 376 54 183 54 z "},"Ọ":{"ha":865,"x_min":58,"x_max":838,"o":"m 58 0 m 364 -12 q 133 72 208 -12 q 58 299 58 156 q 115 579 58 449 q 278 790 171 710 q 535 869 386 869 q 765 788 692 869 q 838 564 838 706 q 783 279 838 411 q 621 67 728 147 q 364 -12 514 -12 m 376 54 q 569 133 493 54 q 681 328 646 213 q 715 557 715 444 q 518 803 715 803 q 318 713 393 803 q 213 506 243 622 q 183 301 183 389 q 376 54 183 54 m 338 -57 q 396 -82 371 -57 q 421 -140 421 -107 q 396 -197 421 -174 q 338 -219 371 -219 q 279 -197 304 -219 q 254 -140 254 -174 q 279 -81 254 -106 q 338 -57 304 -57 z "},"Ò":{"ha":865,"x_min":58,"x_max":838,"o":"m 681 904 l 383 1047 l 383 1072 l 489 1111 l 703 931 l 681 904 m 364 -12 q 133 72 208 -12 q 58 299 58 156 q 115 579 58 449 q 278 790 171 710 q 535 869 386 869 q 765 788 692 869 q 838 564 838 706 q 783 279 838 411 q 621 67 728 147 q 364 -12 514 -12 m 376 54 q 569 133 493 54 q 681 328 646 213 q 715 557 715 444 q 518 803 715 803 q 318 713 393 803 q 213 506 243 622 q 183 301 183 389 q 376 54 183 54 z "},"Ỏ":{"ha":865,"x_min":58,"x_max":838,"o":"m 58 0 m 364 -12 q 133 72 208 -12 q 58 299 58 156 q 115 579 58 449 q 278 790 171 710 q 535 869 386 869 q 765 788 692 869 q 838 564 838 706 q 783 279 838 411 q 621 67 728 147 q 364 -12 514 -12 m 376 54 q 569 133 493 54 q 681 328 646 213 q 715 557 715 444 q 518 803 715 803 q 318 713 393 803 q 213 506 243 622 q 183 301 183 389 q 376 54 183 54 m 535 953 q 549 982 536 972 q 582 1000 561 992 q 615 1019 604 1010 q 625 1046 625 1028 q 583 1076 625 1076 l 556 1075 l 536 1031 l 494 1031 l 500 1104 q 596 1113 554 1113 q 673 1097 644 1113 q 701 1050 701 1081 q 656 986 701 1008 q 627 975 644 982 q 599 960 610 968 q 586 939 589 953 l 533 939 l 535 953 z "},"Ơ":{"ha":865,"x_min":58,"x_max":953,"o":"m 953 881 q 910 793 953 829 q 797 742 867 757 q 838 564 838 671 q 783 279 838 411 q 621 67 728 147 q 364 -12 514 -12 q 133 72 208 -12 q 58 299 58 156 q 115 579 58 449 q 278 790 171 710 q 535 869 386 869 q 760 792 682 869 q 819 810 800 794 q 839 865 839 826 q 832 922 839 892 l 840 940 l 935 960 q 948 919 943 942 q 953 881 953 897 m 376 54 q 569 133 493 54 q 681 328 646 213 q 715 557 715 444 q 518 803 715 803 q 318 713 393 803 q 213 506 243 622 q 183 301 183 389 q 376 54 183 54 z "},"Ớ":{"ha":865,"x_min":58,"x_max":953,"o":"m 58 0 m 953 881 q 910 793 953 829 q 797 742 867 757 q 838 564 838 671 q 783 279 838 411 q 621 67 728 147 q 364 -12 514 -12 q 133 72 208 -12 q 58 299 58 156 q 115 579 58 449 q 278 790 171 710 q 535 869 386 869 q 760 792 682 869 q 819 810 800 794 q 839 865 839 826 q 832 922 839 892 l 840 940 l 935 960 q 948 919 943 942 q 953 881 953 897 m 376 54 q 569 133 493 54 q 681 328 646 213 q 715 557 715 444 q 518 803 715 803 q 318 713 393 803 q 213 506 243 622 q 183 301 183 389 q 376 54 183 54 m 485 904 l 463 931 l 676 1111 l 782 1072 l 782 1047 l 485 904 z "},"Ợ":{"ha":865,"x_min":58,"x_max":953,"o":"m 58 0 m 953 881 q 910 793 953 829 q 797 742 867 757 q 838 564 838 671 q 783 279 838 411 q 621 67 728 147 q 364 -12 514 -12 q 133 72 208 -12 q 58 299 58 156 q 115 579 58 449 q 278 790 171 710 q 535 869 386 869 q 760 792 682 869 q 819 810 800 794 q 839 865 839 826 q 832 922 839 892 l 840 940 l 935 960 q 948 919 943 942 q 953 881 953 897 m 376 54 q 569 133 493 54 q 681 328 646 213 q 715 557 715 444 q 518 803 715 803 q 318 713 393 803 q 213 506 243 622 q 183 301 183 389 q 376 54 183 54 m 338 -57 q 396 -82 371 -57 q 421 -140 421 -107 q 396 -197 421 -174 q 338 -219 371 -219 q 279 -197 304 -219 q 254 -140 254 -174 q 279 -81 254 -106 q 338 -57 304 -57 z "},"Ờ":{"ha":865,"x_min":58,"x_max":953,"o":"m 58 0 m 953 881 q 910 793 953 829 q 797 742 867 757 q 838 564 838 671 q 783 279 838 411 q 621 67 728 147 q 364 -12 514 -12 q 133 72 208 -12 q 58 299 58 156 q 115 579 58 449 q 278 790 171 710 q 535 869 386 869 q 760 792 682 869 q 819 810 800 794 q 839 865 839 826 q 832 922 839 892 l 840 940 l 935 960 q 948 919 943 942 q 953 881 953 897 m 376 54 q 569 133 493 54 q 681 328 646 213 q 715 557 715 444 q 518 803 715 803 q 318 713 393 803 q 213 506 243 622 q 183 301 183 389 q 376 54 183 54 m 614 904 l 317 1047 l 317 1072 l 422 1111 l 636 931 l 614 904 z "},"Ở":{"ha":865,"x_min":58,"x_max":953,"o":"m 58 0 m 953 881 q 910 793 953 829 q 797 742 867 757 q 838 564 838 671 q 783 279 838 411 q 621 67 728 147 q 364 -12 514 -12 q 133 72 208 -12 q 58 299 58 156 q 115 579 58 449 q 278 790 171 710 q 535 869 386 869 q 760 792 682 869 q 819 810 800 794 q 839 865 839 826 q 832 922 839 892 l 840 940 l 935 960 q 948 919 943 942 q 953 881 953 897 m 376 54 q 569 133 493 54 q 681 328 646 213 q 715 557 715 444 q 518 803 715 803 q 318 713 393 803 q 213 506 243 622 q 183 301 183 389 q 376 54 183 54 m 535 953 q 549 982 536 972 q 582 1000 561 992 q 615 1019 604 1010 q 625 1046 625 1028 q 583 1076 625 1076 l 556 1075 l 536 1031 l 494 1031 l 500 1104 q 596 1113 554 1113 q 673 1097 644 1113 q 701 1050 701 1081 q 656 986 701 1008 q 627 975 644 982 q 599 960 610 968 q 586 939 589 953 l 533 939 l 535 953 z "},"Ỡ":{"ha":865,"x_min":58,"x_max":953,"o":"m 58 0 m 953 881 q 910 793 953 829 q 797 742 867 757 q 838 564 838 671 q 783 279 838 411 q 621 67 728 147 q 364 -12 514 -12 q 133 72 208 -12 q 58 299 58 156 q 115 579 58 449 q 278 790 171 710 q 535 869 386 869 q 760 792 682 869 q 819 810 800 794 q 839 865 839 826 q 832 922 839 892 l 840 940 l 935 960 q 948 919 943 942 q 953 881 953 897 m 376 54 q 569 133 493 54 q 681 328 646 213 q 715 557 715 444 q 518 803 715 803 q 318 713 393 803 q 213 506 243 622 q 183 301 183 389 q 376 54 183 54 m 769 1063 q 719 965 743 999 q 665 931 696 931 q 558 958 642 931 q 454 986 478 986 q 426 975 440 986 q 403 952 413 964 q 392 936 394 940 l 350 953 q 400 1051 376 1017 q 456 1086 424 1086 q 560 1058 479 1086 q 620 1039 590 1047 q 667 1031 650 1031 q 694 1042 681 1031 q 716 1064 707 1053 q 726 1079 725 1075 l 769 1063 z "},"Ő":{"ha":865,"x_min":58,"x_max":838,"o":"m 369 899 l 343 914 l 463 1122 l 567 1122 l 567 1099 l 369 899 m 593 899 l 567 914 l 686 1122 l 790 1122 l 790 1099 l 593 899 m 364 -12 q 133 72 208 -12 q 58 299 58 156 q 115 579 58 449 q 278 790 171 710 q 535 869 386 869 q 765 788 692 869 q 838 564 838 706 q 783 279 838 411 q 621 67 728 147 q 364 -12 514 -12 m 376 54 q 569 133 493 54 q 681 328 646 213 q 715 557 715 444 q 518 803 715 803 q 318 713 393 803 q 213 506 243 622 q 183 301 183 389 q 376 54 183 54 z "},"Ȏ":{"ha":865,"x_min":58,"x_max":838,"o":"m 58 0 m 364 -12 q 133 72 208 -12 q 58 299 58 156 q 115 579 58 449 q 278 790 171 710 q 535 869 386 869 q 765 788 692 869 q 838 564 838 706 q 783 279 838 411 q 621 67 728 147 q 364 -12 514 -12 m 376 54 q 569 133 493 54 q 681 328 646 213 q 715 557 715 444 q 518 803 715 803 q 318 713 393 803 q 213 506 243 622 q 183 301 183 389 q 376 54 183 54 m 575 1099 q 715 978 715 1099 q 708 938 715 969 l 661 938 q 665 960 665 949 q 642 1007 663 990 q 565 1024 621 1024 q 429 938 446 1024 l 383 938 q 575 1099 417 1099 z "},"Ō":{"ha":865,"x_min":58,"x_max":838,"o":"m 396 957 l 407 1032 l 736 1032 l 725 957 l 396 957 m 364 -12 q 133 72 208 -12 q 58 299 58 156 q 115 579 58 449 q 278 790 171 710 q 535 869 386 869 q 765 788 692 869 q 838 564 838 706 q 783 279 838 411 q 621 67 728 147 q 364 -12 514 -12 m 376 54 q 569 133 493 54 q 681 328 646 213 q 715 557 715 444 q 518 803 715 803 q 318 713 393 803 q 213 506 243 622 q 183 301 183 389 q 376 54 183 54 z "},"Ǫ":{"ha":865,"x_min":58,"x_max":838,"o":"m 628 74 q 536 -30 575 29 q 497 -142 497 -89 q 515 -192 497 -175 q 563 -210 532 -210 q 638 -179 603 -210 l 657 -201 q 514 -271 599 -271 q 430 -243 458 -271 q 401 -172 401 -215 q 426 -87 401 -133 q 501 7 451 -40 q 364 -12 435 -12 q 133 72 208 -12 q 58 299 58 156 q 115 579 58 449 q 278 790 171 710 q 535 869 386 869 q 765 788 692 869 q 838 564 838 706 q 783 281 838 411 q 628 74 729 150 m 183 301 q 376 54 183 54 q 569 133 493 54 q 681 328 646 213 q 715 557 715 444 q 518 803 715 803 q 318 713 393 803 q 213 506 243 622 q 183 301 183 389 z "},"Ø":{"ha":865,"x_min":58,"x_max":838,"o":"m 261 0 q 108 103 158 25 q 58 299 58 182 q 115 579 58 449 q 278 790 171 710 q 535 869 386 869 l 542 869 l 579 983 l 664 983 l 624 861 q 785 760 733 838 q 838 564 838 682 q 783 279 838 411 q 621 67 728 147 q 364 -12 514 -12 l 342 -12 l 303 -133 l 218 -133 l 261 0 m 521 803 q 343 735 419 803 q 225 551 267 667 q 183 301 183 436 q 285 72 183 121 l 521 803 m 363 54 q 552 121 472 54 q 674 302 632 188 q 715 557 715 417 q 600 789 715 744 l 363 54 z "},"Ǿ":{"ha":865,"x_min":58,"x_max":838,"o":"m 58 0 m 261 0 q 108 103 158 25 q 58 299 58 182 q 115 579 58 449 q 278 790 171 710 q 535 869 386 869 l 542 869 l 579 983 l 664 983 l 624 861 q 785 760 733 838 q 838 564 838 682 q 783 279 838 411 q 621 67 728 147 q 364 -12 514 -12 l 342 -12 l 303 -133 l 218 -133 l 261 0 m 521 803 q 343 735 419 803 q 225 551 267 667 q 183 301 183 436 q 285 72 183 121 l 521 803 m 363 54 q 552 121 472 54 q 674 302 632 188 q 715 557 715 417 q 600 789 715 744 l 363 54 m 390 904 l 368 931 l 582 1111 l 688 1072 l 688 1047 l 390 904 z "},"Õ":{"ha":865,"x_min":58,"x_max":838,"o":"m 685 931 q 578 958 661 931 q 474 986 497 986 q 446 975 460 986 q 423 952 432 964 q 411 936 414 940 l 369 953 q 419 1051 396 1017 q 475 1086 443 1086 q 579 1058 499 1086 q 640 1039 610 1047 q 686 1031 669 1031 q 713 1042 700 1031 q 735 1064 726 1053 q 746 1079 744 1075 l 789 1063 q 739 965 763 999 q 685 931 715 931 m 364 -12 q 133 72 208 -12 q 58 299 58 156 q 115 579 58 449 q 278 790 171 710 q 535 869 386 869 q 765 788 692 869 q 838 564 838 706 q 783 279 838 411 q 621 67 728 147 q 364 -12 514 -12 m 376 54 q 569 133 493 54 q 681 328 646 213 q 715 557 715 444 q 518 803 715 803 q 318 713 393 803 q 213 506 243 622 q 183 301 183 389 q 376 54 183 54 z "},"Œ":{"ha":1246,"x_min":92,"x_max":1163,"o":"m 397 0 q 166 79 240 0 q 92 299 92 158 q 152 573 92 447 q 325 774 213 699 q 586 849 438 849 l 1163 849 l 1128 665 l 1075 665 l 1075 776 l 814 776 l 750 449 l 939 449 l 985 540 l 1032 540 l 983 289 l 936 289 l 922 385 l 738 385 l 678 78 l 960 78 l 1018 204 l 1069 204 l 1031 0 l 397 0 m 431 67 q 569 81 507 67 l 703 768 q 558 782 635 782 q 356 696 433 782 q 247 498 279 610 q 214 301 214 386 q 269 129 214 192 q 431 67 325 67 z "},"P":{"ha":711,"x_min":-15,"x_max":704,"o":"m 447 849 q 636 803 568 849 q 704 667 704 757 q 656 492 704 565 q 535 383 608 419 q 383 346 461 346 q 281 360 331 346 l 225 74 l 369 47 l 361 0 l -15 0 l -7 46 l 117 74 l 251 769 l 139 800 l 149 849 l 447 849 m 290 413 q 367 401 317 401 q 467 426 418 401 q 550 509 517 451 q 583 657 583 567 q 547 757 583 724 q 447 790 510 790 q 361 776 406 790 l 290 413 z "},"Þ":{"ha":656,"x_min":-15,"x_max":635,"o":"m -7 46 l 115 74 l 251 775 l 140 803 l 149 849 l 492 849 l 483 803 l 360 775 l 336 657 l 400 657 q 635 489 635 657 q 590 328 635 394 q 474 229 544 263 q 331 196 404 196 q 249 201 278 196 l 224 74 l 336 46 l 328 0 l -15 0 l -7 46 m 315 247 q 458 301 400 247 q 515 474 515 354 q 481 573 515 544 q 388 601 447 601 q 325 594 356 601 l 258 250 q 315 247 272 247 z "},"Q":{"ha":875,"x_min":49,"x_max":828,"o":"m 636 -210 q 570 -199 600 -210 q 483 -151 540 -187 l 256 -3 q 97 133 144 65 q 49 307 49 201 q 106 587 49 458 q 272 792 164 715 q 524 869 381 869 q 754 787 681 869 q 828 564 828 704 q 772 285 828 413 q 614 81 715 157 q 383 4 513 4 l 390 0 q 574 -97 492 -57 q 678 -136 656 -136 l 783 -136 l 781 -175 q 710 -199 753 -187 q 636 -210 668 -210 m 365 57 q 568 148 492 57 q 676 356 644 239 q 708 557 708 474 q 662 734 708 665 q 504 803 615 803 q 322 726 397 803 q 208 534 246 649 q 171 311 171 419 q 215 128 171 200 q 365 57 260 57 z "},"R":{"ha":756,"x_min":-15,"x_max":707,"o":"m 478 119 q 424 315 440 267 q 393 375 408 363 q 339 388 378 388 l 289 388 l 228 74 l 343 46 l 335 0 l -15 0 l -7 46 l 119 74 l 256 775 l 140 803 l 149 849 l 465 849 q 646 801 588 849 q 704 678 704 754 q 682 573 704 628 q 608 472 660 518 q 469 406 556 425 q 508 381 494 396 q 532 337 522 365 q 560 239 542 308 q 604 76 592 121 l 707 46 l 699 0 l 508 0 l 478 119 m 379 443 q 486 472 439 443 q 560 553 533 501 q 588 669 588 606 q 556 761 588 732 q 449 790 524 790 q 364 776 413 790 l 300 443 l 379 443 z "},"Ŕ":{"ha":761,"x_min":-4,"x_max":718,"o":"m 365 904 l 343 931 l 557 1111 l 663 1072 l 663 1047 l 365 904 m 489 119 q 435 315 451 267 q 404 375 419 363 q 350 388 389 388 l 300 388 l 239 74 l 354 46 l 346 0 l -4 0 l 4 46 l 131 74 l 267 775 l 151 803 l 160 849 l 476 849 q 657 801 599 849 q 715 678 715 754 q 693 573 715 628 q 619 472 671 518 q 481 406 567 425 q 519 381 506 396 q 543 337 533 365 q 571 239 553 308 q 615 76 603 121 l 718 46 l 710 0 l 519 0 l 489 119 m 390 443 q 497 472 450 443 q 572 553 544 501 q 599 669 599 606 q 567 761 599 732 q 460 790 535 790 q 375 776 424 790 l 311 443 l 390 443 z "},"Ř":{"ha":761,"x_min":-4,"x_max":718,"o":"m 336 1117 l 478 1003 l 658 1118 l 686 1092 l 506 904 l 422 904 l 299 1092 l 336 1117 m 489 119 q 435 315 451 267 q 404 375 419 363 q 350 388 389 388 l 300 388 l 239 74 l 354 46 l 346 0 l -4 0 l 4 46 l 131 74 l 267 775 l 151 803 l 160 849 l 476 849 q 657 801 599 849 q 715 678 715 754 q 693 573 715 628 q 619 472 671 518 q 481 406 567 425 q 519 381 506 396 q 543 337 533 365 q 571 239 553 308 q 615 76 603 121 l 718 46 l 710 0 l 519 0 l 489 119 m 390 443 q 497 472 450 443 q 572 553 544 501 q 599 669 599 606 q 567 761 599 732 q 460 790 535 790 q 375 776 424 790 l 311 443 l 390 443 z "},"Ŗ":{"ha":761,"x_min":-4,"x_max":718,"o":"m 489 119 q 435 315 451 267 q 404 375 419 363 q 350 388 389 388 l 300 388 l 239 74 l 354 46 l 346 0 l -4 0 l 4 46 l 131 74 l 267 775 l 151 803 l 160 849 l 476 849 q 657 801 599 849 q 715 678 715 754 q 693 573 715 628 q 619 472 671 518 q 481 406 567 425 q 519 381 506 396 q 543 337 533 365 q 571 239 553 308 q 615 76 603 121 l 718 46 l 710 0 l 519 0 l 489 119 m 390 443 q 497 472 450 443 q 572 553 544 501 q 599 669 599 606 q 567 761 599 732 q 460 790 535 790 q 375 776 424 790 l 311 443 l 390 443 m 290 -307 l 256 -297 l 304 -65 l 408 -43 l 429 -67 l 290 -307 z "},"Ȑ":{"ha":756,"x_min":-15,"x_max":707,"o":"m 0 0 m 478 119 q 424 315 440 267 q 393 375 408 363 q 339 388 378 388 l 289 388 l 228 74 l 343 46 l 335 0 l -15 0 l -7 46 l 119 74 l 256 775 l 140 803 l 149 849 l 465 849 q 646 801 588 849 q 704 678 704 754 q 682 573 704 628 q 608 472 660 518 q 469 406 556 425 q 508 381 494 396 q 532 337 522 365 q 560 239 542 308 q 604 76 592 121 l 707 46 l 699 0 l 508 0 l 478 119 m 379 443 q 486 472 439 443 q 560 553 533 501 q 588 669 588 606 q 556 761 588 732 q 449 790 524 790 q 364 776 413 790 l 300 443 l 379 443 m 379 897 l 226 1099 l 226 1122 l 331 1122 l 410 913 l 379 897 m 604 897 l 450 1099 l 450 1122 l 554 1122 l 633 913 l 604 897 z "},"Ṛ":{"ha":756,"x_min":-15,"x_max":707,"o":"m 0 0 m 478 119 q 424 315 440 267 q 393 375 408 363 q 339 388 378 388 l 289 388 l 228 74 l 343 46 l 335 0 l -15 0 l -7 46 l 119 74 l 256 775 l 140 803 l 149 849 l 465 849 q 646 801 588 849 q 704 678 704 754 q 682 573 704 628 q 608 472 660 518 q 469 406 556 425 q 508 381 494 396 q 532 337 522 365 q 560 239 542 308 q 604 76 592 121 l 707 46 l 699 0 l 508 0 l 478 119 m 379 443 q 486 472 439 443 q 560 553 533 501 q 588 669 588 606 q 556 761 588 732 q 449 790 524 790 q 364 776 413 790 l 300 443 l 379 443 m 285 -57 q 343 -82 318 -57 q 368 -140 368 -107 q 343 -197 368 -174 q 285 -219 318 -219 q 226 -197 251 -219 q 201 -140 201 -174 q 226 -81 201 -106 q 285 -57 251 -57 z "},"Ȓ":{"ha":756,"x_min":-15,"x_max":707,"o":"m 0 0 m 478 119 q 424 315 440 267 q 393 375 408 363 q 339 388 378 388 l 289 388 l 228 74 l 343 46 l 335 0 l -15 0 l -7 46 l 119 74 l 256 775 l 140 803 l 149 849 l 465 849 q 646 801 588 849 q 704 678 704 754 q 682 573 704 628 q 608 472 660 518 q 469 406 556 425 q 508 381 494 396 q 532 337 522 365 q 560 239 542 308 q 604 76 592 121 l 707 46 l 699 0 l 508 0 l 478 119 m 379 443 q 486 472 439 443 q 560 553 533 501 q 588 669 588 606 q 556 761 588 732 q 449 790 524 790 q 364 776 413 790 l 300 443 l 379 443 m 522 1099 q 663 978 663 1099 q 656 938 663 969 l 608 938 q 613 960 613 949 q 589 1007 610 990 q 513 1024 568 1024 q 376 938 393 1024 l 331 938 q 522 1099 364 1099 z "},"S":{"ha":658,"x_min":4,"x_max":647,"o":"m 221 -15 q 108 -4 167 -15 q 4 28 49 7 l 54 192 l 103 192 l 107 72 q 242 53 168 53 q 397 104 342 53 q 453 239 453 156 q 363 371 453 332 l 242 428 q 165 489 200 447 q 129 597 129 531 q 208 796 129 721 q 442 871 288 871 q 647 833 546 871 l 599 653 l 550 653 l 544 788 q 495 797 528 793 q 438 801 463 801 q 292 760 346 801 q 238 633 238 718 q 260 567 238 593 q 331 519 283 540 l 440 465 q 529 392 496 439 q 563 283 563 344 q 472 65 563 146 q 221 -15 382 -15 z "},"Ś":{"ha":642,"x_min":3,"x_max":646,"o":"m 324 904 l 301 931 l 515 1111 l 621 1072 l 621 1047 l 324 904 m 219 -15 q 106 -4 165 -15 q 3 28 47 7 l 53 192 l 101 192 l 106 72 q 240 53 167 53 q 396 104 340 53 q 451 239 451 156 q 361 371 451 333 l 240 428 q 163 489 199 447 q 128 597 128 531 q 207 796 128 721 q 440 871 286 871 q 646 833 544 871 l 597 653 l 549 653 l 543 788 q 494 797 526 793 q 436 801 461 801 q 290 760 344 801 q 236 633 236 718 q 259 567 236 593 q 329 519 282 540 l 439 465 q 528 392 494 439 q 561 283 561 344 q 471 65 561 146 q 219 -15 381 -15 z "},"Ꞌ":{"ha":121,"x_min":24,"x_max":219,"o":"m 67 390 l 24 399 l 104 849 l 204 849 l 219 826 l 67 390 z "},"Š":{"ha":642,"x_min":3,"x_max":653,"o":"m 303 1117 l 444 1003 l 625 1118 l 653 1092 l 472 904 l 389 904 l 265 1092 l 303 1117 m 219 -15 q 106 -4 165 -15 q 3 28 47 7 l 53 192 l 101 192 l 106 72 q 240 53 167 53 q 396 104 340 53 q 451 239 451 156 q 361 371 451 333 l 240 428 q 163 489 199 447 q 128 597 128 531 q 207 796 128 721 q 440 871 286 871 q 646 833 544 871 l 597 653 l 549 653 l 543 788 q 494 797 526 793 q 436 801 461 801 q 290 760 344 801 q 236 633 236 718 q 259 567 236 593 q 329 519 282 540 l 439 465 q 528 392 494 439 q 561 283 561 344 q 471 65 561 146 q 219 -15 381 -15 z "},"Ş":{"ha":642,"x_min":3,"x_max":646,"o":"m 561 283 q 478 72 561 151 q 244 -14 394 -8 l 219 -61 q 315 -84 283 -61 q 347 -143 347 -107 q 317 -223 347 -186 q 239 -282 288 -260 q 138 -304 190 -304 q 61 -294 92 -304 l 81 -257 q 133 -265 103 -265 q 221 -235 185 -265 q 257 -164 257 -206 q 235 -121 257 -137 q 163 -104 214 -104 l 161 -92 l 201 -15 q 97 -2 150 -12 q 3 28 43 8 l 53 192 l 101 192 l 106 72 q 240 53 167 53 q 396 104 340 53 q 451 239 451 156 q 361 371 451 333 l 240 428 q 163 489 199 447 q 128 597 128 531 q 207 796 128 721 q 440 871 286 871 q 646 833 544 871 l 597 653 l 549 653 l 543 788 q 494 797 526 793 q 436 801 461 801 q 290 760 344 801 q 236 633 236 718 q 259 567 236 593 q 329 519 282 540 l 439 465 q 528 392 494 439 q 561 283 561 344 z "},"Ŝ":{"ha":658,"x_min":4,"x_max":647,"o":"m 4 0 m 221 -15 q 108 -4 167 -15 q 4 28 49 7 l 54 192 l 103 192 l 107 72 q 242 53 168 53 q 397 104 342 53 q 453 239 453 156 q 363 371 453 332 l 242 428 q 165 489 200 447 q 129 597 129 531 q 208 796 129 721 q 442 871 288 871 q 647 833 546 871 l 599 653 l 550 653 l 544 788 q 495 797 528 793 q 438 801 463 801 q 292 760 346 801 q 238 633 238 718 q 260 567 238 593 q 331 519 283 540 l 440 465 q 529 392 496 439 q 563 283 563 344 q 472 65 563 146 q 221 -15 382 -15 m 592 903 l 461 1021 l 269 903 l 242 929 l 435 1117 l 518 1117 l 628 929 l 592 903 z "},"Ș":{"ha":642,"x_min":3,"x_max":646,"o":"m 219 -15 q 106 -4 165 -15 q 3 28 47 7 l 53 192 l 101 192 l 106 72 q 240 53 167 53 q 396 104 340 53 q 451 239 451 156 q 361 371 451 333 l 240 428 q 163 489 199 447 q 128 597 128 531 q 207 796 128 721 q 440 871 286 871 q 646 833 544 871 l 597 653 l 549 653 l 543 788 q 494 797 526 793 q 436 801 461 801 q 290 760 344 801 q 236 633 236 718 q 259 567 236 593 q 329 519 282 540 l 439 465 q 528 392 494 439 q 561 283 561 344 q 471 65 561 146 q 219 -15 381 -15 m 164 -307 l 129 -297 l 178 -65 l 282 -43 l 303 -67 l 164 -307 z "},"Ṣ":{"ha":658,"x_min":4,"x_max":647,"o":"m 4 0 m 221 -15 q 108 -4 167 -15 q 4 28 49 7 l 54 192 l 103 192 l 107 72 q 242 53 168 53 q 397 104 342 53 q 453 239 453 156 q 363 371 453 332 l 242 428 q 165 489 200 447 q 129 597 129 531 q 208 796 129 721 q 442 871 288 871 q 647 833 546 871 l 599 653 l 550 653 l 544 788 q 495 797 528 793 q 438 801 463 801 q 292 760 346 801 q 238 633 238 718 q 260 567 238 593 q 331 519 283 540 l 440 465 q 529 392 496 439 q 563 283 563 344 q 472 65 563 146 q 221 -15 382 -15 m 236 -57 q 294 -82 269 -57 q 319 -140 319 -107 q 294 -197 319 -174 q 236 -219 269 -219 q 178 -197 203 -219 q 153 -140 153 -174 q 178 -81 153 -106 q 236 -57 203 -57 z "},"ẞ":{"ha":800,"x_min":-71,"x_max":790,"o":"m 458 -15 q 308 28 364 -15 l 360 192 l 411 192 l 414 69 q 475 53 433 53 q 594 106 549 53 q 640 233 640 160 q 432 379 640 379 l 417 425 l 674 756 q 514 801 617 801 q 358 749 414 801 q 279 572 303 696 l 183 74 l 278 51 l 268 0 l -71 0 l -61 46 l 68 74 l 157 532 q 283 791 192 713 q 518 869 374 869 q 682 843 614 869 q 790 783 750 817 l 789 739 l 563 450 q 710 376 663 432 q 758 247 758 321 q 719 119 758 179 q 612 22 681 58 q 458 -15 543 -15 z "},"Ə":{"ha":863,"x_min":49,"x_max":814,"o":"m 354 -12 q 124 72 199 -12 q 49 299 49 156 q 65 457 49 381 l 683 457 q 689 538 689 494 q 634 735 688 667 q 453 803 581 803 q 278 775 368 803 l 222 658 l 175 658 l 194 818 q 471 869 331 869 q 814 549 814 869 q 754 253 814 381 q 590 57 694 126 q 354 -12 485 -12 m 367 54 q 566 151 489 54 q 672 389 643 247 l 181 389 q 174 301 174 331 q 367 54 174 54 z "},"T":{"ha":694,"x_min":75,"x_max":756,"o":"m 110 849 l 756 849 l 710 654 l 658 654 l 658 776 l 474 776 l 338 74 l 471 46 l 463 0 l 75 0 l 83 46 l 229 74 l 365 776 l 181 776 l 131 654 l 83 654 l 110 849 z "},"Ŧ":{"ha":694,"x_min":67,"x_max":756,"o":"m 710 654 l 658 654 l 658 776 l 474 776 l 413 461 l 668 461 l 657 397 l 400 397 l 338 74 l 471 46 l 463 0 l 75 0 l 83 46 l 229 74 l 292 397 l 67 397 l 78 461 l 304 461 l 365 776 l 181 776 l 131 654 l 83 654 l 110 849 l 756 849 l 710 654 z "},"Ť":{"ha":711,"x_min":94,"x_max":775,"o":"m 333 1117 l 475 1003 l 656 1118 l 683 1092 l 503 904 l 419 904 l 296 1092 l 333 1117 m 129 849 l 775 849 l 729 654 l 678 654 l 678 776 l 493 776 l 357 74 l 490 46 l 482 0 l 94 0 l 103 46 l 249 74 l 385 776 l 200 776 l 150 654 l 103 654 l 129 849 z "},"Ţ":{"ha":711,"x_min":94,"x_max":775,"o":"m 775 849 l 729 654 l 678 654 l 678 776 l 493 776 l 357 74 l 490 46 l 482 0 l 311 0 l 279 -61 q 375 -84 343 -61 q 407 -143 407 -107 q 377 -223 407 -186 q 299 -282 347 -260 q 197 -304 250 -304 q 121 -294 151 -304 l 140 -257 q 193 -265 163 -265 q 281 -235 244 -265 q 317 -164 317 -206 q 295 -121 317 -137 q 222 -104 274 -104 l 221 -92 l 269 0 l 94 0 l 103 46 l 249 74 l 385 776 l 200 776 l 150 654 l 103 654 l 129 849 l 775 849 z "},"Ț":{"ha":711,"x_min":94,"x_max":775,"o":"m 129 849 l 775 849 l 729 654 l 678 654 l 678 776 l 493 776 l 357 74 l 490 46 l 482 0 l 94 0 l 103 46 l 249 74 l 385 776 l 200 776 l 150 654 l 103 654 l 129 849 m 201 -307 l 167 -297 l 215 -65 l 319 -43 l 340 -67 l 201 -307 z "},"Ṭ":{"ha":694,"x_min":75,"x_max":756,"o":"m 75 0 m 110 849 l 756 849 l 710 654 l 658 654 l 658 776 l 474 776 l 338 74 l 471 46 l 463 0 l 75 0 l 83 46 l 229 74 l 365 776 l 181 776 l 131 654 l 83 654 l 110 849 m 254 -57 q 313 -82 288 -57 q 338 -140 338 -107 q 313 -197 338 -174 q 254 -219 288 -219 q 196 -197 221 -219 q 171 -140 171 -174 q 196 -81 171 -106 q 254 -57 221 -57 z "},"U":{"ha":847,"x_min":106,"x_max":910,"o":"m 704 328 q 356 -14 639 -14 q 167 45 222 -14 q 111 211 111 104 q 129 367 111 279 l 208 776 l 106 803 l 113 849 l 440 849 l 433 803 l 318 776 l 239 367 q 221 225 221 271 q 256 101 221 144 q 374 57 290 57 q 544 127 486 57 q 626 329 601 197 l 713 776 l 606 803 l 614 849 l 910 849 l 901 803 l 792 776 l 704 328 z "},"Ú":{"ha":921,"x_min":138,"x_max":942,"o":"m 458 904 l 436 931 l 650 1111 l 756 1072 l 756 1047 l 458 904 m 736 328 q 388 -14 671 -14 q 199 45 254 -14 q 143 211 143 104 q 161 367 143 279 l 240 776 l 138 803 l 144 849 l 472 849 l 465 803 l 350 776 l 271 367 q 253 225 253 271 q 288 101 253 144 q 406 57 322 57 q 576 127 518 57 q 658 329 633 197 l 744 776 l 638 803 l 646 849 l 942 849 l 933 803 l 824 776 l 736 328 z "},"Ŭ":{"ha":847,"x_min":106,"x_max":910,"o":"m 106 0 m 704 328 q 356 -14 639 -14 q 167 45 222 -14 q 111 211 111 104 q 129 367 111 279 l 208 776 l 106 803 l 113 849 l 440 849 l 433 803 l 318 776 l 239 367 q 221 225 221 271 q 256 101 221 144 q 374 57 290 57 q 544 127 486 57 q 626 329 601 197 l 713 776 l 606 803 l 614 849 l 910 849 l 901 803 l 792 776 l 704 328 m 540 929 q 400 1050 400 929 q 407 1090 400 1060 l 454 1090 q 450 1068 450 1081 q 474 1021 453 1038 q 550 1004 494 1004 q 686 1090 669 1004 l 732 1090 q 540 929 699 929 z "},"Ǔ":{"ha":847,"x_min":106,"x_max":910,"o":"m 106 0 m 704 328 q 356 -14 639 -14 q 167 45 222 -14 q 111 211 111 104 q 129 367 111 279 l 208 776 l 106 803 l 113 849 l 440 849 l 433 803 l 318 776 l 239 367 q 221 225 221 271 q 256 101 221 144 q 374 57 290 57 q 544 127 486 57 q 626 329 601 197 l 713 776 l 606 803 l 614 849 l 910 849 l 901 803 l 792 776 l 704 328 m 411 1117 l 553 1003 l 733 1118 l 761 1092 l 581 904 l 497 904 l 374 1092 l 411 1117 z "},"Û":{"ha":921,"x_min":138,"x_max":942,"o":"m 714 903 l 583 1021 l 392 903 l 364 929 l 557 1117 l 640 1117 l 750 929 l 714 903 m 736 328 q 388 -14 671 -14 q 199 45 254 -14 q 143 211 143 104 q 161 367 143 279 l 240 776 l 138 803 l 144 849 l 472 849 l 465 803 l 350 776 l 271 367 q 253 225 253 271 q 288 101 253 144 q 406 57 322 57 q 576 127 518 57 q 658 329 633 197 l 744 776 l 638 803 l 646 849 l 942 849 l 933 803 l 824 776 l 736 328 z "},"Ȕ":{"ha":847,"x_min":106,"x_max":910,"o":"m 106 0 m 704 328 q 356 -14 639 -14 q 167 45 222 -14 q 111 211 111 104 q 129 367 111 279 l 208 776 l 106 803 l 113 849 l 440 849 l 433 803 l 318 776 l 239 367 q 221 225 221 271 q 256 101 221 144 q 374 57 290 57 q 544 127 486 57 q 626 329 601 197 l 713 776 l 606 803 l 614 849 l 910 849 l 901 803 l 792 776 l 704 328 m 425 897 l 272 1099 l 272 1122 l 376 1122 l 456 913 l 425 897 m 650 897 l 496 1099 l 496 1122 l 600 1122 l 679 913 l 650 897 z "},"Ü":{"ha":921,"x_min":138,"x_max":942,"o":"m 528 1008 q 504 955 528 978 q 449 932 481 932 q 393 955 417 932 q 369 1008 369 978 q 393 1065 369 1042 q 449 1089 417 1089 q 504 1065 481 1089 q 528 1008 528 1042 m 799 1008 q 774 955 799 978 q 718 932 750 932 q 663 955 686 932 q 639 1008 639 978 q 663 1065 639 1042 q 718 1089 686 1089 q 774 1065 750 1089 q 799 1008 799 1042 m 736 328 q 388 -14 671 -14 q 199 45 254 -14 q 143 211 143 104 q 161 367 143 279 l 240 776 l 138 803 l 144 849 l 472 849 l 465 803 l 350 776 l 271 367 q 253 225 253 271 q 288 101 253 144 q 406 57 322 57 q 576 127 518 57 q 658 329 633 197 l 744 776 l 638 803 l 646 849 l 942 849 l 933 803 l 824 776 l 736 328 z "},"Ǘ":{"ha":847,"x_min":106,"x_max":910,"o":"m 106 0 m 704 328 q 356 -14 639 -14 q 167 45 222 -14 q 111 211 111 104 q 129 367 111 279 l 208 776 l 106 803 l 113 849 l 440 849 l 433 803 l 318 776 l 239 367 q 221 225 221 271 q 256 101 221 144 q 374 57 290 57 q 544 127 486 57 q 626 329 601 197 l 713 776 l 606 803 l 614 849 l 910 849 l 901 803 l 792 776 l 704 328 m 497 1008 q 474 955 497 978 q 418 932 450 932 q 363 955 386 932 q 339 1008 339 978 q 363 1065 339 1042 q 418 1089 386 1089 q 474 1065 450 1089 q 497 1008 497 1042 m 768 1008 q 744 955 768 978 q 688 932 719 932 q 632 955 656 932 q 608 1008 608 978 q 632 1065 608 1042 q 688 1089 656 1089 q 744 1065 719 1089 q 768 1008 768 1042 m 524 1144 l 501 1171 l 715 1351 l 821 1313 l 821 1288 l 524 1144 z "},"Ǚ":{"ha":847,"x_min":106,"x_max":910,"o":"m 106 0 m 704 328 q 356 -14 639 -14 q 167 45 222 -14 q 111 211 111 104 q 129 367 111 279 l 208 776 l 106 803 l 113 849 l 440 849 l 433 803 l 318 776 l 239 367 q 221 225 221 271 q 256 101 221 144 q 374 57 290 57 q 544 127 486 57 q 626 329 601 197 l 713 776 l 606 803 l 614 849 l 910 849 l 901 803 l 792 776 l 704 328 m 497 1008 q 474 955 497 978 q 418 932 450 932 q 363 955 386 932 q 339 1008 339 978 q 363 1065 339 1042 q 418 1089 386 1089 q 474 1065 450 1089 q 497 1008 497 1042 m 768 1008 q 744 955 768 978 q 688 932 719 932 q 632 955 656 932 q 608 1008 608 978 q 632 1065 608 1042 q 688 1089 656 1089 q 744 1065 719 1089 q 768 1008 768 1042 m 457 1357 l 599 1243 l 779 1358 l 807 1332 l 626 1144 l 543 1144 l 419 1332 l 457 1357 z "},"Ǜ":{"ha":847,"x_min":106,"x_max":910,"o":"m 106 0 m 704 328 q 356 -14 639 -14 q 167 45 222 -14 q 111 211 111 104 q 129 367 111 279 l 208 776 l 106 803 l 113 849 l 440 849 l 433 803 l 318 776 l 239 367 q 221 225 221 271 q 256 101 221 144 q 374 57 290 57 q 544 127 486 57 q 626 329 601 197 l 713 776 l 606 803 l 614 849 l 910 849 l 901 803 l 792 776 l 704 328 m 497 1008 q 474 955 497 978 q 418 932 450 932 q 363 955 386 932 q 339 1008 339 978 q 363 1065 339 1042 q 418 1089 386 1089 q 474 1065 450 1089 q 497 1008 497 1042 m 768 1008 q 744 955 768 978 q 688 932 719 932 q 632 955 656 932 q 608 1008 608 978 q 632 1065 608 1042 q 688 1089 656 1089 q 744 1065 719 1089 q 768 1008 768 1042 m 653 1144 l 356 1288 l 356 1313 l 461 1351 l 675 1171 l 653 1144 z "},"Ǖ":{"ha":847,"x_min":106,"x_max":910,"o":"m 106 0 m 704 328 q 356 -14 639 -14 q 167 45 222 -14 q 111 211 111 104 q 129 367 111 279 l 208 776 l 106 803 l 113 849 l 440 849 l 433 803 l 318 776 l 239 367 q 221 225 221 271 q 256 101 221 144 q 374 57 290 57 q 544 127 486 57 q 626 329 601 197 l 713 776 l 606 803 l 614 849 l 910 849 l 901 803 l 792 776 l 704 328 m 497 1008 q 474 955 497 978 q 418 932 450 932 q 363 955 386 932 q 339 1008 339 978 q 363 1065 339 1042 q 418 1089 386 1089 q 474 1065 450 1089 q 497 1008 497 1042 m 768 1008 q 744 955 768 978 q 688 932 719 932 q 632 955 656 932 q 608 1008 608 978 q 632 1065 608 1042 q 688 1089 656 1089 q 744 1065 719 1089 q 768 1008 768 1042 m 438 1272 l 767 1272 l 756 1197 l 426 1197 l 438 1272 z "},"Ụ":{"ha":847,"x_min":106,"x_max":910,"o":"m 106 0 m 704 328 q 356 -14 639 -14 q 167 45 222 -14 q 111 211 111 104 q 129 367 111 279 l 208 776 l 106 803 l 113 849 l 440 849 l 433 803 l 318 776 l 239 367 q 221 225 221 271 q 256 101 221 144 q 374 57 290 57 q 544 127 486 57 q 626 329 601 197 l 713 776 l 606 803 l 614 849 l 910 849 l 901 803 l 792 776 l 704 328 m 331 -57 q 389 -82 364 -57 q 414 -140 414 -107 q 389 -197 414 -174 q 331 -219 364 -219 q 272 -197 297 -219 q 247 -140 247 -174 q 272 -81 247 -106 q 331 -57 297 -57 z "},"Ù":{"ha":921,"x_min":138,"x_max":942,"o":"m 704 904 l 407 1047 l 407 1072 l 513 1111 l 726 931 l 704 904 m 736 328 q 388 -14 671 -14 q 199 45 254 -14 q 143 211 143 104 q 161 367 143 279 l 240 776 l 138 803 l 144 849 l 472 849 l 465 803 l 350 776 l 271 367 q 253 225 253 271 q 288 101 253 144 q 406 57 322 57 q 576 127 518 57 q 658 329 633 197 l 744 776 l 638 803 l 646 849 l 942 849 l 933 803 l 824 776 l 736 328 z "},"Ủ":{"ha":847,"x_min":106,"x_max":910,"o":"m 106 0 m 704 328 q 356 -14 639 -14 q 167 45 222 -14 q 111 211 111 104 q 129 367 111 279 l 208 776 l 106 803 l 113 849 l 440 849 l 433 803 l 318 776 l 239 367 q 221 225 221 271 q 256 101 221 144 q 374 57 290 57 q 544 127 486 57 q 626 329 601 197 l 713 776 l 606 803 l 614 849 l 910 849 l 901 803 l 792 776 l 704 328 m 528 953 q 542 982 529 972 q 575 1000 554 992 q 608 1019 597 1010 q 618 1046 618 1028 q 576 1076 618 1076 l 549 1075 l 529 1031 l 488 1031 l 493 1104 q 589 1113 547 1113 q 666 1097 638 1113 q 694 1050 694 1081 q 649 986 694 1008 q 620 975 638 982 q 592 960 603 968 q 579 939 582 953 l 526 939 l 528 953 z "},"Ư":{"ha":847,"x_min":106,"x_max":989,"o":"m 989 938 q 953 858 989 892 q 858 806 918 824 l 793 782 l 704 328 q 356 -14 639 -14 q 167 45 222 -14 q 111 211 111 104 q 129 367 111 279 l 208 776 l 106 803 l 113 849 l 440 849 l 433 803 l 318 776 l 239 367 q 221 225 221 271 q 256 101 221 144 q 374 57 290 57 q 544 127 486 57 q 626 329 601 197 l 713 776 l 606 803 l 614 849 l 775 849 q 850 864 825 849 q 875 922 875 879 q 868 979 875 949 l 876 997 l 971 1017 q 984 976 979 999 q 989 938 989 954 z "},"Ứ":{"ha":847,"x_min":106,"x_max":989,"o":"m 106 0 m 989 938 q 953 858 989 892 q 858 806 918 824 l 793 782 l 704 328 q 356 -14 639 -14 q 167 45 222 -14 q 111 211 111 104 q 129 367 111 279 l 208 776 l 106 803 l 113 849 l 440 849 l 433 803 l 318 776 l 239 367 q 221 225 221 271 q 256 101 221 144 q 374 57 290 57 q 544 127 486 57 q 626 329 601 197 l 713 776 l 606 803 l 614 849 l 775 849 q 850 864 825 849 q 875 922 875 879 q 868 979 875 949 l 876 997 l 971 1017 q 984 976 979 999 q 989 938 989 954 m 478 904 l 456 931 l 669 1111 l 775 1072 l 775 1047 l 478 904 z "},"Ự":{"ha":847,"x_min":106,"x_max":989,"o":"m 106 0 m 989 938 q 953 858 989 892 q 858 806 918 824 l 793 782 l 704 328 q 356 -14 639 -14 q 167 45 222 -14 q 111 211 111 104 q 129 367 111 279 l 208 776 l 106 803 l 113 849 l 440 849 l 433 803 l 318 776 l 239 367 q 221 225 221 271 q 256 101 221 144 q 374 57 290 57 q 544 127 486 57 q 626 329 601 197 l 713 776 l 606 803 l 614 849 l 775 849 q 850 864 825 849 q 875 922 875 879 q 868 979 875 949 l 876 997 l 971 1017 q 984 976 979 999 q 989 938 989 954 m 331 -57 q 389 -82 364 -57 q 414 -140 414 -107 q 389 -197 414 -174 q 331 -219 364 -219 q 272 -197 297 -219 q 247 -140 247 -174 q 272 -81 247 -106 q 331 -57 297 -57 z "},"Ừ":{"ha":847,"x_min":106,"x_max":989,"o":"m 106 0 m 989 938 q 953 858 989 892 q 858 806 918 824 l 793 782 l 704 328 q 356 -14 639 -14 q 167 45 222 -14 q 111 211 111 104 q 129 367 111 279 l 208 776 l 106 803 l 113 849 l 440 849 l 433 803 l 318 776 l 239 367 q 221 225 221 271 q 256 101 221 144 q 374 57 290 57 q 544 127 486 57 q 626 329 601 197 l 713 776 l 606 803 l 614 849 l 775 849 q 850 864 825 849 q 875 922 875 879 q 868 979 875 949 l 876 997 l 971 1017 q 984 976 979 999 q 989 938 989 954 m 607 904 l 310 1047 l 310 1072 l 415 1111 l 629 931 l 607 904 z "},"Ử":{"ha":847,"x_min":106,"x_max":989,"o":"m 106 0 m 989 938 q 953 858 989 892 q 858 806 918 824 l 793 782 l 704 328 q 356 -14 639 -14 q 167 45 222 -14 q 111 211 111 104 q 129 367 111 279 l 208 776 l 106 803 l 113 849 l 440 849 l 433 803 l 318 776 l 239 367 q 221 225 221 271 q 256 101 221 144 q 374 57 290 57 q 544 127 486 57 q 626 329 601 197 l 713 776 l 606 803 l 614 849 l 775 849 q 850 864 825 849 q 875 922 875 879 q 868 979 875 949 l 876 997 l 971 1017 q 984 976 979 999 q 989 938 989 954 m 528 953 q 542 982 529 972 q 575 1000 554 992 q 608 1019 597 1010 q 618 1046 618 1028 q 576 1076 618 1076 l 549 1075 l 529 1031 l 488 1031 l 493 1104 q 589 1113 547 1113 q 666 1097 638 1113 q 694 1050 694 1081 q 649 986 694 1008 q 620 975 638 982 q 592 960 603 968 q 579 939 582 953 l 526 939 l 528 953 z "},"Ữ":{"ha":847,"x_min":106,"x_max":989,"o":"m 106 0 m 989 938 q 953 858 989 892 q 858 806 918 824 l 793 782 l 704 328 q 356 -14 639 -14 q 167 45 222 -14 q 111 211 111 104 q 129 367 111 279 l 208 776 l 106 803 l 113 849 l 440 849 l 433 803 l 318 776 l 239 367 q 221 225 221 271 q 256 101 221 144 q 374 57 290 57 q 544 127 486 57 q 626 329 601 197 l 713 776 l 606 803 l 614 849 l 775 849 q 850 864 825 849 q 875 922 875 879 q 868 979 875 949 l 876 997 l 971 1017 q 984 976 979 999 q 989 938 989 954 m 763 1063 q 713 965 736 999 q 658 931 689 931 q 551 958 635 931 q 447 986 471 986 q 419 975 433 986 q 397 952 406 964 q 385 936 388 940 l 343 953 q 393 1051 369 1017 q 449 1086 417 1086 q 553 1058 472 1086 q 613 1039 583 1047 q 660 1031 643 1031 q 687 1042 674 1031 q 709 1064 700 1053 q 719 1079 718 1075 l 763 1063 z "},"Ű":{"ha":921,"x_min":138,"x_max":942,"o":"m 429 899 l 403 914 l 522 1122 l 626 1122 l 626 1099 l 429 899 m 653 899 l 626 914 l 746 1122 l 850 1122 l 850 1099 l 653 899 m 736 328 q 388 -14 671 -14 q 199 45 254 -14 q 143 211 143 104 q 161 367 143 279 l 240 776 l 138 803 l 144 849 l 472 849 l 465 803 l 350 776 l 271 367 q 253 225 253 271 q 288 101 253 144 q 406 57 322 57 q 576 127 518 57 q 658 329 633 197 l 744 776 l 638 803 l 646 849 l 942 849 l 933 803 l 824 776 l 736 328 z "},"Ȗ":{"ha":847,"x_min":106,"x_max":910,"o":"m 106 0 m 704 328 q 356 -14 639 -14 q 167 45 222 -14 q 111 211 111 104 q 129 367 111 279 l 208 776 l 106 803 l 113 849 l 440 849 l 433 803 l 318 776 l 239 367 q 221 225 221 271 q 256 101 221 144 q 374 57 290 57 q 544 127 486 57 q 626 329 601 197 l 713 776 l 606 803 l 614 849 l 910 849 l 901 803 l 792 776 l 704 328 m 568 1099 q 708 978 708 1099 q 701 938 708 969 l 654 938 q 658 960 658 949 q 635 1007 656 990 q 558 1024 614 1024 q 422 938 439 1024 l 376 938 q 568 1099 410 1099 z "},"Ū":{"ha":921,"x_min":138,"x_max":942,"o":"m 419 1032 l 749 1032 l 738 957 l 408 957 l 419 1032 m 736 328 q 388 -14 671 -14 q 199 45 254 -14 q 143 211 143 104 q 161 367 143 279 l 240 776 l 138 803 l 144 849 l 472 849 l 465 803 l 350 776 l 271 367 q 253 225 253 271 q 288 101 253 144 q 406 57 322 57 q 576 127 518 57 q 658 329 633 197 l 744 776 l 638 803 l 646 849 l 942 849 l 933 803 l 824 776 l 736 328 z "},"Ų":{"ha":921,"x_min":138,"x_max":942,"o":"m 736 328 q 490 0 682 54 q 391 -89 428 -29 q 354 -201 354 -149 q 372 -250 354 -233 q 421 -267 389 -267 q 494 -236 460 -267 l 514 -258 q 494 -279 514 -261 q 444 -312 475 -297 q 374 -328 413 -328 q 287 -300 315 -328 q 258 -229 258 -272 q 297 -122 258 -181 q 414 -12 336 -62 q 388 -14 406 -14 q 199 45 254 -14 q 143 211 143 104 q 161 367 143 279 l 240 776 l 138 803 l 144 849 l 472 849 l 465 803 l 350 776 l 271 367 q 253 225 253 271 q 288 101 253 144 q 406 57 322 57 q 576 127 518 57 q 658 329 633 197 l 744 776 l 638 803 l 646 849 l 942 849 l 933 803 l 824 776 l 736 328 z "},"Ů":{"ha":921,"x_min":138,"x_max":942,"o":"m 568 888 q 480 915 510 888 q 450 985 450 942 q 494 1094 450 1050 q 613 1139 538 1139 q 699 1112 669 1139 q 729 1040 729 1085 q 685 932 729 976 q 568 888 640 888 m 576 936 q 636 965 618 936 q 654 1036 654 994 q 604 1090 654 1090 q 544 1060 563 1090 q 525 988 525 1031 q 576 936 525 936 m 388 -14 q 199 45 254 -14 q 143 211 143 104 q 161 367 143 279 l 240 776 l 138 803 l 144 849 l 472 849 l 465 803 l 350 776 l 271 367 q 253 225 253 271 q 288 101 253 144 q 406 57 322 57 q 576 127 518 57 q 658 329 633 197 l 744 776 l 638 803 l 646 849 l 942 849 l 933 803 l 824 776 l 736 328 q 388 -14 671 -14 z "},"Ũ":{"ha":921,"x_min":146,"x_max":950,"o":"m 796 1063 q 746 965 769 999 q 692 931 722 931 q 585 958 668 931 q 481 986 504 986 q 453 975 467 986 q 430 952 439 964 q 418 936 421 940 l 376 953 q 426 1051 403 1017 q 482 1086 450 1086 q 586 1058 506 1086 q 647 1039 617 1047 q 693 1031 676 1031 q 720 1042 707 1031 q 742 1064 733 1053 q 753 1079 751 1075 l 796 1063 m 744 328 q 396 -14 679 -14 q 207 45 263 -14 q 151 211 151 104 q 169 367 151 279 l 249 776 l 146 803 l 153 849 l 481 849 l 474 803 l 358 776 l 279 367 q 261 225 261 271 q 296 101 261 144 q 414 57 331 57 q 584 127 526 57 q 667 329 642 197 l 753 776 l 646 803 l 654 849 l 950 849 l 942 803 l 832 776 l 744 328 z "},"V":{"ha":771,"x_min":81,"x_max":864,"o":"m 589 803 l 597 849 l 864 849 l 856 803 l 756 775 l 361 3 l 278 -14 l 168 775 l 81 803 l 89 849 l 369 849 l 361 803 l 279 775 l 363 140 l 678 775 l 589 803 z "},"W":{"ha":1083,"x_min":58,"x_max":1171,"o":"m 893 803 l 901 849 l 1171 849 l 1163 803 l 1063 775 l 715 3 l 646 -12 l 578 581 l 315 3 l 243 -12 l 147 775 l 58 803 l 67 849 l 349 849 l 340 803 l 260 775 l 322 183 l 586 776 l 663 792 l 722 179 l 981 775 l 893 803 z "},"Ẃ":{"ha":1083,"x_min":58,"x_max":1171,"o":"m 58 0 m 893 803 l 901 849 l 1171 849 l 1163 803 l 1063 775 l 715 3 l 646 -12 l 578 581 l 315 3 l 243 -12 l 147 775 l 58 803 l 67 849 l 349 849 l 340 803 l 260 775 l 322 183 l 586 776 l 663 792 l 722 179 l 981 775 l 893 803 m 596 904 l 574 931 l 788 1111 l 893 1072 l 893 1047 l 596 904 z "},"Ŵ":{"ha":1083,"x_min":58,"x_max":1171,"o":"m 58 0 m 893 803 l 901 849 l 1171 849 l 1163 803 l 1063 775 l 715 3 l 646 -12 l 578 581 l 315 3 l 243 -12 l 147 775 l 58 803 l 67 849 l 349 849 l 340 803 l 260 775 l 322 183 l 586 776 l 663 792 l 722 179 l 981 775 l 893 803 m 804 903 l 674 1021 l 482 903 l 454 929 l 647 1117 l 731 1117 l 840 929 l 804 903 z "},"Ẅ":{"ha":1083,"x_min":58,"x_max":1171,"o":"m 58 0 m 893 803 l 901 849 l 1171 849 l 1163 803 l 1063 775 l 715 3 l 646 -12 l 578 581 l 315 3 l 243 -12 l 147 775 l 58 803 l 67 849 l 349 849 l 340 803 l 260 775 l 322 183 l 586 776 l 663 792 l 722 179 l 981 775 l 893 803 m 615 1008 q 592 955 615 978 q 536 932 568 932 q 481 955 504 932 q 457 1008 457 978 q 481 1065 457 1042 q 536 1089 504 1089 q 592 1065 568 1089 q 615 1008 615 1042 m 886 1008 q 862 955 886 978 q 806 932 838 932 q 750 955 774 932 q 726 1008 726 978 q 750 1065 726 1042 q 806 1089 774 1089 q 862 1065 838 1089 q 886 1008 886 1042 z "},"Ẁ":{"ha":1083,"x_min":58,"x_max":1171,"o":"m 58 0 m 893 803 l 901 849 l 1171 849 l 1163 803 l 1063 775 l 715 3 l 646 -12 l 578 581 l 315 3 l 243 -12 l 147 775 l 58 803 l 67 849 l 349 849 l 340 803 l 260 775 l 322 183 l 586 776 l 663 792 l 722 179 l 981 775 l 893 803 m 725 904 l 428 1047 l 428 1072 l 533 1111 l 747 931 l 725 904 z "},"X":{"ha":767,"x_min":-46,"x_max":846,"o":"m -46 0 l -37 46 l 58 74 l 342 426 l 200 775 l 118 803 l 126 849 l 410 849 l 401 803 l 322 775 l 431 504 l 650 775 l 568 803 l 576 849 l 846 849 l 838 803 l 742 775 l 460 432 l 613 72 l 696 46 l 688 0 l 397 0 l 406 46 l 488 72 l 371 353 l 150 74 l 233 46 l 225 0 l -46 0 z "},"Y":{"ha":750,"x_min":93,"x_max":829,"o":"m 551 803 l 560 849 l 829 849 l 821 803 l 721 775 l 411 311 l 365 74 l 500 46 l 492 0 l 106 0 l 114 46 l 258 74 l 304 311 l 176 775 l 93 803 l 101 849 l 371 849 l 363 803 l 281 775 l 385 389 l 639 775 l 551 803 z "},"Ý":{"ha":774,"x_min":107,"x_max":843,"o":"m 392 904 l 369 931 l 583 1111 l 689 1072 l 689 1047 l 392 904 m 565 803 l 574 849 l 843 849 l 835 803 l 735 775 l 425 311 l 379 74 l 514 46 l 506 0 l 119 0 l 128 46 l 272 74 l 318 311 l 190 775 l 107 803 l 115 849 l 385 849 l 376 803 l 294 775 l 399 389 l 653 775 l 565 803 z "},"Ŷ":{"ha":774,"x_min":107,"x_max":843,"o":"m 653 903 l 522 1021 l 331 903 l 303 929 l 496 1117 l 579 1117 l 689 929 l 653 903 m 565 803 l 574 849 l 843 849 l 835 803 l 735 775 l 425 311 l 379 74 l 514 46 l 506 0 l 119 0 l 128 46 l 272 74 l 318 311 l 190 775 l 107 803 l 115 849 l 385 849 l 376 803 l 294 775 l 399 389 l 653 775 l 565 803 z "},"Ÿ":{"ha":774,"x_min":107,"x_max":843,"o":"m 463 1008 q 439 955 463 978 q 383 932 415 932 q 328 955 351 932 q 304 1008 304 978 q 328 1065 304 1042 q 383 1089 351 1089 q 439 1065 415 1089 q 463 1008 463 1042 m 733 1008 q 709 955 733 978 q 653 932 685 932 q 597 955 621 932 q 574 1008 574 978 q 597 1065 574 1042 q 653 1089 621 1089 q 709 1065 685 1089 q 733 1008 733 1042 m 565 803 l 574 849 l 843 849 l 835 803 l 735 775 l 425 311 l 379 74 l 514 46 l 506 0 l 119 0 l 128 46 l 272 74 l 318 311 l 190 775 l 107 803 l 115 849 l 385 849 l 376 803 l 294 775 l 399 389 l 653 775 l 565 803 z "},"Ỵ":{"ha":750,"x_min":93,"x_max":829,"o":"m 93 0 m 551 803 l 560 849 l 829 849 l 821 803 l 721 775 l 411 311 l 365 74 l 500 46 l 492 0 l 106 0 l 114 46 l 258 74 l 304 311 l 176 775 l 93 803 l 101 849 l 371 849 l 363 803 l 281 775 l 385 389 l 639 775 l 551 803 m 282 -57 q 340 -82 315 -57 q 365 -140 365 -107 q 340 -197 365 -174 q 282 -219 315 -219 q 224 -197 249 -219 q 199 -140 199 -174 q 224 -81 199 -106 q 282 -57 249 -57 z "},"Ỳ":{"ha":774,"x_min":107,"x_max":843,"o":"m 621 904 l 324 1047 l 324 1072 l 429 1111 l 643 931 l 621 904 m 119 0 l 128 46 l 272 74 l 318 311 l 190 775 l 107 803 l 115 849 l 385 849 l 376 803 l 294 775 l 399 389 l 653 775 l 565 803 l 574 849 l 843 849 l 835 803 l 735 775 l 425 311 l 379 74 l 514 46 l 506 0 l 119 0 z "},"Ỷ":{"ha":750,"x_min":93,"x_max":829,"o":"m 93 0 m 551 803 l 560 849 l 829 849 l 821 803 l 721 775 l 411 311 l 365 74 l 500 46 l 492 0 l 106 0 l 114 46 l 258 74 l 304 311 l 176 775 l 93 803 l 101 849 l 371 849 l 363 803 l 281 775 l 385 389 l 639 775 l 551 803 m 479 953 q 493 982 481 972 q 526 1000 506 992 q 559 1019 549 1010 q 569 1046 569 1028 q 528 1076 569 1076 l 500 1075 l 481 1031 l 439 1031 l 444 1104 q 540 1113 499 1113 q 617 1097 589 1113 q 646 1050 646 1081 q 600 986 646 1008 q 572 975 589 982 q 544 960 554 968 q 531 939 533 953 l 478 939 l 479 953 z "},"Ȳ":{"ha":750,"x_min":93,"x_max":829,"o":"m 93 0 m 551 803 l 560 849 l 829 849 l 821 803 l 721 775 l 411 311 l 365 74 l 500 46 l 492 0 l 106 0 l 114 46 l 258 74 l 304 311 l 176 775 l 93 803 l 101 849 l 371 849 l 363 803 l 281 775 l 385 389 l 639 775 l 551 803 m 343 1032 l 672 1032 l 661 957 l 332 957 l 343 1032 z "},"Ỹ":{"ha":774,"x_min":107,"x_max":843,"o":"m 726 1063 q 676 965 700 999 q 622 931 653 931 q 515 958 599 931 q 411 986 435 986 q 383 975 397 986 q 360 952 369 964 q 349 936 351 940 l 307 953 q 357 1051 333 1017 q 413 1086 381 1086 q 517 1058 436 1086 q 577 1039 547 1047 q 624 1031 607 1031 q 651 1042 638 1031 q 673 1064 664 1053 q 683 1079 682 1075 l 726 1063 m 565 803 l 574 849 l 843 849 l 835 803 l 735 775 l 425 311 l 379 74 l 514 46 l 506 0 l 119 0 l 128 46 l 272 74 l 318 311 l 190 775 l 107 803 l 115 849 l 385 849 l 376 803 l 294 775 l 399 389 l 653 775 l 565 803 z "},"Z":{"ha":711,"x_min":15,"x_max":728,"o":"m 622 204 l 569 0 l 31 0 l 15 46 l 575 775 l 265 775 l 215 665 l 165 665 l 189 849 l 728 849 l 725 804 l 165 75 l 499 75 l 572 204 l 622 204 z "},"Ź":{"ha":711,"x_min":-3,"x_max":710,"o":"m 322 904 l 300 931 l 514 1111 l 619 1072 l 619 1047 l 322 904 m 604 204 l 551 0 l 13 0 l -3 46 l 557 775 l 247 775 l 197 665 l 147 665 l 171 849 l 710 849 l 707 804 l 147 75 l 481 75 l 554 204 l 604 204 z "},"Ž":{"ha":711,"x_min":-3,"x_max":710,"o":"m 317 1117 l 458 1003 l 639 1118 l 667 1092 l 486 904 l 403 904 l 279 1092 l 317 1117 m 604 204 l 551 0 l 13 0 l -3 46 l 557 775 l 247 775 l 197 665 l 147 665 l 171 849 l 710 849 l 707 804 l 147 75 l 481 75 l 554 204 l 604 204 z "},"Ż":{"ha":711,"x_min":-3,"x_max":710,"o":"m 524 1007 q 499 951 524 974 q 440 928 474 928 q 382 951 407 928 q 357 1007 357 974 q 382 1066 357 1042 q 440 1090 407 1090 q 499 1065 474 1090 q 524 1007 524 1040 m 604 204 l 551 0 l 13 0 l -3 46 l 557 775 l 247 775 l 197 665 l 147 665 l 171 849 l 710 849 l 707 804 l 147 75 l 481 75 l 554 204 l 604 204 z "},"Ẓ":{"ha":711,"x_min":15,"x_max":728,"o":"m 15 0 m 622 204 l 569 0 l 31 0 l 15 46 l 575 775 l 265 775 l 215 665 l 165 665 l 189 849 l 728 849 l 725 804 l 165 75 l 499 75 l 572 204 l 622 204 m 263 -57 q 321 -82 296 -57 q 346 -140 346 -107 q 321 -197 346 -174 q 263 -219 296 -219 q 204 -197 229 -219 q 179 -140 179 -174 q 204 -81 179 -106 q 263 -57 229 -57 z "},"a":{"ha":713,"x_min":47,"x_max":651,"o":"m 567 281 q 545 138 551 200 q 538 69 539 75 l 647 69 l 647 28 q 552 -3 585 6 q 493 -11 519 -11 q 429 46 429 -11 q 434 91 431 64 q 439 131 438 118 q 327 29 394 69 q 208 -11 260 -11 q 47 197 47 -11 q 96 464 47 351 q 233 635 144 576 q 443 694 322 694 q 529 685 481 694 q 578 674 578 675 l 608 728 l 651 717 l 567 281 m 254 74 q 353 120 292 74 q 446 214 415 167 q 521 596 447 214 q 476 619 503 610 q 428 628 450 628 q 283 567 342 628 q 194 410 224 507 q 164 200 164 313 q 188 103 164 132 q 254 74 211 74 z "},"á":{"ha":713,"x_min":47,"x_max":651,"o":"m 47 0 m 567 281 q 545 138 551 200 q 538 69 539 75 l 647 69 l 647 28 q 552 -3 585 6 q 493 -11 519 -11 q 429 46 429 -11 q 434 91 431 64 q 439 131 438 118 q 327 29 394 69 q 208 -11 260 -11 q 47 197 47 -11 q 96 464 47 351 q 233 635 144 576 q 443 694 322 694 q 529 685 481 694 q 578 674 578 675 l 608 728 l 651 717 l 567 281 m 254 74 q 353 120 292 74 q 446 214 415 167 q 521 596 447 214 q 476 619 503 610 q 428 628 450 628 q 283 567 342 628 q 194 410 224 507 q 164 200 164 313 q 188 103 164 132 q 254 74 211 74 m 331 775 l 308 801 l 522 982 l 628 943 l 628 918 l 331 775 z "},"ă":{"ha":713,"x_min":47,"x_max":651,"o":"m 432 807 q 292 928 292 807 q 299 968 292 938 l 346 968 q 342 946 342 958 q 365 899 344 915 q 442 882 386 882 q 578 968 561 882 l 624 968 q 432 807 590 807 m 567 281 q 545 138 551 200 q 538 69 539 75 l 647 69 l 647 28 q 552 -3 585 6 q 493 -11 519 -11 q 429 46 429 -11 q 434 91 431 64 q 439 131 438 118 q 327 29 394 69 q 208 -11 260 -11 q 47 197 47 -11 q 96 464 47 351 q 233 635 144 576 q 443 694 322 694 q 529 685 481 694 q 578 674 578 675 l 608 728 l 651 717 l 567 281 m 254 74 q 353 120 292 74 q 446 214 415 167 q 521 596 447 214 q 476 619 503 610 q 428 628 450 628 q 283 567 342 628 q 194 410 224 507 q 164 200 164 313 q 188 103 164 132 q 254 74 211 74 z "},"ắ":{"ha":713,"x_min":47,"x_max":711,"o":"m 47 0 m 567 281 q 545 138 551 200 q 538 69 539 75 l 647 69 l 647 28 q 552 -3 585 6 q 493 -11 519 -11 q 429 46 429 -11 q 434 91 431 64 q 439 131 438 118 q 327 29 394 69 q 208 -11 260 -11 q 47 197 47 -11 q 96 464 47 351 q 233 635 144 576 q 443 694 322 694 q 529 685 481 694 q 578 674 578 675 l 608 728 l 651 717 l 567 281 m 254 74 q 353 120 292 74 q 446 214 415 167 q 521 596 447 214 q 476 619 503 610 q 428 628 450 628 q 283 567 342 628 q 194 410 224 507 q 164 200 164 313 q 188 103 164 132 q 254 74 211 74 m 442 765 q 301 886 301 765 q 308 926 301 896 l 356 926 q 351 904 351 917 q 375 857 354 874 q 451 840 396 840 q 588 926 571 840 l 633 926 q 442 765 600 765 m 414 919 l 392 946 l 606 1126 l 711 1088 l 711 1063 l 414 919 z "},"ặ":{"ha":713,"x_min":47,"x_max":651,"o":"m 47 0 m 567 281 q 545 138 551 200 q 538 69 539 75 l 647 69 l 647 28 q 552 -3 585 6 q 493 -11 519 -11 q 429 46 429 -11 q 434 91 431 64 q 439 131 438 118 q 327 29 394 69 q 208 -11 260 -11 q 47 197 47 -11 q 96 464 47 351 q 233 635 144 576 q 443 694 322 694 q 529 685 481 694 q 578 674 578 675 l 608 728 l 651 717 l 567 281 m 254 74 q 353 120 292 74 q 446 214 415 167 q 521 596 447 214 q 476 619 503 610 q 428 628 450 628 q 283 567 342 628 q 194 410 224 507 q 164 200 164 313 q 188 103 164 132 q 254 74 211 74 m 264 -57 q 322 -82 297 -57 q 347 -140 347 -107 q 322 -197 347 -174 q 264 -219 297 -219 q 206 -197 231 -219 q 181 -140 181 -174 q 206 -81 181 -106 q 264 -57 231 -57 m 450 807 q 310 928 310 807 q 317 968 310 938 l 364 968 q 360 946 360 958 q 383 899 363 915 q 460 882 404 882 q 596 968 579 882 l 642 968 q 450 807 608 807 z "},"ằ":{"ha":713,"x_min":47,"x_max":651,"o":"m 47 0 m 567 281 q 545 138 551 200 q 538 69 539 75 l 647 69 l 647 28 q 552 -3 585 6 q 493 -11 519 -11 q 429 46 429 -11 q 434 91 431 64 q 439 131 438 118 q 327 29 394 69 q 208 -11 260 -11 q 47 197 47 -11 q 96 464 47 351 q 233 635 144 576 q 443 694 322 694 q 529 685 481 694 q 578 674 578 675 l 608 728 l 651 717 l 567 281 m 254 74 q 353 120 292 74 q 446 214 415 167 q 521 596 447 214 q 476 619 503 610 q 428 628 450 628 q 283 567 342 628 q 194 410 224 507 q 164 200 164 313 q 188 103 164 132 q 254 74 211 74 m 442 765 q 301 886 301 765 q 308 926 301 896 l 356 926 q 351 904 351 917 q 375 857 354 874 q 451 840 396 840 q 588 926 571 840 l 633 926 q 442 765 600 765 m 543 919 l 246 1063 l 246 1088 l 351 1126 l 565 946 l 543 919 z "},"ẳ":{"ha":713,"x_min":47,"x_max":651,"o":"m 47 0 m 567 281 q 545 138 551 200 q 538 69 539 75 l 647 69 l 647 28 q 552 -3 585 6 q 493 -11 519 -11 q 429 46 429 -11 q 434 91 431 64 q 439 131 438 118 q 327 29 394 69 q 208 -11 260 -11 q 47 197 47 -11 q 96 464 47 351 q 233 635 144 576 q 443 694 322 694 q 529 685 481 694 q 578 674 578 675 l 608 728 l 651 717 l 567 281 m 254 74 q 353 120 292 74 q 446 214 415 167 q 521 596 447 214 q 476 619 503 610 q 428 628 450 628 q 283 567 342 628 q 194 410 224 507 q 164 200 164 313 q 188 103 164 132 q 254 74 211 74 m 442 765 q 301 886 301 765 q 308 926 301 896 l 356 926 q 351 904 351 917 q 375 857 354 874 q 451 840 396 840 q 588 926 571 840 l 633 926 q 442 765 600 765 m 464 968 q 478 997 465 988 q 511 1015 490 1007 q 544 1034 533 1025 q 554 1061 554 1043 q 513 1092 554 1092 l 485 1090 l 465 1046 l 424 1046 l 429 1119 q 525 1128 483 1128 q 602 1112 574 1128 q 631 1065 631 1096 q 585 1001 631 1024 q 556 990 574 997 q 528 976 539 983 q 515 954 518 968 l 463 954 l 464 968 z "},"ẵ":{"ha":713,"x_min":47,"x_max":699,"o":"m 47 0 m 567 281 q 545 138 551 200 q 538 69 539 75 l 647 69 l 647 28 q 552 -3 585 6 q 493 -11 519 -11 q 429 46 429 -11 q 434 91 431 64 q 439 131 438 118 q 327 29 394 69 q 208 -11 260 -11 q 47 197 47 -11 q 96 464 47 351 q 233 635 144 576 q 443 694 322 694 q 529 685 481 694 q 578 674 578 675 l 608 728 l 651 717 l 567 281 m 254 74 q 353 120 292 74 q 446 214 415 167 q 521 596 447 214 q 476 619 503 610 q 428 628 450 628 q 283 567 342 628 q 194 410 224 507 q 164 200 164 313 q 188 103 164 132 q 254 74 211 74 m 442 765 q 301 886 301 765 q 308 926 301 896 l 356 926 q 351 904 351 917 q 375 857 354 874 q 451 840 396 840 q 588 926 571 840 l 633 926 q 442 765 600 765 m 699 1078 q 649 980 672 1014 q 594 946 625 946 q 488 974 571 946 q 383 1001 407 1001 q 356 990 369 1001 q 333 967 342 979 q 321 951 324 956 l 279 968 q 329 1067 306 1032 q 385 1101 353 1101 q 489 1074 408 1101 q 549 1054 519 1063 q 596 1046 579 1046 q 623 1057 610 1046 q 645 1079 636 1068 q 656 1094 654 1090 l 699 1078 z "},"ǎ":{"ha":713,"x_min":47,"x_max":654,"o":"m 47 0 m 567 281 q 545 138 551 200 q 538 69 539 75 l 647 69 l 647 28 q 552 -3 585 6 q 493 -11 519 -11 q 429 46 429 -11 q 434 91 431 64 q 439 131 438 118 q 327 29 394 69 q 208 -11 260 -11 q 47 197 47 -11 q 96 464 47 351 q 233 635 144 576 q 443 694 322 694 q 529 685 481 694 q 578 674 578 675 l 608 728 l 651 717 l 567 281 m 254 74 q 353 120 292 74 q 446 214 415 167 q 521 596 447 214 q 476 619 503 610 q 428 628 450 628 q 283 567 342 628 q 194 410 224 507 q 164 200 164 313 q 188 103 164 132 q 254 74 211 74 m 332 993 l 460 865 l 626 994 l 654 968 l 488 767 l 404 767 l 294 968 l 332 993 z "},"â":{"ha":713,"x_min":47,"x_max":651,"o":"m 567 767 l 451 886 l 286 767 l 258 793 l 424 985 l 507 985 l 603 793 l 567 767 m 567 281 q 545 138 551 200 q 538 69 539 75 l 647 69 l 647 28 q 552 -3 585 6 q 493 -11 519 -11 q 429 46 429 -11 q 434 91 431 64 q 439 131 438 118 q 327 29 394 69 q 208 -11 260 -11 q 47 197 47 -11 q 96 464 47 351 q 233 635 144 576 q 443 694 322 694 q 529 685 481 694 q 578 674 578 675 l 608 728 l 651 717 l 567 281 m 254 74 q 353 120 292 74 q 446 214 415 167 q 521 596 447 214 q 476 619 503 610 q 428 628 450 628 q 283 567 342 628 q 194 410 224 507 q 164 200 164 313 q 188 103 164 132 q 254 74 211 74 z "},"ấ":{"ha":713,"x_min":47,"x_max":860,"o":"m 632 842 l 601 858 l 739 1103 l 851 1103 l 860 1079 l 632 842 m 578 767 l 463 886 l 297 767 l 269 793 l 435 985 l 518 985 l 614 793 l 578 767 m 567 281 q 545 138 551 200 q 538 69 539 75 l 647 69 l 647 28 q 552 -3 585 6 q 493 -11 519 -11 q 429 46 429 -11 q 434 91 431 64 q 439 131 438 118 q 327 29 394 69 q 208 -11 260 -11 q 47 197 47 -11 q 96 464 47 351 q 233 635 144 576 q 443 694 322 694 q 529 685 481 694 q 578 674 578 675 l 608 728 l 651 717 l 567 281 m 254 74 q 353 120 292 74 q 446 214 415 167 q 521 596 447 214 q 476 619 503 610 q 428 628 450 628 q 283 567 342 628 q 194 410 224 507 q 164 200 164 313 q 188 103 164 132 q 254 74 211 74 z "},"ậ":{"ha":713,"x_min":47,"x_max":651,"o":"m 47 0 m 567 281 q 545 138 551 200 q 538 69 539 75 l 647 69 l 647 28 q 552 -3 585 6 q 493 -11 519 -11 q 429 46 429 -11 q 434 91 431 64 q 439 131 438 118 q 327 29 394 69 q 208 -11 260 -11 q 47 197 47 -11 q 96 464 47 351 q 233 635 144 576 q 443 694 322 694 q 529 685 481 694 q 578 674 578 675 l 608 728 l 651 717 l 567 281 m 254 74 q 353 120 292 74 q 446 214 415 167 q 521 596 447 214 q 476 619 503 610 q 428 628 450 628 q 283 567 342 628 q 194 410 224 507 q 164 200 164 313 q 188 103 164 132 q 254 74 211 74 m 264 -57 q 322 -82 297 -57 q 347 -140 347 -107 q 322 -197 347 -174 q 264 -219 297 -219 q 206 -197 231 -219 q 181 -140 181 -174 q 206 -81 181 -106 q 264 -57 231 -57 m 578 767 l 463 886 l 297 767 l 269 793 l 435 985 l 518 985 l 614 793 l 578 767 z "},"ầ":{"ha":713,"x_min":47,"x_max":688,"o":"m 654 839 l 508 1082 l 522 1103 l 611 1103 l 688 849 l 654 839 m 578 767 l 463 886 l 297 767 l 269 793 l 435 985 l 518 985 l 614 793 l 578 767 m 567 281 q 545 138 551 200 q 538 69 539 75 l 647 69 l 647 28 q 552 -3 585 6 q 493 -11 519 -11 q 429 46 429 -11 q 434 91 431 64 q 439 131 438 118 q 327 29 394 69 q 208 -11 260 -11 q 47 197 47 -11 q 96 464 47 351 q 233 635 144 576 q 443 694 322 694 q 529 685 481 694 q 578 674 578 675 l 608 728 l 651 717 l 567 281 m 254 74 q 353 120 292 74 q 446 214 415 167 q 521 596 447 214 q 476 619 503 610 q 428 628 450 628 q 283 567 342 628 q 194 410 224 507 q 164 200 164 313 q 188 103 164 132 q 254 74 211 74 z "},"ẩ":{"ha":713,"x_min":47,"x_max":750,"o":"m 47 0 m 567 281 q 545 138 551 200 q 538 69 539 75 l 647 69 l 647 28 q 552 -3 585 6 q 493 -11 519 -11 q 429 46 429 -11 q 434 91 431 64 q 439 131 438 118 q 327 29 394 69 q 208 -11 260 -11 q 47 197 47 -11 q 96 464 47 351 q 233 635 144 576 q 443 694 322 694 q 529 685 481 694 q 578 674 578 675 l 608 728 l 651 717 l 567 281 m 254 74 q 353 120 292 74 q 446 214 415 167 q 521 596 447 214 q 476 619 503 610 q 428 628 450 628 q 283 567 342 628 q 194 410 224 507 q 164 200 164 313 q 188 103 164 132 q 254 74 211 74 m 578 767 l 463 886 l 297 767 l 269 793 l 435 985 l 518 985 l 614 793 l 578 767 m 583 943 q 597 972 585 963 q 631 990 610 982 q 663 1009 653 1000 q 674 1036 674 1018 q 632 1067 674 1067 l 604 1065 l 585 1021 l 543 1021 l 549 1094 q 644 1103 603 1103 q 722 1087 693 1103 q 750 1040 750 1071 q 704 976 750 999 q 676 965 693 972 q 648 951 658 958 q 635 929 638 943 l 582 929 l 583 943 z "},"ẫ":{"ha":713,"x_min":47,"x_max":704,"o":"m 47 0 m 567 281 q 545 138 551 200 q 538 69 539 75 l 647 69 l 647 28 q 552 -3 585 6 q 493 -11 519 -11 q 429 46 429 -11 q 434 91 431 64 q 439 131 438 118 q 327 29 394 69 q 208 -11 260 -11 q 47 197 47 -11 q 96 464 47 351 q 233 635 144 576 q 443 694 322 694 q 529 685 481 694 q 578 674 578 675 l 608 728 l 651 717 l 567 281 m 254 74 q 353 120 292 74 q 446 214 415 167 q 521 596 447 214 q 476 619 503 610 q 428 628 450 628 q 283 567 342 628 q 194 410 224 507 q 164 200 164 313 q 188 103 164 132 q 254 74 211 74 m 588 739 l 457 857 l 265 739 l 238 765 l 431 953 l 514 953 l 624 765 l 588 739 m 704 1097 q 654 999 678 1033 q 600 965 631 965 q 493 993 576 965 q 389 1021 413 1021 q 361 1010 375 1021 q 338 987 347 999 q 326 971 329 975 l 285 988 q 335 1086 311 1051 q 390 1121 358 1121 q 494 1093 414 1121 q 555 1074 525 1082 q 601 1065 585 1065 q 628 1076 615 1065 q 651 1099 642 1088 q 661 1114 660 1110 l 704 1097 z "},"ȁ":{"ha":713,"x_min":47,"x_max":651,"o":"m 47 0 m 567 281 q 545 138 551 200 q 538 69 539 75 l 647 69 l 647 28 q 552 -3 585 6 q 493 -11 519 -11 q 429 46 429 -11 q 434 91 431 64 q 439 131 438 118 q 327 29 394 69 q 208 -11 260 -11 q 47 197 47 -11 q 96 464 47 351 q 233 635 144 576 q 443 694 322 694 q 529 685 481 694 q 578 674 578 675 l 608 728 l 651 717 l 567 281 m 254 74 q 353 120 292 74 q 446 214 415 167 q 521 596 447 214 q 476 619 503 610 q 428 628 450 628 q 283 567 342 628 q 194 410 224 507 q 164 200 164 313 q 188 103 164 132 q 254 74 211 74 m 336 758 l 175 971 l 175 994 l 279 994 l 361 774 l 336 758 m 560 758 l 399 971 l 399 994 l 503 994 l 585 774 l 560 758 z "},"ä":{"ha":713,"x_min":47,"x_max":675,"o":"m 404 886 q 381 833 404 856 q 325 810 357 810 q 269 833 293 810 q 246 886 246 856 q 269 943 246 919 q 325 967 293 967 q 381 943 357 967 q 404 886 404 919 m 675 886 q 651 833 675 856 q 594 810 626 810 q 539 833 563 810 q 515 886 515 856 q 539 943 515 919 q 594 967 563 967 q 651 943 626 967 q 675 886 675 919 m 567 281 q 545 138 551 200 q 538 69 539 75 l 647 69 l 647 28 q 552 -3 585 6 q 493 -11 519 -11 q 429 46 429 -11 q 434 91 431 64 q 439 131 438 118 q 327 29 394 69 q 208 -11 260 -11 q 47 197 47 -11 q 96 464 47 351 q 233 635 144 576 q 443 694 322 694 q 529 685 481 694 q 578 674 578 675 l 608 728 l 651 717 l 567 281 m 254 74 q 353 120 292 74 q 446 214 415 167 q 521 596 447 214 q 476 619 503 610 q 428 628 450 628 q 283 567 342 628 q 194 410 224 507 q 164 200 164 313 q 188 103 164 132 q 254 74 211 74 z "},"ạ":{"ha":713,"x_min":47,"x_max":651,"o":"m 47 0 m 567 281 q 545 138 551 200 q 538 69 539 75 l 647 69 l 647 28 q 552 -3 585 6 q 493 -11 519 -11 q 429 46 429 -11 q 434 91 431 64 q 439 131 438 118 q 327 29 394 69 q 208 -11 260 -11 q 47 197 47 -11 q 96 464 47 351 q 233 635 144 576 q 443 694 322 694 q 529 685 481 694 q 578 674 578 675 l 608 728 l 651 717 l 567 281 m 254 74 q 353 120 292 74 q 446 214 415 167 q 521 596 447 214 q 476 619 503 610 q 428 628 450 628 q 283 567 342 628 q 194 410 224 507 q 164 200 164 313 q 188 103 164 132 q 254 74 211 74 m 264 -57 q 322 -82 297 -57 q 347 -140 347 -107 q 322 -197 347 -174 q 264 -219 297 -219 q 206 -197 231 -219 q 181 -140 181 -174 q 206 -81 181 -106 q 264 -57 231 -57 z "},"à":{"ha":713,"x_min":47,"x_max":651,"o":"m 565 775 l 268 918 l 268 943 l 374 982 l 588 801 l 565 775 m 567 281 q 545 138 551 200 q 538 69 539 75 l 647 69 l 647 28 q 552 -3 585 6 q 493 -11 519 -11 q 429 46 429 -11 q 434 91 431 64 q 439 131 438 118 q 327 29 394 69 q 208 -11 260 -11 q 47 197 47 -11 q 96 464 47 351 q 233 635 144 576 q 443 694 322 694 q 529 685 481 694 q 578 674 578 675 l 608 728 l 651 717 l 567 281 m 254 74 q 353 120 292 74 q 446 214 415 167 q 521 596 447 214 q 476 619 503 610 q 428 628 450 628 q 283 567 342 628 q 194 410 224 507 q 164 200 164 313 q 188 103 164 132 q 254 74 211 74 z "},"ả":{"ha":713,"x_min":47,"x_max":651,"o":"m 47 0 m 567 281 q 545 138 551 200 q 538 69 539 75 l 647 69 l 647 28 q 552 -3 585 6 q 493 -11 519 -11 q 429 46 429 -11 q 434 91 431 64 q 439 131 438 118 q 327 29 394 69 q 208 -11 260 -11 q 47 197 47 -11 q 96 464 47 351 q 233 635 144 576 q 443 694 322 694 q 529 685 481 694 q 578 674 578 675 l 608 728 l 651 717 l 567 281 m 254 74 q 353 120 292 74 q 446 214 415 167 q 521 596 447 214 q 476 619 503 610 q 428 628 450 628 q 283 567 342 628 q 194 410 224 507 q 164 200 164 313 q 188 103 164 132 q 254 74 211 74 m 429 789 q 443 818 431 808 q 476 836 456 828 q 509 855 499 846 q 519 882 519 864 q 478 913 519 913 l 450 911 l 431 867 l 389 867 l 394 940 q 490 949 449 949 q 567 933 539 949 q 596 886 596 917 q 550 822 596 844 q 522 811 539 818 q 494 797 504 804 q 481 775 483 789 l 428 775 l 429 789 z "},"ȃ":{"ha":713,"x_min":47,"x_max":651,"o":"m 47 0 m 567 281 q 545 138 551 200 q 538 69 539 75 l 647 69 l 647 28 q 552 -3 585 6 q 493 -11 519 -11 q 429 46 429 -11 q 434 91 431 64 q 439 131 438 118 q 327 29 394 69 q 208 -11 260 -11 q 47 197 47 -11 q 96 464 47 351 q 233 635 144 576 q 443 694 322 694 q 529 685 481 694 q 578 674 578 675 l 608 728 l 651 717 l 567 281 m 254 74 q 353 120 292 74 q 446 214 415 167 q 521 596 447 214 q 476 619 503 610 q 428 628 450 628 q 283 567 342 628 q 194 410 224 507 q 164 200 164 313 q 188 103 164 132 q 254 74 211 74 m 479 979 q 619 858 619 979 q 613 818 619 850 l 565 818 q 569 840 569 829 q 546 888 567 871 q 469 904 525 904 q 333 818 350 904 l 288 818 q 479 979 321 979 z "},"ā":{"ha":713,"x_min":47,"x_max":651,"o":"m 288 876 l 589 876 l 578 804 l 276 804 l 288 876 m 567 281 q 545 138 551 200 q 538 69 539 75 l 647 69 l 647 28 q 552 -3 585 6 q 493 -11 519 -11 q 429 46 429 -11 q 434 91 431 64 q 439 131 438 118 q 327 29 394 69 q 208 -11 260 -11 q 47 197 47 -11 q 96 464 47 351 q 233 635 144 576 q 443 694 322 694 q 529 685 481 694 q 578 674 578 675 l 608 728 l 651 717 l 567 281 m 254 74 q 353 120 292 74 q 446 214 415 167 q 521 596 447 214 q 476 619 503 610 q 428 628 450 628 q 283 567 342 628 q 194 410 224 507 q 164 200 164 313 q 188 103 164 132 q 254 74 211 74 z "},"ą":{"ha":713,"x_min":47,"x_max":651,"o":"m 511 -328 q 424 -300 453 -328 q 396 -229 396 -272 q 433 -119 396 -176 q 544 -4 471 -62 q 493 -11 513 -11 q 429 46 429 -11 q 434 91 431 64 q 439 131 438 118 q 327 29 394 69 q 208 -11 260 -11 q 47 197 47 -11 q 96 464 47 351 q 233 635 144 576 q 443 694 322 694 q 529 685 481 694 q 578 674 578 675 l 608 728 l 651 717 l 567 281 q 545 138 551 200 q 538 69 539 75 l 647 69 l 647 28 q 539 -73 586 -3 q 492 -201 492 -143 q 509 -250 492 -233 q 558 -267 526 -267 q 632 -236 597 -267 l 651 -258 q 632 -279 651 -261 q 581 -312 613 -297 q 511 -328 550 -328 m 254 74 q 353 120 292 74 q 446 214 415 167 q 521 596 447 214 q 476 619 503 610 q 428 628 450 628 q 283 567 342 628 q 194 410 224 507 q 164 200 164 313 q 188 103 164 132 q 254 74 211 74 z "},"å":{"ha":713,"x_min":47,"x_max":651,"o":"m 426 744 q 338 775 368 744 q 308 856 308 806 q 352 975 308 926 q 471 1024 396 1024 q 558 993 528 1024 q 588 911 588 963 q 543 793 588 842 q 426 744 499 744 m 435 793 q 494 828 476 793 q 513 917 513 863 q 463 975 513 975 q 402 940 421 975 q 383 851 383 906 q 394 808 383 824 q 435 793 406 793 m 208 -11 q 47 197 47 -11 q 96 464 47 351 q 233 635 144 576 q 443 694 322 694 q 529 685 481 694 q 578 674 578 675 l 608 728 l 651 717 l 567 281 q 545 138 551 200 q 538 69 539 75 l 647 69 l 647 28 q 552 -3 585 6 q 493 -11 519 -11 q 429 46 429 -11 q 434 91 431 64 q 439 131 438 118 q 327 29 394 69 q 208 -11 260 -11 m 254 74 q 353 120 292 74 q 446 214 415 167 q 521 596 447 214 q 476 619 503 610 q 428 628 450 628 q 283 567 342 628 q 194 410 224 507 q 164 200 164 313 q 188 103 164 132 q 254 74 211 74 z "},"ǻ":{"ha":713,"x_min":47,"x_max":725,"o":"m 47 0 m 567 281 q 545 138 551 200 q 538 69 539 75 l 647 69 l 647 28 q 552 -3 585 6 q 493 -11 519 -11 q 429 46 429 -11 q 434 91 431 64 q 439 131 438 118 q 327 29 394 69 q 208 -11 260 -11 q 47 197 47 -11 q 96 464 47 351 q 233 635 144 576 q 443 694 322 694 q 529 685 481 694 q 578 674 578 675 l 608 728 l 651 717 l 567 281 m 254 74 q 353 120 292 74 q 446 214 415 167 q 521 596 447 214 q 476 619 503 610 q 428 628 450 628 q 283 567 342 628 q 194 410 224 507 q 164 200 164 313 q 188 103 164 132 q 254 74 211 74 m 433 724 q 345 751 375 724 q 315 821 315 778 q 359 931 315 886 q 478 975 403 975 q 565 948 535 975 q 594 876 594 921 q 550 768 594 813 q 433 724 506 724 m 442 772 q 501 801 483 772 q 519 872 519 831 q 469 926 519 926 q 409 897 428 926 q 390 824 390 867 q 442 772 390 772 m 428 990 l 406 1017 l 619 1197 l 725 1158 l 725 1133 l 428 990 z "},"ã":{"ha":713,"x_min":47,"x_max":656,"o":"m 656 940 q 607 844 629 876 q 554 811 585 811 q 454 839 529 811 q 357 867 379 867 q 329 856 343 867 q 306 833 315 844 q 294 817 297 821 l 253 833 q 302 931 279 899 q 356 964 325 964 q 398 956 371 964 q 453 936 425 947 q 508 917 481 925 q 553 908 536 908 q 580 919 567 908 q 602 942 593 931 q 613 957 611 953 l 656 940 m 567 281 q 545 138 551 200 q 538 69 539 75 l 647 69 l 647 28 q 552 -3 585 6 q 493 -11 519 -11 q 429 46 429 -11 q 434 91 431 64 q 439 131 438 118 q 327 29 394 69 q 208 -11 260 -11 q 47 197 47 -11 q 96 464 47 351 q 233 635 144 576 q 443 694 322 694 q 529 685 481 694 q 578 674 578 675 l 608 728 l 651 717 l 567 281 m 254 74 q 353 120 292 74 q 446 214 415 167 q 521 596 447 214 q 476 619 503 610 q 428 628 450 628 q 283 567 342 628 q 194 410 224 507 q 164 200 164 313 q 188 103 164 132 q 254 74 211 74 z "},"æ":{"ha":978,"x_min":47,"x_max":992,"o":"m 683 -12 q 540 33 600 -12 q 464 167 479 78 q 331 31 399 72 q 207 -11 263 -11 q 47 197 47 -11 q 96 467 47 353 q 233 641 144 581 q 443 701 322 701 q 529 692 481 701 q 578 681 578 682 l 608 728 l 651 717 l 636 640 q 846 701 724 701 q 950 667 908 701 q 992 567 992 632 q 887 395 992 457 q 589 333 782 333 q 576 219 576 267 q 619 93 576 128 q 753 58 661 58 q 860 83 788 58 l 869 36 q 683 -12 775 -12 m 254 74 q 353 120 292 74 q 444 214 414 167 q 454 260 447 225 q 471 350 461 296 l 521 603 q 483 626 504 618 q 428 635 461 635 q 281 573 340 635 q 192 412 221 511 q 164 200 164 313 q 188 103 164 132 q 254 74 211 74 m 600 379 q 810 425 733 379 q 886 556 886 471 q 868 613 886 590 q 817 635 850 635 q 681 569 736 635 q 600 379 625 503 z "},"ǽ":{"ha":978,"x_min":47,"x_max":992,"o":"m 47 0 m 683 -12 q 540 33 600 -12 q 464 167 479 78 q 331 31 399 72 q 207 -11 263 -11 q 47 197 47 -11 q 96 467 47 353 q 233 641 144 581 q 443 701 322 701 q 529 692 481 701 q 578 681 578 682 l 608 728 l 651 717 l 636 640 q 846 701 724 701 q 950 667 908 701 q 992 567 992 632 q 887 395 992 457 q 589 333 782 333 q 576 219 576 267 q 619 93 576 128 q 753 58 661 58 q 860 83 788 58 l 869 36 q 683 -12 775 -12 m 254 74 q 353 120 292 74 q 444 214 414 167 q 454 260 447 225 q 471 350 461 296 l 521 603 q 483 626 504 618 q 428 635 461 635 q 281 573 340 635 q 192 412 221 511 q 164 200 164 313 q 188 103 164 132 q 254 74 211 74 m 600 379 q 810 425 733 379 q 886 556 886 471 q 868 613 886 590 q 817 635 850 635 q 681 569 736 635 q 600 379 625 503 m 463 775 l 440 801 l 654 982 l 760 943 l 760 918 l 463 775 z "},"b":{"ha":722,"x_min":63,"x_max":676,"o":"m 286 -11 q 63 38 160 -11 l 236 917 l 132 931 l 125 961 q 242 996 183 982 q 331 1010 300 1010 q 357 981 357 1010 q 310 722 357 958 q 279 560 278 561 q 399 660 322 619 q 531 701 476 701 q 638 658 599 701 q 676 511 676 615 q 640 266 676 385 q 515 68 603 147 q 286 -11 428 -11 m 300 51 q 448 117 390 51 q 531 282 506 182 q 557 490 557 382 q 533 588 557 558 q 467 617 510 617 q 362 569 429 617 q 265 476 294 522 q 189 92 263 476 q 235 63 201 74 q 300 51 268 51 z "},"c":{"ha":543,"x_min":46,"x_max":564,"o":"m 471 629 q 414 638 447 638 q 281 576 336 638 q 197 419 225 514 q 168 229 168 325 q 196 95 168 135 q 294 56 224 56 q 425 82 350 56 l 440 33 q 344 -1 396 11 q 244 -12 292 -12 q 99 42 153 -12 q 46 206 46 96 q 87 449 46 336 q 210 632 128 563 q 413 701 293 701 q 564 669 501 701 l 531 511 l 485 511 l 471 629 z "},"ć":{"ha":549,"x_min":43,"x_max":590,"o":"m 293 775 l 271 801 l 485 982 l 590 943 l 590 918 l 293 775 m 468 629 q 411 638 444 638 q 278 576 333 638 q 194 419 222 514 q 165 229 165 325 q 193 95 165 135 q 292 56 221 56 q 422 82 347 56 l 438 33 q 341 -1 393 11 q 242 -12 289 -12 q 97 42 150 -12 q 43 206 43 96 q 84 449 43 336 q 208 632 125 563 q 410 701 290 701 q 561 669 499 701 l 528 511 l 482 511 l 468 629 z "},"č":{"ha":549,"x_min":43,"x_max":604,"o":"m 282 993 l 410 865 l 576 994 l 604 968 l 438 767 l 354 767 l 244 968 l 282 993 m 468 629 q 411 638 444 638 q 278 576 333 638 q 194 419 222 514 q 165 229 165 325 q 193 95 165 135 q 292 56 221 56 q 422 82 347 56 l 438 33 q 341 -1 393 11 q 242 -12 289 -12 q 97 42 150 -12 q 43 206 43 96 q 84 449 43 336 q 208 632 125 563 q 410 701 290 701 q 561 669 499 701 l 528 511 l 482 511 l 468 629 z "},"ç":{"ha":549,"x_min":43,"x_max":561,"o":"m 468 629 q 411 638 444 638 q 278 576 333 638 q 194 419 222 514 q 165 229 165 325 q 193 95 165 135 q 292 56 221 56 q 422 82 347 56 l 438 33 q 250 -12 353 -10 l 224 -61 q 319 -84 288 -61 q 351 -143 351 -107 q 322 -223 351 -186 q 243 -282 292 -260 q 142 -304 194 -304 q 65 -294 96 -304 l 85 -257 q 138 -265 107 -265 q 225 -235 189 -265 q 261 -164 261 -206 q 240 -121 261 -137 q 167 -104 218 -104 l 165 -92 l 208 -10 q 87 52 131 -1 q 43 206 43 106 q 84 449 43 336 q 208 632 125 563 q 410 701 290 701 q 561 669 499 701 l 528 511 l 482 511 l 468 629 z "},"ĉ":{"ha":543,"x_min":46,"x_max":571,"o":"m 46 0 m 471 629 q 414 638 447 638 q 281 576 336 638 q 197 419 225 514 q 168 229 168 325 q 196 95 168 135 q 294 56 224 56 q 425 82 350 56 l 440 33 q 344 -1 396 11 q 244 -12 292 -12 q 99 42 153 -12 q 46 206 46 96 q 87 449 46 336 q 210 632 128 563 q 413 701 293 701 q 564 669 501 701 l 531 511 l 485 511 l 471 629 m 535 767 l 419 886 l 254 767 l 226 793 l 392 985 l 475 985 l 571 793 l 535 767 z "},"ċ":{"ha":543,"x_min":46,"x_max":564,"o":"m 46 0 m 471 629 q 414 638 447 638 q 281 576 336 638 q 197 419 225 514 q 168 229 168 325 q 196 95 168 135 q 294 56 224 56 q 425 82 350 56 l 440 33 q 344 -1 396 11 q 244 -12 292 -12 q 99 42 153 -12 q 46 206 46 96 q 87 449 46 336 q 210 632 128 563 q 413 701 293 701 q 564 669 501 701 l 531 511 l 485 511 l 471 629 m 419 806 q 361 828 386 806 q 336 885 336 851 q 361 944 336 919 q 419 968 386 968 q 478 943 453 968 q 503 885 503 918 q 478 828 503 851 q 419 806 453 806 z "},"d":{"ha":711,"x_min":47,"x_max":711,"o":"m 193 -11 q 86 33 125 -11 q 47 181 47 76 q 99 462 47 344 q 241 640 151 579 q 439 701 331 701 q 546 689 493 701 l 592 917 l 486 929 l 479 961 q 599 996 540 982 q 686 1010 657 1010 q 704 1003 697 1010 q 711 985 711 996 q 615 453 711 975 l 583 279 q 574 231 579 250 q 551 68 556 129 l 663 68 l 663 28 q 567 -2 600 7 q 508 -11 533 -11 q 460 3 475 -11 q 446 46 446 18 q 450 90 447 63 q 454 129 453 117 q 376 58 425 90 q 278 7 328 25 q 193 -11 228 -11 m 257 74 q 363 121 296 74 q 460 214 431 168 q 513 482 460 214 q 535 601 519 525 q 490 628 519 618 q 425 638 460 638 q 282 572 340 638 q 195 405 224 506 q 167 200 167 304 q 190 103 167 132 q 257 74 213 74 z "},"ð":{"ha":690,"x_min":46,"x_max":644,"o":"m 254 -12 q 97 40 149 -12 q 46 199 46 93 q 96 468 46 354 q 234 642 146 582 q 435 701 322 701 q 497 696 458 701 q 444 818 475 763 l 315 736 l 285 788 l 414 869 q 314 1001 376 928 l 350 1035 q 474 907 424 968 l 597 985 l 628 936 l 508 860 q 607 679 571 771 q 644 503 643 588 l 644 469 q 639 403 642 428 q 573 180 625 274 q 439 37 521 86 q 254 -12 357 -12 m 281 56 q 419 124 364 56 q 500 294 475 193 q 525 496 525 394 q 499 597 525 563 q 411 632 474 632 q 272 564 326 632 q 191 394 217 496 q 165 192 165 293 q 192 91 165 126 q 281 56 218 56 z "},"ď":{"ha":783,"x_min":47,"x_max":885,"o":"m 193 -11 q 86 33 125 -11 q 47 181 47 76 q 99 462 47 344 q 241 640 151 579 q 439 701 331 701 q 546 689 493 701 l 592 917 l 486 929 l 479 961 q 599 996 540 982 q 686 1010 657 1010 q 704 1003 697 1010 q 711 985 711 996 q 615 453 711 975 l 583 279 q 574 231 579 250 q 551 68 556 129 l 663 68 l 663 28 q 567 -2 600 7 q 508 -11 533 -11 q 460 3 475 -11 q 446 46 446 18 q 450 90 447 63 q 454 129 453 117 q 376 58 425 90 q 278 7 328 25 q 193 -11 228 -11 m 801 731 l 779 1008 l 818 1008 l 885 989 l 833 731 l 801 731 m 257 74 q 363 121 296 74 q 460 214 431 168 q 513 482 460 214 q 535 601 519 525 q 490 628 519 618 q 425 638 460 638 q 282 572 340 638 q 195 405 224 506 q 167 200 167 304 q 190 103 167 132 q 257 74 213 74 z "},"đ":{"ha":711,"x_min":47,"x_max":771,"o":"m 193 -11 q 86 33 125 -11 q 47 181 47 76 q 99 462 47 344 q 241 640 151 579 q 439 701 331 701 q 546 689 493 701 l 569 811 l 364 811 l 364 875 l 583 875 l 594 931 l 489 943 l 482 975 q 594 1001 539 993 q 686 1010 650 1010 q 704 1003 697 1010 q 711 985 711 996 q 692 875 711 976 l 771 875 l 771 811 l 679 811 l 583 279 q 574 231 579 250 q 551 68 556 129 l 663 68 l 663 28 q 567 -2 600 7 q 508 -11 533 -11 q 460 3 475 -11 q 446 46 446 18 q 450 90 447 63 q 454 129 453 117 q 376 58 425 90 q 278 7 328 25 q 193 -11 228 -11 m 257 74 q 363 121 296 74 q 460 214 431 168 q 513 482 460 214 q 535 601 519 525 q 490 628 519 618 q 425 638 460 638 q 282 572 340 638 q 195 405 224 506 q 167 200 167 304 q 190 103 167 132 q 257 74 213 74 z "},"ḍ":{"ha":711,"x_min":47,"x_max":711,"o":"m 47 0 m 193 -11 q 86 33 125 -11 q 47 181 47 76 q 99 462 47 344 q 241 640 151 579 q 439 701 331 701 q 546 689 493 701 l 592 917 l 486 929 l 479 961 q 599 996 540 982 q 686 1010 657 1010 q 704 1003 697 1010 q 711 985 711 996 q 615 453 711 975 l 583 279 q 574 231 579 250 q 551 68 556 129 l 663 68 l 663 28 q 567 -2 600 7 q 508 -11 533 -11 q 460 3 475 -11 q 446 46 446 18 q 450 90 447 63 q 454 129 453 117 q 376 58 425 90 q 278 7 328 25 q 193 -11 228 -11 m 257 74 q 363 121 296 74 q 460 214 431 168 q 513 482 460 214 q 535 601 519 525 q 490 628 519 618 q 425 638 460 638 q 282 572 340 638 q 195 405 224 506 q 167 200 167 304 q 190 103 167 132 q 257 74 213 74 m 263 -57 q 321 -82 296 -57 q 346 -140 346 -107 q 321 -197 346 -174 q 263 -219 296 -219 q 204 -197 229 -219 q 179 -140 179 -174 q 204 -81 179 -106 q 263 -57 229 -57 z "},"ǳ":{"ha":1256,"x_min":47,"x_max":1288,"o":"m 47 0 m 193 -11 q 86 33 125 -11 q 47 181 47 76 q 99 462 47 344 q 241 640 151 579 q 439 701 331 701 q 546 689 493 701 l 592 917 l 486 929 l 479 961 q 599 996 540 982 q 686 1010 657 1010 q 704 1003 697 1010 q 711 985 711 996 q 615 453 711 975 l 583 279 q 574 231 579 250 q 551 68 556 129 l 663 68 l 663 28 q 567 -2 600 7 q 508 -11 533 -11 q 460 3 475 -11 q 446 46 446 18 q 450 90 447 63 q 454 129 453 117 q 376 58 425 90 q 278 7 328 25 q 193 -11 228 -11 m 257 74 q 363 121 296 74 q 460 214 431 168 q 513 482 460 214 q 535 601 519 525 q 490 628 519 618 q 425 638 460 638 q 282 572 340 638 q 195 405 224 506 q 167 200 167 304 q 190 103 167 132 q 257 74 213 74 m 1074 -56 q 1011 -42 1043 -56 q 936 -3 979 -28 q 864 35 894 22 q 804 49 833 49 q 767 38 785 49 q 738 15 749 26 q 725 -1 728 3 l 688 21 l 1131 583 l 810 583 l 797 685 l 1178 685 l 1260 707 l 1288 669 l 853 125 q 937 112 900 125 q 1017 75 974 99 q 1087 43 1061 53 q 1146 33 1113 33 q 1210 46 1183 33 l 1221 1 q 1144 -41 1178 -26 q 1074 -56 1111 -56 z "},"ǆ":{"ha":1256,"x_min":47,"x_max":1288,"o":"m 47 0 m 193 -11 q 86 33 125 -11 q 47 181 47 76 q 99 462 47 344 q 241 640 151 579 q 439 701 331 701 q 546 689 493 701 l 592 917 l 486 929 l 479 961 q 599 996 540 982 q 686 1010 657 1010 q 704 1003 697 1010 q 711 985 711 996 q 615 453 711 975 l 583 279 q 574 231 579 250 q 551 68 556 129 l 663 68 l 663 28 q 567 -2 600 7 q 508 -11 533 -11 q 460 3 475 -11 q 446 46 446 18 q 450 90 447 63 q 454 129 453 117 q 376 58 425 90 q 278 7 328 25 q 193 -11 228 -11 m 257 74 q 363 121 296 74 q 460 214 431 168 q 513 482 460 214 q 535 601 519 525 q 490 628 519 618 q 425 638 460 638 q 282 572 340 638 q 195 405 224 506 q 167 200 167 304 q 190 103 167 132 q 257 74 213 74 m 1074 -56 q 1011 -42 1043 -56 q 936 -3 979 -28 q 864 35 894 22 q 804 49 833 49 q 767 38 785 49 q 738 15 749 26 q 725 -1 728 3 l 688 21 l 1131 583 l 810 583 l 797 685 l 1178 685 l 1260 707 l 1288 669 l 853 125 q 937 112 900 125 q 1017 75 974 99 q 1087 43 1061 53 q 1146 33 1113 33 q 1210 46 1183 33 l 1221 1 q 1144 -41 1178 -26 q 1074 -56 1111 -56 m 958 993 l 1086 865 l 1253 994 l 1281 968 l 1114 767 l 1031 767 l 921 968 l 958 993 z "},"e":{"ha":564,"x_min":46,"x_max":576,"o":"m 431 701 q 535 666 493 701 q 576 565 576 631 q 471 394 576 457 q 172 332 365 332 q 161 221 161 276 q 177 122 161 157 q 230 73 193 88 q 336 58 267 58 q 443 83 379 58 l 453 38 q 267 -12 361 -12 q 100 42 154 -12 q 46 215 46 97 q 87 449 46 338 q 214 631 128 560 q 431 701 300 701 m 400 635 q 265 568 321 635 q 185 379 210 501 q 393 425 317 379 q 469 556 469 471 q 452 613 469 590 q 400 635 435 635 z "},"é":{"ha":585,"x_min":46,"x_max":607,"o":"m 310 775 l 288 801 l 501 982 l 607 943 l 607 918 l 310 775 m 431 701 q 535 666 493 701 q 576 565 576 631 q 471 394 576 457 q 172 332 365 332 q 161 221 161 276 q 177 122 161 157 q 230 73 193 88 q 336 58 267 58 q 443 83 379 58 l 453 38 q 267 -12 361 -12 q 100 42 154 -12 q 46 215 46 97 q 87 449 46 338 q 214 631 128 560 q 431 701 300 701 m 400 635 q 265 568 321 635 q 185 379 210 501 q 393 425 317 379 q 469 556 469 471 q 452 613 469 590 q 400 635 435 635 z "},"ĕ":{"ha":564,"x_min":46,"x_max":576,"o":"m 46 0 m 431 701 q 535 666 493 701 q 576 565 576 631 q 471 394 576 457 q 172 332 365 332 q 161 221 161 276 q 177 122 161 157 q 230 73 193 88 q 336 58 267 58 q 443 83 379 58 l 453 38 q 267 -12 361 -12 q 100 42 154 -12 q 46 215 46 97 q 87 449 46 338 q 214 631 128 560 q 431 701 300 701 m 400 635 q 265 568 321 635 q 185 379 210 501 q 393 425 317 379 q 469 556 469 471 q 452 613 469 590 q 400 635 435 635 m 375 807 q 235 928 235 807 q 242 968 235 938 l 289 968 q 285 946 285 958 q 308 899 288 915 q 385 882 329 882 q 521 968 504 882 l 567 968 q 375 807 533 807 z "},"ě":{"ha":564,"x_min":46,"x_max":603,"o":"m 281 993 l 408 865 l 575 994 l 603 968 l 436 767 l 353 767 l 243 968 l 281 993 m 431 701 q 535 666 493 701 q 576 565 576 631 q 471 394 576 457 q 172 332 365 332 q 161 221 161 276 q 177 122 161 157 q 230 73 193 88 q 336 58 267 58 q 443 83 379 58 l 453 38 q 267 -12 361 -12 q 100 42 154 -12 q 46 215 46 97 q 87 449 46 338 q 214 631 128 560 q 431 701 300 701 m 400 635 q 265 568 321 635 q 185 379 210 501 q 393 425 317 379 q 469 556 469 471 q 452 613 469 590 q 400 635 435 635 z "},"ê":{"ha":564,"x_min":46,"x_max":583,"o":"m 547 767 l 432 886 l 267 767 l 239 793 l 404 985 l 488 985 l 583 793 l 547 767 m 431 701 q 535 666 493 701 q 576 565 576 631 q 471 394 576 457 q 172 332 365 332 q 161 221 161 276 q 177 122 161 157 q 230 73 193 88 q 336 58 267 58 q 443 83 379 58 l 453 38 q 267 -12 361 -12 q 100 42 154 -12 q 46 215 46 97 q 87 449 46 338 q 214 631 128 560 q 431 701 300 701 m 400 635 q 265 568 321 635 q 185 379 210 501 q 393 425 317 379 q 469 556 469 471 q 452 613 469 590 q 400 635 435 635 z "},"ế":{"ha":564,"x_min":46,"x_max":785,"o":"m 557 842 l 526 858 l 664 1103 l 776 1103 l 785 1079 l 557 842 m 503 767 l 388 886 l 222 767 l 194 793 l 360 985 l 443 985 l 539 793 l 503 767 m 431 701 q 535 666 493 701 q 576 565 576 631 q 471 394 576 457 q 172 332 365 332 q 161 221 161 276 q 177 122 161 157 q 230 73 193 88 q 336 58 267 58 q 443 83 379 58 l 453 38 q 267 -12 361 -12 q 100 42 154 -12 q 46 215 46 97 q 87 449 46 338 q 214 631 128 560 q 431 701 300 701 m 400 635 q 265 568 321 635 q 185 379 210 501 q 393 425 317 379 q 469 556 469 471 q 452 613 469 590 q 400 635 435 635 z "},"ệ":{"ha":564,"x_min":46,"x_max":576,"o":"m 46 0 m 431 701 q 535 666 493 701 q 576 565 576 631 q 471 394 576 457 q 172 332 365 332 q 161 221 161 276 q 177 122 161 157 q 230 73 193 88 q 336 58 267 58 q 443 83 379 58 l 453 38 q 267 -12 361 -12 q 100 42 154 -12 q 46 215 46 97 q 87 449 46 338 q 214 631 128 560 q 431 701 300 701 m 400 635 q 265 568 321 635 q 185 379 210 501 q 393 425 317 379 q 469 556 469 471 q 452 613 469 590 q 400 635 435 635 m 189 -57 q 247 -82 222 -57 q 272 -140 272 -107 q 247 -197 272 -174 q 189 -219 222 -219 q 131 -197 156 -219 q 106 -140 106 -174 q 131 -81 106 -106 q 189 -57 156 -57 m 503 767 l 388 886 l 222 767 l 194 793 l 360 985 l 443 985 l 539 793 l 503 767 z "},"ề":{"ha":564,"x_min":46,"x_max":613,"o":"m 579 839 l 433 1082 l 447 1103 l 536 1103 l 613 849 l 579 839 m 503 767 l 388 886 l 222 767 l 194 793 l 360 985 l 443 985 l 539 793 l 503 767 m 431 701 q 535 666 493 701 q 576 565 576 631 q 471 394 576 457 q 172 332 365 332 q 161 221 161 276 q 177 122 161 157 q 230 73 193 88 q 336 58 267 58 q 443 83 379 58 l 453 38 q 267 -12 361 -12 q 100 42 154 -12 q 46 215 46 97 q 87 449 46 338 q 214 631 128 560 q 431 701 300 701 m 400 635 q 265 568 321 635 q 185 379 210 501 q 393 425 317 379 q 469 556 469 471 q 452 613 469 590 q 400 635 435 635 z "},"ể":{"ha":564,"x_min":46,"x_max":675,"o":"m 46 0 m 431 701 q 535 666 493 701 q 576 565 576 631 q 471 394 576 457 q 172 332 365 332 q 161 221 161 276 q 177 122 161 157 q 230 73 193 88 q 336 58 267 58 q 443 83 379 58 l 453 38 q 267 -12 361 -12 q 100 42 154 -12 q 46 215 46 97 q 87 449 46 338 q 214 631 128 560 q 431 701 300 701 m 400 635 q 265 568 321 635 q 185 379 210 501 q 393 425 317 379 q 469 556 469 471 q 452 613 469 590 q 400 635 435 635 m 503 767 l 388 886 l 222 767 l 194 793 l 360 985 l 443 985 l 539 793 l 503 767 m 508 943 q 522 972 510 963 q 556 990 535 982 q 588 1009 578 1000 q 599 1036 599 1018 q 557 1067 599 1067 l 529 1065 l 510 1021 l 468 1021 l 474 1094 q 569 1103 528 1103 q 647 1087 618 1103 q 675 1040 675 1071 q 629 976 675 999 q 601 965 618 972 q 573 951 583 958 q 560 929 563 943 l 507 929 l 508 943 z "},"ễ":{"ha":564,"x_min":46,"x_max":629,"o":"m 46 0 m 431 701 q 535 666 493 701 q 576 565 576 631 q 471 394 576 457 q 172 332 365 332 q 161 221 161 276 q 177 122 161 157 q 230 73 193 88 q 336 58 267 58 q 443 83 379 58 l 453 38 q 267 -12 361 -12 q 100 42 154 -12 q 46 215 46 97 q 87 449 46 338 q 214 631 128 560 q 431 701 300 701 m 400 635 q 265 568 321 635 q 185 379 210 501 q 393 425 317 379 q 469 556 469 471 q 452 613 469 590 q 400 635 435 635 m 513 739 l 382 857 l 190 739 l 163 765 l 356 953 l 439 953 l 549 765 l 513 739 m 629 1097 q 579 999 603 1033 q 525 965 556 965 q 418 993 501 965 q 314 1021 338 1021 q 286 1010 300 1021 q 263 987 272 999 q 251 971 254 975 l 210 988 q 260 1086 236 1051 q 315 1121 283 1121 q 419 1093 339 1121 q 480 1074 450 1082 q 526 1065 510 1065 q 553 1076 540 1065 q 576 1099 567 1088 q 586 1114 585 1110 l 629 1097 z "},"ȅ":{"ha":564,"x_min":46,"x_max":576,"o":"m 46 0 m 431 701 q 535 666 493 701 q 576 565 576 631 q 471 394 576 457 q 172 332 365 332 q 161 221 161 276 q 177 122 161 157 q 230 73 193 88 q 336 58 267 58 q 443 83 379 58 l 453 38 q 267 -12 361 -12 q 100 42 154 -12 q 46 215 46 97 q 87 449 46 338 q 214 631 128 560 q 431 701 300 701 m 400 635 q 265 568 321 635 q 185 379 210 501 q 393 425 317 379 q 469 556 469 471 q 452 613 469 590 q 400 635 435 635 m 261 758 l 100 971 l 100 994 l 204 994 l 286 774 l 261 758 m 485 758 l 324 971 l 324 994 l 428 994 l 510 774 l 485 758 z "},"ë":{"ha":564,"x_min":46,"x_max":632,"o":"m 361 886 q 338 833 361 856 q 282 810 314 810 q 226 833 250 810 q 203 886 203 856 q 226 943 203 919 q 282 967 250 967 q 338 943 314 967 q 361 886 361 919 m 632 886 q 608 833 632 856 q 551 810 583 810 q 496 833 519 810 q 472 886 472 856 q 496 943 472 919 q 551 967 519 967 q 608 943 583 967 q 632 886 632 919 m 431 701 q 535 666 493 701 q 576 565 576 631 q 471 394 576 457 q 172 332 365 332 q 161 221 161 276 q 177 122 161 157 q 230 73 193 88 q 336 58 267 58 q 443 83 379 58 l 453 38 q 267 -12 361 -12 q 100 42 154 -12 q 46 215 46 97 q 87 449 46 338 q 214 631 128 560 q 431 701 300 701 m 400 635 q 265 568 321 635 q 185 379 210 501 q 393 425 317 379 q 469 556 469 471 q 452 613 469 590 q 400 635 435 635 z "},"ė":{"ha":564,"x_min":46,"x_max":576,"o":"m 418 968 q 476 943 451 968 q 501 885 501 918 q 476 828 501 851 q 418 806 451 806 q 360 828 385 806 q 335 885 335 851 q 360 944 335 919 q 418 968 385 968 m 431 701 q 535 666 493 701 q 576 565 576 631 q 471 394 576 457 q 172 332 365 332 q 161 221 161 276 q 177 122 161 157 q 230 73 193 88 q 336 58 267 58 q 443 83 379 58 l 453 38 q 267 -12 361 -12 q 100 42 154 -12 q 46 215 46 97 q 87 449 46 338 q 214 631 128 560 q 431 701 300 701 m 400 635 q 265 568 321 635 q 185 379 210 501 q 393 425 317 379 q 469 556 469 471 q 452 613 469 590 q 400 635 435 635 z "},"ẹ":{"ha":564,"x_min":46,"x_max":576,"o":"m 46 0 m 431 701 q 535 666 493 701 q 576 565 576 631 q 471 394 576 457 q 172 332 365 332 q 161 221 161 276 q 177 122 161 157 q 230 73 193 88 q 336 58 267 58 q 443 83 379 58 l 453 38 q 267 -12 361 -12 q 100 42 154 -12 q 46 215 46 97 q 87 449 46 338 q 214 631 128 560 q 431 701 300 701 m 400 635 q 265 568 321 635 q 185 379 210 501 q 393 425 317 379 q 469 556 469 471 q 452 613 469 590 q 400 635 435 635 m 189 -57 q 247 -82 222 -57 q 272 -140 272 -107 q 247 -197 272 -174 q 189 -219 222 -219 q 131 -197 156 -219 q 106 -140 106 -174 q 131 -81 106 -106 q 189 -57 156 -57 z "},"è":{"ha":564,"x_min":46,"x_max":576,"o":"m 526 775 l 229 918 l 229 943 l 335 982 l 549 801 l 526 775 m 431 701 q 535 666 493 701 q 576 565 576 631 q 471 394 576 457 q 172 332 365 332 q 161 221 161 276 q 177 122 161 157 q 230 73 193 88 q 336 58 267 58 q 443 83 379 58 l 453 38 q 267 -12 361 -12 q 100 42 154 -12 q 46 215 46 97 q 87 449 46 338 q 214 631 128 560 q 431 701 300 701 m 400 635 q 265 568 321 635 q 185 379 210 501 q 393 425 317 379 q 469 556 469 471 q 452 613 469 590 q 400 635 435 635 z "},"ẻ":{"ha":564,"x_min":46,"x_max":576,"o":"m 46 0 m 431 701 q 535 666 493 701 q 576 565 576 631 q 471 394 576 457 q 172 332 365 332 q 161 221 161 276 q 177 122 161 157 q 230 73 193 88 q 336 58 267 58 q 443 83 379 58 l 453 38 q 267 -12 361 -12 q 100 42 154 -12 q 46 215 46 97 q 87 449 46 338 q 214 631 128 560 q 431 701 300 701 m 400 635 q 265 568 321 635 q 185 379 210 501 q 393 425 317 379 q 469 556 469 471 q 452 613 469 590 q 400 635 435 635 m 354 789 q 368 818 356 808 q 401 836 381 828 q 434 855 424 846 q 444 882 444 864 q 403 913 444 913 l 375 911 l 356 867 l 314 867 l 319 940 q 415 949 374 949 q 492 933 464 949 q 521 886 521 917 q 475 822 521 844 q 447 811 464 818 q 419 797 429 804 q 406 775 408 789 l 353 775 l 354 789 z "},"ȇ":{"ha":564,"x_min":46,"x_max":576,"o":"m 46 0 m 431 701 q 535 666 493 701 q 576 565 576 631 q 471 394 576 457 q 172 332 365 332 q 161 221 161 276 q 177 122 161 157 q 230 73 193 88 q 336 58 267 58 q 443 83 379 58 l 453 38 q 267 -12 361 -12 q 100 42 154 -12 q 46 215 46 97 q 87 449 46 338 q 214 631 128 560 q 431 701 300 701 m 400 635 q 265 568 321 635 q 185 379 210 501 q 393 425 317 379 q 469 556 469 471 q 452 613 469 590 q 400 635 435 635 m 404 979 q 544 858 544 979 q 538 818 544 850 l 490 818 q 494 840 494 829 q 471 888 492 871 q 394 904 450 904 q 258 818 275 904 l 213 818 q 404 979 246 979 z "},"ē":{"ha":564,"x_min":46,"x_max":576,"o":"m 268 876 l 569 876 l 558 804 l 257 804 l 268 876 m 431 701 q 535 666 493 701 q 576 565 576 631 q 471 394 576 457 q 172 332 365 332 q 161 221 161 276 q 177 122 161 157 q 230 73 193 88 q 336 58 267 58 q 443 83 379 58 l 453 38 q 267 -12 361 -12 q 100 42 154 -12 q 46 215 46 97 q 87 449 46 338 q 214 631 128 560 q 431 701 300 701 m 400 635 q 265 568 321 635 q 185 379 210 501 q 393 425 317 379 q 469 556 469 471 q 452 613 469 590 q 400 635 435 635 z "},"ę":{"ha":564,"x_min":46,"x_max":576,"o":"m 317 -328 q 230 -300 258 -328 q 201 -229 201 -272 q 234 -121 201 -178 q 332 -6 267 -64 q 267 -12 294 -12 q 100 42 154 -12 q 46 215 46 97 q 87 449 46 338 q 214 631 128 560 q 431 701 300 701 q 535 666 493 701 q 576 565 576 631 q 471 394 576 457 q 172 332 365 332 q 161 221 161 276 q 177 122 161 157 q 230 73 193 88 q 336 58 267 58 q 443 83 379 58 l 453 38 l 446 33 q 342 -72 386 0 q 297 -201 297 -144 q 315 -250 297 -233 q 364 -267 332 -267 q 438 -236 403 -267 l 457 -258 q 438 -279 457 -261 q 387 -312 418 -297 q 317 -328 356 -328 m 185 379 q 393 425 317 379 q 469 556 469 471 q 452 613 469 590 q 400 635 435 635 q 265 568 321 635 q 185 379 210 501 z "},"ẽ":{"ha":564,"x_min":46,"x_max":610,"o":"m 610 940 q 561 844 583 876 q 508 811 539 811 q 408 839 483 811 q 311 867 333 867 q 283 856 297 867 q 260 833 269 844 q 249 817 251 821 l 207 833 q 256 931 233 899 q 310 964 279 964 q 352 956 325 964 q 407 936 379 947 q 463 917 435 925 q 507 908 490 908 q 534 919 521 908 q 556 942 547 931 q 567 957 565 953 l 610 940 m 431 701 q 535 666 493 701 q 576 565 576 631 q 471 394 576 457 q 172 332 365 332 q 161 221 161 276 q 177 122 161 157 q 230 73 193 88 q 336 58 267 58 q 443 83 379 58 l 453 38 q 267 -12 361 -12 q 100 42 154 -12 q 46 215 46 97 q 87 449 46 338 q 214 631 128 560 q 431 701 300 701 m 400 635 q 265 568 321 635 q 185 379 210 501 q 393 425 317 379 q 469 556 469 471 q 452 613 469 590 q 400 635 435 635 z "},"ə":{"ha":564,"x_min":-12,"x_max":518,"o":"m 133 -17 q 29 19 71 -17 q -12 119 -12 54 q 93 290 -12 228 q 392 353 199 353 q 403 464 403 408 q 387 563 403 528 q 334 612 371 597 q 228 626 297 626 q 121 601 185 626 l 111 647 q 297 697 203 697 q 464 642 410 697 q 518 469 518 588 q 477 236 518 347 q 350 54 436 125 q 133 -17 264 -17 m 164 50 q 299 117 243 50 q 379 306 354 183 q 171 260 247 306 q 94 129 94 214 q 112 72 94 94 q 164 50 129 50 z "},"f":{"ha":418,"x_min":-189,"x_max":625,"o":"m -29 -232 q -99 -223 -64 -232 q -158 -203 -135 -214 q -189 -190 -182 -193 l -179 -140 q -74 -157 -125 -157 q 36 -126 -3 -157 q 92 0 75 -94 l 197 611 l 79 611 l 72 642 l 213 678 l 231 768 q 269 897 244 846 q 343 979 293 949 q 476 1010 393 1010 q 547 998 506 1010 q 625 969 588 986 l 608 906 q 500 925 554 925 q 416 910 447 925 q 365 860 385 896 q 335 758 346 825 l 322 685 l 472 685 l 472 611 l 310 611 l 199 -10 q 125 -176 179 -119 q -29 -232 71 -232 z "},"g":{"ha":701,"x_min":-14,"x_max":668,"o":"m 178 -247 q 84 -236 126 -247 q -14 -200 42 -225 l 4 -140 q 156 -168 79 -168 q 304 -142 249 -168 q 390 -56 360 -115 q 436 111 421 4 q 333 38 393 61 q 219 15 274 15 q 99 58 143 15 q 56 213 56 100 q 98 457 56 346 q 230 635 140 568 q 454 701 319 701 q 513 696 482 701 q 566 684 544 690 q 593 676 588 678 l 624 725 l 668 714 l 533 7 q 423 -178 511 -108 q 178 -247 335 -247 m 267 101 q 377 133 318 101 q 461 226 436 164 q 492 379 464 226 q 513 488 501 431 q 536 601 524 544 q 492 624 519 615 q 435 633 464 633 q 279 563 338 633 q 199 399 221 493 q 176 226 176 306 q 199 128 176 154 q 267 101 221 101 z "},"ǵ":{"ha":701,"x_min":-14,"x_max":668,"o":"m 0 0 m 178 -247 q 84 -236 126 -247 q -14 -200 42 -225 l 4 -140 q 156 -168 79 -168 q 304 -142 249 -168 q 390 -56 360 -115 q 436 111 421 4 q 333 38 393 61 q 219 15 274 15 q 99 58 143 15 q 56 213 56 100 q 98 457 56 346 q 230 635 140 568 q 454 701 319 701 q 513 696 482 701 q 566 684 544 690 q 593 676 588 678 l 624 725 l 668 714 l 533 7 q 423 -178 511 -108 q 178 -247 335 -247 m 267 101 q 377 133 318 101 q 461 226 436 164 q 492 379 464 226 q 513 488 501 431 q 536 601 524 544 q 492 624 519 615 q 435 633 464 633 q 279 563 338 633 q 199 399 221 493 q 176 226 176 306 q 199 128 176 154 q 267 101 221 101 m 325 775 l 303 801 l 517 982 l 622 943 l 622 918 l 325 775 z "},"ğ":{"ha":675,"x_min":-25,"x_max":657,"o":"m 436 807 q 296 928 296 807 q 303 968 296 938 l 350 968 q 346 946 346 958 q 369 899 349 915 q 446 882 390 882 q 582 968 565 882 l 628 968 q 436 807 594 807 m 167 -247 q 73 -236 115 -247 q -25 -200 31 -225 l -7 -140 q 144 -168 68 -168 q 293 -142 238 -168 q 379 -56 349 -115 q 425 111 410 4 q 322 38 382 61 q 208 15 263 15 q 88 58 132 15 q 44 213 44 100 q 87 457 44 346 q 219 635 129 568 q 443 701 308 701 q 502 696 471 701 q 555 684 533 690 q 582 676 576 678 l 613 725 l 657 714 l 522 7 q 412 -178 500 -108 q 167 -247 324 -247 m 256 101 q 366 133 307 101 q 450 226 425 164 q 481 379 453 226 q 501 488 490 431 q 525 601 513 544 q 481 624 508 615 q 424 633 453 633 q 268 563 326 633 q 188 399 210 493 q 165 226 165 306 q 188 128 165 154 q 256 101 210 101 z "},"ǧ":{"ha":701,"x_min":-14,"x_max":668,"o":"m 0 0 m 178 -247 q 84 -236 126 -247 q -14 -200 42 -225 l 4 -140 q 156 -168 79 -168 q 304 -142 249 -168 q 390 -56 360 -115 q 436 111 421 4 q 333 38 393 61 q 219 15 274 15 q 99 58 143 15 q 56 213 56 100 q 98 457 56 346 q 230 635 140 568 q 454 701 319 701 q 513 696 482 701 q 566 684 544 690 q 593 676 588 678 l 624 725 l 668 714 l 533 7 q 423 -178 511 -108 q 178 -247 335 -247 m 267 101 q 377 133 318 101 q 461 226 436 164 q 492 379 464 226 q 513 488 501 431 q 536 601 524 544 q 492 624 519 615 q 435 633 464 633 q 279 563 338 633 q 199 399 221 493 q 176 226 176 306 q 199 128 176 154 q 267 101 221 101 m 326 993 l 454 865 l 621 994 l 649 968 l 482 767 l 399 767 l 289 968 l 326 993 z "},"ĝ":{"ha":701,"x_min":-14,"x_max":668,"o":"m 0 0 m 178 -247 q 84 -236 126 -247 q -14 -200 42 -225 l 4 -140 q 156 -168 79 -168 q 304 -142 249 -168 q 390 -56 360 -115 q 436 111 421 4 q 333 38 393 61 q 219 15 274 15 q 99 58 143 15 q 56 213 56 100 q 98 457 56 346 q 230 635 140 568 q 454 701 319 701 q 513 696 482 701 q 566 684 544 690 q 593 676 588 678 l 624 725 l 668 714 l 533 7 q 423 -178 511 -108 q 178 -247 335 -247 m 267 101 q 377 133 318 101 q 461 226 436 164 q 492 379 464 226 q 513 488 501 431 q 536 601 524 544 q 492 624 519 615 q 435 633 464 633 q 279 563 338 633 q 199 399 221 493 q 176 226 176 306 q 199 128 176 154 q 267 101 221 101 m 572 767 l 457 886 l 292 767 l 264 793 l 429 985 l 513 985 l 608 793 l 572 767 z "},"ģ":{"ha":675,"x_min":-25,"x_max":657,"o":"m 400 772 l 379 796 l 513 1029 l 551 1018 l 504 794 l 400 772 m 167 -247 q 73 -236 115 -247 q -25 -200 31 -225 l -7 -140 q 144 -168 68 -168 q 293 -142 238 -168 q 379 -56 349 -115 q 425 111 410 4 q 322 38 382 61 q 208 15 263 15 q 88 58 132 15 q 44 213 44 100 q 87 457 44 346 q 219 635 129 568 q 443 701 308 701 q 502 696 471 701 q 555 684 533 690 q 582 676 576 678 l 613 725 l 657 714 l 522 7 q 412 -178 500 -108 q 167 -247 324 -247 m 256 101 q 366 133 307 101 q 450 226 425 164 q 481 379 453 226 q 501 488 490 431 q 525 601 513 544 q 481 624 508 615 q 424 633 453 633 q 268 563 326 633 q 188 399 210 493 q 165 226 165 306 q 188 128 165 154 q 256 101 210 101 z "},"ġ":{"ha":701,"x_min":-14,"x_max":668,"o":"m 0 0 m 178 -247 q 84 -236 126 -247 q -14 -200 42 -225 l 4 -140 q 156 -168 79 -168 q 304 -142 249 -168 q 390 -56 360 -115 q 436 111 421 4 q 333 38 393 61 q 219 15 274 15 q 99 58 143 15 q 56 213 56 100 q 98 457 56 346 q 230 635 140 568 q 454 701 319 701 q 513 696 482 701 q 566 684 544 690 q 593 676 588 678 l 624 725 l 668 714 l 533 7 q 423 -178 511 -108 q 178 -247 335 -247 m 267 101 q 377 133 318 101 q 461 226 436 164 q 492 379 464 226 q 513 488 501 431 q 536 601 524 544 q 492 624 519 615 q 435 633 464 633 q 279 563 338 633 q 199 399 221 493 q 176 226 176 306 q 199 128 176 154 q 267 101 221 101 m 457 806 q 399 828 424 806 q 374 885 374 851 q 399 944 374 919 q 457 968 424 968 q 515 943 490 968 q 540 885 540 918 q 515 828 540 851 q 457 806 490 806 z "},"h":{"ha":765,"x_min":63,"x_max":678,"o":"m 243 915 l 139 929 l 133 960 q 250 996 192 982 q 340 1010 308 1010 q 365 976 365 1010 q 293 589 365 960 l 282 533 q 436 653 346 604 q 589 701 526 701 q 650 681 628 701 q 672 615 672 660 q 618 344 672 582 q 560 68 576 151 l 678 68 l 678 26 q 535 -12 589 -12 q 471 6 494 -12 q 447 60 447 24 q 469 178 447 79 q 497 300 492 276 q 534 466 517 386 q 551 564 551 546 q 506 608 551 608 q 389 565 460 608 q 268 460 318 522 l 193 10 l 63 -12 l 243 915 z "},"ħ":{"ha":765,"x_min":63,"x_max":678,"o":"m 224 811 l 108 811 l 121 875 l 236 875 l 247 931 l 142 943 l 135 975 q 249 1001 192 993 q 342 1010 306 1010 q 360 1003 353 1010 q 367 985 367 996 q 347 875 367 976 l 528 875 l 515 811 l 336 811 l 282 533 q 436 653 346 604 q 589 701 526 701 q 650 681 628 701 q 672 615 672 660 q 618 344 672 582 q 560 68 576 151 l 678 68 l 678 26 q 535 -12 589 -12 q 471 6 494 -12 q 447 60 447 24 q 469 178 447 79 q 497 300 492 276 q 534 466 517 386 q 551 564 551 546 q 506 608 551 608 q 389 565 460 608 q 268 460 318 522 l 193 10 l 63 -12 l 224 811 z "},"ĥ":{"ha":765,"x_min":63,"x_max":678,"o":"m 63 0 m 243 915 l 139 929 l 133 960 q 250 996 192 982 q 340 1010 308 1010 q 365 976 365 1010 q 293 589 365 960 l 282 533 q 436 653 346 604 q 589 701 526 701 q 650 681 628 701 q 672 615 672 660 q 618 344 672 582 q 560 68 576 151 l 678 68 l 678 26 q 535 -12 589 -12 q 471 6 494 -12 q 447 60 447 24 q 469 178 447 79 q 497 300 492 276 q 534 466 517 386 q 551 564 551 546 q 506 608 551 608 q 389 565 460 608 q 268 460 318 522 l 193 10 l 63 -12 l 243 915 m 471 1019 l 340 1138 l 149 1019 l 121 1046 l 314 1233 l 397 1233 l 507 1046 l 471 1019 z "},"ḥ":{"ha":765,"x_min":63,"x_max":678,"o":"m 63 0 m 243 915 l 139 929 l 133 960 q 250 996 192 982 q 340 1010 308 1010 q 365 976 365 1010 q 293 589 365 960 l 282 533 q 436 653 346 604 q 589 701 526 701 q 650 681 628 701 q 672 615 672 660 q 618 344 672 582 q 560 68 576 151 l 678 68 l 678 26 q 535 -12 589 -12 q 471 6 494 -12 q 447 60 447 24 q 469 178 447 79 q 497 300 492 276 q 534 466 517 386 q 551 564 551 546 q 506 608 551 608 q 389 565 460 608 q 268 460 318 522 l 193 10 l 63 -12 l 243 915 m 290 -57 q 349 -82 324 -57 q 374 -140 374 -107 q 349 -197 374 -174 q 290 -219 324 -219 q 232 -197 257 -219 q 207 -140 207 -174 q 232 -81 207 -106 q 290 -57 257 -57 z "},"i":{"ha":401,"x_min":79,"x_max":371,"o":"m 290 968 q 347 944 322 968 q 371 888 371 921 q 347 832 371 856 q 290 808 322 808 q 233 832 257 808 q 208 888 208 856 q 233 944 208 921 q 290 968 257 968 m 314 671 q 265 429 314 664 q 192 68 214 181 l 310 68 l 310 26 q 143 -12 194 -12 q 79 46 79 -12 q 135 332 79 63 q 160 451 144 381 q 192 608 175 522 l 86 618 l 81 653 q 198 688 139 674 q 288 701 257 701 q 314 671 314 701 z "},"ı":{"ha":406,"x_min":82,"x_max":317,"o":"m 315 671 q 253 342 315 663 l 199 68 l 317 68 l 317 26 q 150 -12 201 -12 q 86 46 86 -12 q 158 429 86 76 l 193 608 l 88 618 l 82 653 q 199 688 140 674 q 289 701 258 701 q 315 671 315 701 z "},"í":{"ha":406,"x_min":82,"x_max":429,"o":"m 132 775 l 110 801 l 324 982 l 429 943 l 429 918 l 132 775 m 150 -12 q 86 46 86 -12 q 158 429 86 76 l 193 608 l 88 618 l 82 653 q 199 688 140 674 q 289 701 258 701 q 315 671 315 701 q 253 342 315 663 l 199 68 l 317 68 l 317 26 q 150 -12 201 -12 z "},"ĭ":{"ha":406,"x_min":82,"x_max":488,"o":"m 82 0 m 315 671 q 253 342 315 663 l 199 68 l 317 68 l 317 26 q 150 -12 201 -12 q 86 46 86 -12 q 158 429 86 76 l 193 608 l 88 618 l 82 653 q 199 688 140 674 q 289 701 258 701 q 315 671 315 701 m 296 807 q 156 928 156 807 q 163 968 156 938 l 210 968 q 206 946 206 958 q 229 899 208 915 q 306 882 250 882 q 442 968 425 882 l 488 968 q 296 807 454 807 z "},"ǐ":{"ha":406,"x_min":82,"x_max":500,"o":"m 82 0 m 315 671 q 253 342 315 663 l 199 68 l 317 68 l 317 26 q 150 -12 201 -12 q 86 46 86 -12 q 158 429 86 76 l 193 608 l 88 618 l 82 653 q 199 688 140 674 q 289 701 258 701 q 315 671 315 701 m 178 993 l 306 865 l 472 994 l 500 968 l 333 767 l 250 767 l 140 968 l 178 993 z "},"î":{"ha":406,"x_min":71,"x_max":386,"o":"m 99 767 l 71 793 l 222 985 l 306 985 l 386 792 l 351 767 l 250 886 l 99 767 m 150 -12 q 86 46 86 -12 q 158 429 86 76 l 193 608 l 88 618 l 82 653 q 199 688 140 674 q 289 701 258 701 q 315 671 315 701 q 253 342 315 663 l 199 68 l 317 68 l 317 26 q 150 -12 201 -12 z "},"ȉ":{"ha":406,"x_min":21,"x_max":431,"o":"m 21 0 m 315 671 q 253 342 315 663 l 199 68 l 317 68 l 317 26 q 150 -12 201 -12 q 86 46 86 -12 q 158 429 86 76 l 193 608 l 88 618 l 82 653 q 199 688 140 674 q 289 701 258 701 q 315 671 315 701 m 182 758 l 21 971 l 21 994 l 125 994 l 207 774 l 182 758 m 406 758 l 244 971 l 244 994 l 349 994 l 431 774 l 406 758 z "},"ï":{"ha":406,"x_min":54,"x_max":444,"o":"m 213 886 q 189 833 213 856 q 133 810 165 810 q 78 833 101 810 q 54 886 54 856 q 78 943 54 919 q 133 967 101 967 q 189 943 165 967 q 213 886 213 919 m 444 886 q 420 833 444 856 q 364 810 396 810 q 308 833 332 810 q 285 886 285 856 q 308 943 285 919 q 364 967 332 967 q 420 943 396 967 q 444 886 444 919 m 315 671 q 253 342 315 663 l 199 68 l 317 68 l 317 26 q 150 -12 201 -12 q 86 46 86 -12 q 158 429 86 76 l 193 608 l 88 618 l 82 653 q 199 688 140 674 q 289 701 258 701 q 315 671 315 701 z "},"ị":{"ha":401,"x_min":26,"x_max":371,"o":"m 26 0 m 290 968 q 347 944 322 968 q 371 888 371 921 q 347 832 371 856 q 290 808 322 808 q 233 832 257 808 q 208 888 208 856 q 233 944 208 921 q 290 968 257 968 m 314 671 q 265 429 314 664 q 192 68 214 181 l 310 68 l 310 26 q 143 -12 194 -12 q 79 46 79 -12 q 135 332 79 63 q 160 451 144 381 q 192 608 175 522 l 86 618 l 81 653 q 198 688 139 674 q 288 701 257 701 q 314 671 314 701 m 110 -57 q 168 -82 143 -57 q 193 -140 193 -107 q 168 -197 193 -174 q 110 -219 143 -219 q 51 -197 76 -219 q 26 -140 26 -174 q 51 -81 26 -106 q 110 -57 76 -57 z "},"ì":{"ha":406,"x_min":46,"x_max":365,"o":"m 343 775 l 46 918 l 46 943 l 151 982 l 365 801 l 343 775 m 150 -12 q 86 46 86 -12 q 158 429 86 76 l 193 608 l 88 618 l 82 653 q 199 688 140 674 q 289 701 258 701 q 315 671 315 701 q 253 342 315 663 l 199 68 l 317 68 l 317 26 q 150 -12 201 -12 z "},"ỉ":{"ha":406,"x_min":82,"x_max":442,"o":"m 82 0 m 315 671 q 253 342 315 663 l 199 68 l 317 68 l 317 26 q 150 -12 201 -12 q 86 46 86 -12 q 158 429 86 76 l 193 608 l 88 618 l 82 653 q 199 688 140 674 q 289 701 258 701 q 315 671 315 701 m 275 789 q 289 818 276 808 q 322 836 301 828 q 355 855 344 846 q 365 882 365 864 q 324 913 365 913 l 296 911 l 276 867 l 235 867 l 240 940 q 336 949 294 949 q 413 933 385 949 q 442 886 442 917 q 396 822 442 844 q 367 811 385 818 q 340 797 350 804 q 326 775 329 789 l 274 775 l 275 789 z "},"ȋ":{"ha":406,"x_min":82,"x_max":465,"o":"m 82 0 m 315 671 q 253 342 315 663 l 199 68 l 317 68 l 317 26 q 150 -12 201 -12 q 86 46 86 -12 q 158 429 86 76 l 193 608 l 88 618 l 82 653 q 199 688 140 674 q 289 701 258 701 q 315 671 315 701 m 325 979 q 465 858 465 979 q 458 818 465 850 l 411 818 q 415 840 415 829 q 392 888 413 871 q 315 904 371 904 q 179 818 196 904 l 133 818 q 325 979 167 979 z "},"ĳ":{"ha":750,"x_min":79,"x_max":747,"o":"m 79 0 m 290 968 q 347 944 322 968 q 371 888 371 921 q 347 832 371 856 q 290 808 322 808 q 233 832 257 808 q 208 888 208 856 q 233 944 208 921 q 290 968 257 968 m 314 671 q 265 429 314 664 q 192 68 214 181 l 310 68 l 310 26 q 143 -12 194 -12 q 79 46 79 -12 q 135 332 79 63 q 160 451 144 381 q 192 608 175 522 l 86 618 l 81 653 q 198 688 139 674 q 288 701 257 701 q 314 671 314 701 m 665 808 q 608 832 633 808 q 583 886 583 856 q 608 944 583 919 q 665 968 632 968 q 723 944 699 968 q 747 886 747 921 q 723 831 747 854 q 665 808 699 808 m 333 -232 q 261 -223 294 -232 q 208 -204 228 -214 q 183 -192 189 -194 l 194 -140 q 300 -156 250 -156 q 408 -122 369 -156 q 463 0 447 -87 l 568 608 l 463 618 l 457 653 q 571 687 506 672 q 663 701 636 701 q 690 669 690 701 q 645 399 679 596 q 572 -14 611 203 q 492 -174 553 -117 q 333 -232 432 -232 z "},"ī":{"ha":406,"x_min":82,"x_max":394,"o":"m 93 876 l 394 876 l 383 804 l 82 804 l 93 876 m 315 671 q 253 342 315 663 l 199 68 l 317 68 l 317 26 q 150 -12 201 -12 q 86 46 86 -12 q 158 429 86 76 l 193 608 l 88 618 l 82 653 q 199 688 140 674 q 289 701 258 701 q 315 671 315 701 z "},"į":{"ha":406,"x_min":71,"x_max":383,"o":"m 303 968 q 359 944 335 968 q 383 888 383 921 q 359 832 383 856 q 303 808 335 808 q 245 832 269 808 q 221 888 221 856 q 245 944 221 921 q 303 968 269 968 m 326 671 q 278 429 326 664 q 204 68 226 181 l 322 68 l 322 26 q 213 -76 260 -7 q 167 -201 167 -144 q 184 -250 167 -233 q 233 -267 201 -267 q 307 -236 272 -267 l 326 -258 q 307 -279 326 -261 q 256 -312 288 -297 q 186 -328 225 -328 q 99 -300 128 -328 q 71 -229 71 -272 q 221 -3 71 -118 q 156 -12 183 -12 q 92 46 92 -12 q 147 332 92 63 q 172 451 157 381 q 204 608 188 522 l 99 618 l 93 653 q 210 688 151 674 q 300 701 269 701 q 326 671 326 701 z "},"ĩ":{"ha":406,"x_min":51,"x_max":424,"o":"m 322 811 q 288 818 307 811 q 238 839 268 825 q 156 867 179 867 q 128 856 142 867 q 105 833 114 844 q 93 817 96 821 l 51 833 q 101 931 78 899 q 154 964 124 964 q 188 957 169 964 q 236 936 207 950 q 286 915 268 922 q 321 908 304 908 q 348 919 335 908 q 370 942 361 931 q 381 957 379 953 l 424 940 q 375 844 397 876 q 322 811 353 811 m 150 -12 q 86 46 86 -12 q 158 429 86 76 l 193 608 l 88 618 l 82 653 q 199 688 140 674 q 289 701 258 701 q 315 671 315 701 q 253 342 315 663 l 199 68 l 317 68 l 317 26 q 150 -12 201 -12 z "},"j":{"ha":385,"x_min":-182,"x_max":382,"o":"m 300 808 q 243 832 268 808 q 218 886 218 856 q 242 944 218 919 q 300 968 267 968 q 358 944 333 968 q 382 886 382 921 q 358 831 382 854 q 300 808 333 808 m -32 -232 q -104 -223 -71 -232 q -157 -204 -137 -214 q -182 -192 -176 -194 l -171 -140 q -65 -156 -115 -156 q 43 -122 4 -156 q 97 0 82 -87 l 203 608 l 97 618 l 92 653 q 206 687 140 672 q 297 701 271 701 q 325 669 325 701 q 280 399 314 596 q 207 -14 246 203 q 127 -174 188 -117 q -32 -232 67 -232 z "},"ȷ":{"ha":385,"x_min":-182,"x_max":325,"o":"m 325 669 q 280 399 314 596 q 207 -14 246 203 q 127 -174 188 -117 q -32 -232 67 -232 q -104 -223 -71 -232 q -157 -204 -137 -214 q -182 -192 -176 -194 l -171 -140 q -65 -156 -115 -156 q 43 -122 4 -156 q 97 0 82 -87 l 203 608 l 97 618 l 92 653 q 206 687 140 672 q 297 701 271 701 q 325 669 325 701 z "},"ĵ":{"ha":385,"x_min":-182,"x_max":450,"o":"m 0 0 m 325 669 q 280 399 314 596 q 207 -14 246 203 q 127 -174 188 -117 q -32 -232 67 -232 q -104 -223 -71 -232 q -157 -204 -137 -214 q -182 -192 -176 -194 l -171 -140 q -65 -156 -115 -156 q 43 -122 4 -156 q 97 0 82 -87 l 203 608 l 97 618 l 92 653 q 206 687 140 672 q 297 701 271 701 q 325 669 325 701 m 414 767 l 299 886 l 133 767 l 106 793 l 271 985 l 354 985 l 450 793 l 414 767 z "},"k":{"ha":693,"x_min":63,"x_max":678,"o":"m 63 -12 l 243 915 l 138 929 l 132 961 q 249 996 190 982 q 339 1010 308 1010 q 365 978 365 1010 q 321 732 365 954 q 300 624 310 674 q 283 535 290 575 q 360 608 307 568 q 475 674 413 647 q 590 701 538 701 q 654 678 631 701 q 678 610 678 654 q 613 455 678 525 q 411 346 549 385 l 524 68 l 626 68 l 626 26 q 461 -12 511 -12 q 399 67 435 -12 q 331 244 363 147 q 299 347 299 342 l 307 364 q 442 417 383 382 q 533 494 501 453 q 565 571 565 536 q 555 602 565 593 q 517 611 544 611 q 391 565 468 611 q 269 463 314 518 l 194 10 l 63 -12 z "},"ķ":{"ha":682,"x_min":65,"x_max":681,"o":"m 246 915 l 140 929 l 135 961 q 252 996 193 982 q 342 1010 311 1010 q 368 978 368 1010 q 324 732 368 954 q 303 624 313 674 q 286 535 293 575 q 363 608 310 568 q 478 674 415 647 q 593 701 540 701 q 657 678 633 701 q 681 610 681 654 q 616 455 681 525 q 414 346 551 385 l 526 68 l 629 68 l 629 26 q 464 -12 514 -12 q 401 67 438 -12 q 333 244 365 147 q 301 347 301 342 l 310 364 q 445 417 386 382 q 536 494 504 453 q 568 571 568 536 q 558 602 568 593 q 519 611 547 611 q 394 565 471 611 q 272 463 317 518 l 197 10 l 65 -12 l 246 915 m 228 -307 l 193 -297 l 242 -65 l 346 -43 l 367 -67 l 228 -307 z "},"ĸ":{"ha":710,"x_min":79,"x_max":696,"o":"m 79 -12 l 201 607 l 97 618 l 92 653 q 209 688 150 674 q 299 701 268 701 q 325 669 325 701 q 313 592 325 651 l 301 535 q 378 608 325 568 q 493 674 431 647 q 608 701 556 701 q 672 678 649 701 q 696 610 696 654 q 631 455 696 525 q 429 346 567 385 l 542 68 l 644 68 l 644 26 q 479 -12 529 -12 q 417 67 453 -12 q 349 244 381 147 q 317 347 317 342 l 325 364 q 460 417 401 382 q 551 494 519 453 q 583 571 583 536 q 573 602 583 593 q 535 611 563 611 q 409 565 486 611 q 288 463 332 518 l 211 8 l 79 -12 z "},"l":{"ha":403,"x_min":79,"x_max":364,"o":"m 146 -12 q 94 3 110 -12 q 79 49 79 18 q 149 439 79 69 l 236 913 l 129 926 l 122 957 q 242 995 179 981 q 338 1010 304 1010 q 364 979 364 1010 q 363 957 364 964 l 196 71 l 319 71 l 319 29 q 146 -12 199 -12 z "},"ĺ":{"ha":406,"x_min":82,"x_max":449,"o":"m 151 1011 l 129 1038 l 343 1218 l 449 1179 l 449 1154 l 151 1011 m 149 -12 q 97 3 113 -12 q 82 49 82 18 q 151 439 82 69 l 239 913 l 132 926 l 125 957 q 244 995 182 981 q 340 1010 307 1010 q 367 979 367 1010 q 365 957 367 964 l 199 71 l 322 71 l 322 29 q 149 -12 201 -12 z "},"ľ":{"ha":418,"x_min":82,"x_max":519,"o":"m 149 -12 q 97 3 113 -12 q 82 49 82 18 q 151 439 82 69 l 239 913 l 132 926 l 125 957 q 244 995 182 981 q 340 1010 307 1010 q 367 979 367 1010 q 365 957 367 964 l 199 71 l 322 71 l 322 29 q 149 -12 201 -12 m 436 731 l 414 1008 l 453 1008 l 519 989 l 468 731 l 436 731 z "},"ļ":{"ha":406,"x_min":49,"x_max":367,"o":"m 149 -12 q 97 3 113 -12 q 82 49 82 18 q 151 439 82 69 l 239 913 l 132 926 l 125 957 q 244 995 182 981 q 340 1010 307 1010 q 367 979 367 1010 q 365 957 367 964 l 199 71 l 322 71 l 322 29 q 149 -12 201 -12 m 83 -307 l 49 -297 l 97 -65 l 201 -43 l 222 -67 l 83 -307 z "},"ŀ":{"ha":403,"x_min":79,"x_max":522,"o":"m 79 0 m 146 -12 q 94 3 110 -12 q 79 49 79 18 q 149 439 79 69 l 236 913 l 129 926 l 122 957 q 242 995 179 981 q 338 1010 304 1010 q 364 979 364 1010 q 363 957 364 964 l 196 71 l 319 71 l 319 29 q 146 -12 199 -12 m 522 606 q 499 549 522 572 q 442 525 476 525 q 387 549 410 525 q 364 606 364 572 q 386 663 364 640 q 442 685 408 685 q 500 663 478 685 q 522 606 522 640 z "},"ǉ":{"ha":788,"x_min":79,"x_max":785,"o":"m 79 0 m 146 -12 q 94 3 110 -12 q 79 49 79 18 q 149 439 79 69 l 236 913 l 129 926 l 122 957 q 242 995 179 981 q 338 1010 304 1010 q 364 979 364 1010 q 363 957 364 964 l 196 71 l 319 71 l 319 29 q 146 -12 199 -12 m 703 808 q 646 832 671 808 q 621 886 621 856 q 645 944 621 919 q 703 968 669 968 q 760 944 736 968 q 785 886 785 921 q 760 831 785 854 q 703 808 736 808 m 371 -232 q 299 -223 332 -232 q 246 -204 265 -214 q 221 -192 226 -194 l 232 -140 q 338 -156 288 -156 q 446 -122 407 -156 q 500 0 485 -87 l 606 608 l 500 618 l 494 653 q 608 687 543 672 q 700 701 674 701 q 728 669 728 701 q 683 399 717 596 q 610 -14 649 203 q 530 -174 590 -117 q 371 -232 469 -232 z "},"ł":{"ha":406,"x_min":14,"x_max":435,"o":"m 199 71 l 322 71 l 322 29 q 149 -12 201 -12 q 97 3 113 -12 q 82 49 82 18 q 140 378 82 68 l 154 454 l 42 397 l 14 451 l 168 531 l 239 913 l 132 926 l 125 957 q 244 995 182 981 q 340 1010 307 1010 q 367 979 367 1010 q 365 957 367 964 l 297 597 l 404 651 l 435 599 l 283 521 l 199 71 z "},"m":{"ha":1093,"x_min":82,"x_max":1008,"o":"m 206 606 l 100 617 l 94 650 q 211 685 153 671 q 299 700 269 700 q 315 691 308 700 q 321 667 321 682 q 300 533 321 643 q 443 650 354 599 q 593 701 532 701 q 645 681 629 701 q 661 615 661 661 q 650 543 661 592 q 792 653 707 606 q 935 701 876 701 q 986 681 971 701 q 1001 615 1001 661 q 915 183 1001 574 l 890 68 l 1008 68 l 1008 26 q 865 -12 919 -12 q 801 6 825 -12 q 778 60 778 24 q 800 178 778 79 q 828 300 822 276 q 865 466 847 386 q 882 564 882 546 q 876 600 882 590 q 851 610 871 610 q 744 566 810 610 q 635 468 679 522 l 553 10 l 422 -12 l 488 300 q 540 564 540 549 q 535 600 540 590 q 510 610 529 610 q 399 563 467 610 q 288 460 331 515 l 214 10 l 82 -12 l 206 606 z "},"n":{"ha":785,"x_min":79,"x_max":697,"o":"m 301 535 q 455 654 365 606 q 607 703 544 703 q 692 617 692 703 q 578 67 692 568 l 697 67 l 697 26 q 554 -12 610 -12 q 490 5 514 -12 q 467 60 467 22 q 515 296 467 82 q 571 567 571 532 q 525 611 571 611 q 407 567 478 611 q 286 460 336 524 l 211 8 l 79 -12 l 201 607 l 97 618 l 92 653 q 210 688 151 674 q 299 701 268 701 q 325 668 325 701 q 317 610 325 654 q 301 535 308 565 z "},"ń":{"ha":785,"x_min":82,"x_max":700,"o":"m 390 775 l 368 801 l 582 982 l 688 943 l 688 918 l 390 775 m 304 535 q 458 654 368 606 q 610 703 547 703 q 694 617 694 703 q 581 67 694 568 l 700 67 l 700 26 q 557 -12 613 -12 q 493 5 517 -12 q 469 60 469 22 q 518 296 469 82 q 574 567 574 532 q 528 611 574 611 q 410 567 481 611 q 289 460 339 524 l 214 8 l 82 -12 l 204 607 l 100 618 l 94 653 q 213 688 154 674 q 301 701 271 701 q 328 668 328 701 q 319 610 328 654 q 304 535 311 565 z "},"ŉ":{"ha":833,"x_min":79,"x_max":697,"o":"m 79 0 m 274 731 l 251 1008 l 290 1008 l 357 989 l 306 731 l 274 731 m 301 535 q 455 654 365 606 q 607 703 544 703 q 692 617 692 703 q 578 67 692 568 l 697 67 l 697 26 q 554 -12 610 -12 q 490 5 514 -12 q 467 60 467 22 q 515 296 467 82 q 571 567 571 532 q 525 611 571 611 q 407 567 478 611 q 286 460 336 524 l 211 8 l 79 -12 l 201 607 l 97 618 l 92 653 q 210 688 151 674 q 299 701 268 701 q 325 668 325 701 q 317 610 325 654 q 301 535 308 565 z "},"ň":{"ha":785,"x_min":82,"x_max":700,"o":"m 347 993 l 475 865 l 642 994 l 669 968 l 503 767 l 419 767 l 310 968 l 347 993 m 304 535 q 458 654 368 606 q 610 703 547 703 q 694 617 694 703 q 581 67 694 568 l 700 67 l 700 26 q 557 -12 613 -12 q 493 5 517 -12 q 469 60 469 22 q 518 296 469 82 q 574 567 574 532 q 528 611 574 611 q 410 567 481 611 q 289 460 339 524 l 214 8 l 82 -12 l 204 607 l 100 618 l 94 653 q 213 688 154 674 q 301 701 271 701 q 328 668 328 701 q 319 610 328 654 q 304 535 311 565 z "},"ņ":{"ha":785,"x_min":82,"x_max":700,"o":"m 204 607 l 100 618 l 94 653 q 213 688 154 674 q 301 701 271 701 q 328 668 328 701 q 319 610 328 654 q 304 535 311 565 q 458 654 368 606 q 610 703 547 703 q 694 617 694 703 q 581 67 694 568 l 700 67 l 700 26 q 557 -12 613 -12 q 493 5 517 -12 q 469 60 469 22 q 518 296 469 82 q 574 567 574 532 q 528 611 574 611 q 410 567 481 611 q 289 460 339 524 l 214 8 l 82 -12 l 204 607 m 269 -307 l 235 -297 l 283 -65 l 388 -43 l 408 -67 l 269 -307 z "},"ṅ":{"ha":785,"x_min":79,"x_max":697,"o":"m 79 0 m 301 535 q 455 654 365 606 q 607 703 544 703 q 692 617 692 703 q 578 67 692 568 l 697 67 l 697 26 q 554 -12 610 -12 q 490 5 514 -12 q 467 60 467 22 q 515 296 467 82 q 571 567 571 532 q 525 611 571 611 q 407 567 478 611 q 286 460 336 524 l 211 8 l 79 -12 l 201 607 l 97 618 l 92 653 q 210 688 151 674 q 299 701 268 701 q 325 668 325 701 q 317 610 325 654 q 301 535 308 565 m 499 806 q 440 828 465 806 q 415 885 415 851 q 440 944 415 919 q 499 968 465 968 q 557 943 532 968 q 582 885 582 918 q 557 828 582 851 q 499 806 532 806 z "},"ŋ":{"ha":785,"x_min":79,"x_max":692,"o":"m 607 703 q 692 617 692 703 q 666 438 692 575 q 575 -14 640 300 q 492 -175 553 -118 q 338 -232 432 -232 q 251 -220 290 -232 q 186 -192 213 -208 l 197 -140 q 304 -156 253 -156 q 410 -122 372 -156 q 465 0 447 -87 l 493 138 q 554 447 538 357 q 571 567 571 538 q 525 611 571 611 q 407 567 478 611 q 286 460 336 524 l 211 8 l 79 -12 l 201 607 l 97 618 l 92 653 q 210 688 151 674 q 299 701 268 701 q 325 668 325 701 q 317 610 325 654 q 301 535 308 565 q 455 654 365 606 q 607 703 544 703 z "},"ɲ":{"ha":785,"x_min":-182,"x_max":697,"o":"m 697 67 l 697 26 q 554 -12 610 -12 q 490 5 514 -12 q 467 60 467 22 q 515 296 467 82 q 571 567 571 532 q 525 611 571 611 q 407 567 478 611 q 286 460 336 524 l 264 328 q 207 -14 235 149 q 127 -174 188 -117 q -32 -232 67 -232 q -104 -223 -71 -232 q -157 -204 -137 -214 q -182 -192 -176 -194 l -171 -140 q -65 -156 -115 -156 q 43 -122 4 -156 q 97 0 82 -87 l 203 607 l 97 618 l 92 653 q 210 688 151 674 q 299 701 268 701 q 325 668 325 701 q 317 610 325 654 q 301 535 308 565 q 455 654 365 606 q 607 703 544 703 q 692 617 692 703 q 578 67 692 568 l 697 67 z "},"ǌ":{"ha":1169,"x_min":79,"x_max":1167,"o":"m 79 0 m 301 535 q 455 654 365 606 q 607 703 544 703 q 692 617 692 703 q 578 67 692 568 l 697 67 l 697 26 q 554 -12 610 -12 q 490 5 514 -12 q 467 60 467 22 q 515 296 467 82 q 571 567 571 532 q 525 611 571 611 q 407 567 478 611 q 286 460 336 524 l 211 8 l 79 -12 l 201 607 l 97 618 l 92 653 q 210 688 151 674 q 299 701 268 701 q 325 668 325 701 q 317 610 325 654 q 301 535 308 565 m 1085 808 q 1028 832 1053 808 q 1003 886 1003 856 q 1027 944 1003 919 q 1085 968 1051 968 q 1142 944 1118 968 q 1167 886 1167 921 q 1142 831 1167 854 q 1085 808 1118 808 m 753 -232 q 681 -223 714 -232 q 628 -204 647 -214 q 603 -192 608 -194 l 614 -140 q 719 -156 669 -156 q 828 -122 789 -156 q 882 0 867 -87 l 988 608 l 882 618 l 876 653 q 990 687 925 672 q 1082 701 1056 701 q 1110 669 1110 701 q 1065 399 1099 596 q 992 -14 1031 203 q 912 -174 972 -117 q 753 -232 851 -232 z "},"ñ":{"ha":785,"x_min":82,"x_max":700,"o":"m 693 940 q 644 844 667 876 q 592 811 622 811 q 492 839 567 811 q 394 867 417 867 q 367 856 381 867 q 344 833 353 844 q 332 817 335 821 l 290 833 q 340 931 317 899 q 393 964 363 964 q 435 956 408 964 q 490 936 463 947 q 546 917 518 925 q 590 908 574 908 q 617 919 604 908 q 640 942 631 931 q 650 957 649 953 l 693 940 m 304 535 q 458 654 368 606 q 610 703 547 703 q 694 617 694 703 q 581 67 694 568 l 700 67 l 700 26 q 557 -12 613 -12 q 493 5 517 -12 q 469 60 469 22 q 518 296 469 82 q 574 567 574 532 q 528 611 574 611 q 410 567 481 611 q 289 460 339 524 l 214 8 l 82 -12 l 204 607 l 100 618 l 94 653 q 213 688 154 674 q 301 701 271 701 q 328 668 328 701 q 319 610 328 654 q 304 535 311 565 z "},"o":{"ha":690,"x_min":46,"x_max":644,"o":"m 435 701 q 644 493 644 701 q 595 223 644 338 q 457 48 546 108 q 254 -12 368 -12 q 97 40 149 -12 q 46 199 46 93 q 96 468 46 354 q 234 642 146 582 q 435 701 322 701 m 281 56 q 419 124 364 56 q 500 294 475 193 q 525 496 525 394 q 499 597 525 563 q 411 632 474 632 q 272 564 326 632 q 191 394 217 496 q 165 192 165 293 q 192 91 165 126 q 281 56 218 56 z "},"ó":{"ha":690,"x_min":46,"x_max":644,"o":"m 46 0 m 435 701 q 644 493 644 701 q 595 223 644 338 q 457 48 546 108 q 254 -12 368 -12 q 97 40 149 -12 q 46 199 46 93 q 96 468 46 354 q 234 642 146 582 q 435 701 322 701 m 281 56 q 419 124 364 56 q 500 294 475 193 q 525 496 525 394 q 499 597 525 563 q 411 632 474 632 q 272 564 326 632 q 191 394 217 496 q 165 192 165 293 q 192 91 165 126 q 281 56 218 56 m 319 775 l 297 801 l 511 982 l 617 943 l 617 918 l 319 775 z "},"ŏ":{"ha":690,"x_min":46,"x_max":644,"o":"m 46 0 m 435 701 q 644 493 644 701 q 595 223 644 338 q 457 48 546 108 q 254 -12 368 -12 q 97 40 149 -12 q 46 199 46 93 q 96 468 46 354 q 234 642 146 582 q 435 701 322 701 m 281 56 q 419 124 364 56 q 500 294 475 193 q 525 496 525 394 q 499 597 525 563 q 411 632 474 632 q 272 564 326 632 q 191 394 217 496 q 165 192 165 293 q 192 91 165 126 q 281 56 218 56 m 439 807 q 299 928 299 807 q 306 968 299 938 l 353 968 q 349 946 349 958 q 372 899 351 915 q 449 882 393 882 q 585 968 568 882 l 631 968 q 439 807 597 807 z "},"ǒ":{"ha":690,"x_min":46,"x_max":644,"o":"m 46 0 m 435 701 q 644 493 644 701 q 595 223 644 338 q 457 48 546 108 q 254 -12 368 -12 q 97 40 149 -12 q 46 199 46 93 q 96 468 46 354 q 234 642 146 582 q 435 701 322 701 m 281 56 q 419 124 364 56 q 500 294 475 193 q 525 496 525 394 q 499 597 525 563 q 411 632 474 632 q 272 564 326 632 q 191 394 217 496 q 165 192 165 293 q 192 91 165 126 q 281 56 218 56 m 321 993 l 449 865 l 615 994 l 643 968 l 476 767 l 393 767 l 283 968 l 321 993 z "},"ô":{"ha":690,"x_min":46,"x_max":644,"o":"m 585 767 l 469 886 l 304 767 l 276 793 l 442 985 l 525 985 l 621 793 l 585 767 m 435 701 q 644 493 644 701 q 595 223 644 338 q 457 48 546 108 q 254 -12 368 -12 q 97 40 149 -12 q 46 199 46 93 q 96 468 46 354 q 234 642 146 582 q 435 701 322 701 m 281 56 q 419 124 364 56 q 500 294 475 193 q 525 496 525 394 q 499 597 525 563 q 411 632 474 632 q 272 564 326 632 q 191 394 217 496 q 165 192 165 293 q 192 91 165 126 q 281 56 218 56 z "},"ố":{"ha":690,"x_min":46,"x_max":849,"o":"m 621 842 l 590 858 l 728 1103 l 840 1103 l 849 1079 l 621 842 m 567 767 l 451 886 l 286 767 l 258 793 l 424 985 l 507 985 l 603 793 l 567 767 m 435 701 q 644 493 644 701 q 595 223 644 338 q 457 48 546 108 q 254 -12 368 -12 q 97 40 149 -12 q 46 199 46 93 q 96 468 46 354 q 234 642 146 582 q 435 701 322 701 m 281 56 q 419 124 364 56 q 500 294 475 193 q 525 496 525 394 q 499 597 525 563 q 411 632 474 632 q 272 564 326 632 q 191 394 217 496 q 165 192 165 293 q 192 91 165 126 q 281 56 218 56 z "},"ộ":{"ha":690,"x_min":46,"x_max":644,"o":"m 46 0 m 435 701 q 644 493 644 701 q 595 223 644 338 q 457 48 546 108 q 254 -12 368 -12 q 97 40 149 -12 q 46 199 46 93 q 96 468 46 354 q 234 642 146 582 q 435 701 322 701 m 281 56 q 419 124 364 56 q 500 294 475 193 q 525 496 525 394 q 499 597 525 563 q 411 632 474 632 q 272 564 326 632 q 191 394 217 496 q 165 192 165 293 q 192 91 165 126 q 281 56 218 56 m 253 -57 q 311 -82 286 -57 q 336 -140 336 -107 q 311 -197 336 -174 q 253 -219 286 -219 q 194 -197 219 -219 q 169 -140 169 -174 q 194 -81 169 -106 q 253 -57 219 -57 m 567 767 l 451 886 l 286 767 l 258 793 l 424 985 l 507 985 l 603 793 l 567 767 z "},"ồ":{"ha":690,"x_min":46,"x_max":676,"o":"m 643 839 l 497 1082 l 511 1103 l 600 1103 l 676 849 l 643 839 m 567 767 l 451 886 l 286 767 l 258 793 l 424 985 l 507 985 l 603 793 l 567 767 m 435 701 q 644 493 644 701 q 595 223 644 338 q 457 48 546 108 q 254 -12 368 -12 q 97 40 149 -12 q 46 199 46 93 q 96 468 46 354 q 234 642 146 582 q 435 701 322 701 m 281 56 q 419 124 364 56 q 500 294 475 193 q 525 496 525 394 q 499 597 525 563 q 411 632 474 632 q 272 564 326 632 q 191 394 217 496 q 165 192 165 293 q 192 91 165 126 q 281 56 218 56 z "},"ổ":{"ha":690,"x_min":46,"x_max":739,"o":"m 46 0 m 435 701 q 644 493 644 701 q 595 223 644 338 q 457 48 546 108 q 254 -12 368 -12 q 97 40 149 -12 q 46 199 46 93 q 96 468 46 354 q 234 642 146 582 q 435 701 322 701 m 281 56 q 419 124 364 56 q 500 294 475 193 q 525 496 525 394 q 499 597 525 563 q 411 632 474 632 q 272 564 326 632 q 191 394 217 496 q 165 192 165 293 q 192 91 165 126 q 281 56 218 56 m 567 767 l 451 886 l 286 767 l 258 793 l 424 985 l 507 985 l 603 793 l 567 767 m 572 943 q 586 972 574 963 q 619 990 599 982 q 652 1009 642 1000 q 663 1036 663 1018 q 621 1067 663 1067 l 593 1065 l 574 1021 l 532 1021 l 538 1094 q 633 1103 592 1103 q 710 1087 682 1103 q 739 1040 739 1071 q 693 976 739 999 q 665 965 682 972 q 637 951 647 958 q 624 929 626 943 l 571 929 l 572 943 z "},"ỗ":{"ha":690,"x_min":46,"x_max":693,"o":"m 46 0 m 435 701 q 644 493 644 701 q 595 223 644 338 q 457 48 546 108 q 254 -12 368 -12 q 97 40 149 -12 q 46 199 46 93 q 96 468 46 354 q 234 642 146 582 q 435 701 322 701 m 281 56 q 419 124 364 56 q 500 294 475 193 q 525 496 525 394 q 499 597 525 563 q 411 632 474 632 q 272 564 326 632 q 191 394 217 496 q 165 192 165 293 q 192 91 165 126 q 281 56 218 56 m 576 739 l 446 857 l 254 739 l 226 765 l 419 953 l 503 953 l 613 765 l 576 739 m 693 1097 q 643 999 667 1033 q 589 965 619 965 q 482 993 565 965 q 378 1021 401 1021 q 350 1010 364 1021 q 327 987 336 999 q 315 971 318 975 l 274 988 q 324 1086 300 1051 q 379 1121 347 1121 q 483 1093 403 1121 q 544 1074 514 1082 q 590 1065 574 1065 q 617 1076 604 1065 q 640 1099 631 1088 q 650 1114 649 1110 l 693 1097 z "},"ȍ":{"ha":690,"x_min":46,"x_max":644,"o":"m 46 0 m 435 701 q 644 493 644 701 q 595 223 644 338 q 457 48 546 108 q 254 -12 368 -12 q 97 40 149 -12 q 46 199 46 93 q 96 468 46 354 q 234 642 146 582 q 435 701 322 701 m 281 56 q 419 124 364 56 q 500 294 475 193 q 525 496 525 394 q 499 597 525 563 q 411 632 474 632 q 272 564 326 632 q 191 394 217 496 q 165 192 165 293 q 192 91 165 126 q 281 56 218 56 m 325 758 l 164 971 l 164 994 l 268 994 l 350 774 l 325 758 m 549 758 l 388 971 l 388 994 l 492 994 l 574 774 l 549 758 z "},"ö":{"ha":690,"x_min":46,"x_max":685,"o":"m 414 886 q 390 833 414 856 q 335 810 367 810 q 279 833 303 810 q 256 886 256 856 q 279 943 256 919 q 335 967 303 967 q 390 943 367 967 q 414 886 414 919 m 685 886 q 660 833 685 856 q 604 810 636 810 q 549 833 572 810 q 525 886 525 856 q 549 943 525 919 q 604 967 572 967 q 660 943 636 967 q 685 886 685 919 m 435 701 q 644 493 644 701 q 595 223 644 338 q 457 48 546 108 q 254 -12 368 -12 q 97 40 149 -12 q 46 199 46 93 q 96 468 46 354 q 234 642 146 582 q 435 701 322 701 m 281 56 q 419 124 364 56 q 500 294 475 193 q 525 496 525 394 q 499 597 525 563 q 411 632 474 632 q 272 564 326 632 q 191 394 217 496 q 165 192 165 293 q 192 91 165 126 q 281 56 218 56 z "},"ọ":{"ha":690,"x_min":46,"x_max":644,"o":"m 46 0 m 435 701 q 644 493 644 701 q 595 223 644 338 q 457 48 546 108 q 254 -12 368 -12 q 97 40 149 -12 q 46 199 46 93 q 96 468 46 354 q 234 642 146 582 q 435 701 322 701 m 281 56 q 419 124 364 56 q 500 294 475 193 q 525 496 525 394 q 499 597 525 563 q 411 632 474 632 q 272 564 326 632 q 191 394 217 496 q 165 192 165 293 q 192 91 165 126 q 281 56 218 56 m 253 -57 q 311 -82 286 -57 q 336 -140 336 -107 q 311 -197 336 -174 q 253 -219 286 -219 q 194 -197 219 -219 q 169 -140 169 -174 q 194 -81 169 -106 q 253 -57 219 -57 z "},"ò":{"ha":690,"x_min":46,"x_max":644,"o":"m 561 775 l 264 918 l 264 943 l 369 982 l 583 801 l 561 775 m 254 -12 q 97 40 149 -12 q 46 199 46 93 q 96 468 46 354 q 234 642 146 582 q 435 701 322 701 q 644 493 644 701 q 595 223 644 338 q 457 48 546 108 q 254 -12 368 -12 m 281 56 q 419 124 364 56 q 500 294 475 193 q 525 496 525 394 q 499 597 525 563 q 411 632 474 632 q 272 564 326 632 q 191 394 217 496 q 165 192 165 293 q 192 91 165 126 q 281 56 218 56 z "},"ỏ":{"ha":690,"x_min":46,"x_max":644,"o":"m 46 0 m 435 701 q 644 493 644 701 q 595 223 644 338 q 457 48 546 108 q 254 -12 368 -12 q 97 40 149 -12 q 46 199 46 93 q 96 468 46 354 q 234 642 146 582 q 435 701 322 701 m 281 56 q 419 124 364 56 q 500 294 475 193 q 525 496 525 394 q 499 597 525 563 q 411 632 474 632 q 272 564 326 632 q 191 394 217 496 q 165 192 165 293 q 192 91 165 126 q 281 56 218 56 m 418 789 q 432 818 419 808 q 465 836 444 828 q 498 855 488 846 q 508 882 508 864 q 467 913 508 913 l 439 911 l 419 867 l 378 867 l 383 940 q 479 949 438 949 q 556 933 528 949 q 585 886 585 917 q 539 822 585 844 q 510 811 528 818 q 483 797 493 804 q 469 775 472 789 l 417 775 l 418 789 z "},"ơ":{"ha":690,"x_min":46,"x_max":826,"o":"m 826 678 q 774 584 826 622 q 642 533 721 546 q 644 493 644 508 q 595 223 644 338 q 457 48 546 108 q 254 -12 368 -12 q 97 40 149 -12 q 46 199 46 93 q 96 468 46 354 q 234 642 146 582 q 435 701 322 701 q 629 589 590 701 q 692 608 671 592 q 713 663 713 624 q 706 719 713 689 l 714 738 l 808 757 q 822 717 817 739 q 826 678 826 694 m 281 56 q 419 124 364 56 q 500 294 475 193 q 525 496 525 394 q 499 597 525 563 q 411 632 474 632 q 272 564 326 632 q 191 394 217 496 q 165 192 165 293 q 192 91 165 126 q 281 56 218 56 z "},"ớ":{"ha":690,"x_min":46,"x_max":826,"o":"m 46 0 m 826 678 q 774 584 826 622 q 642 533 721 546 q 644 493 644 508 q 595 223 644 338 q 457 48 546 108 q 254 -12 368 -12 q 97 40 149 -12 q 46 199 46 93 q 96 468 46 354 q 234 642 146 582 q 435 701 322 701 q 629 589 590 701 q 692 608 671 592 q 713 663 713 624 q 706 719 713 689 l 714 738 l 808 757 q 822 717 817 739 q 826 678 826 694 m 281 56 q 419 124 364 56 q 500 294 475 193 q 525 496 525 394 q 499 597 525 563 q 411 632 474 632 q 272 564 326 632 q 191 394 217 496 q 165 192 165 293 q 192 91 165 126 q 281 56 218 56 m 324 774 l 301 800 l 515 981 l 621 942 l 621 917 l 324 774 z "},"ợ":{"ha":690,"x_min":46,"x_max":826,"o":"m 46 0 m 826 678 q 774 584 826 622 q 642 533 721 546 q 644 493 644 508 q 595 223 644 338 q 457 48 546 108 q 254 -12 368 -12 q 97 40 149 -12 q 46 199 46 93 q 96 468 46 354 q 234 642 146 582 q 435 701 322 701 q 629 589 590 701 q 692 608 671 592 q 713 663 713 624 q 706 719 713 689 l 714 738 l 808 757 q 822 717 817 739 q 826 678 826 694 m 281 56 q 419 124 364 56 q 500 294 475 193 q 525 496 525 394 q 499 597 525 563 q 411 632 474 632 q 272 564 326 632 q 191 394 217 496 q 165 192 165 293 q 192 91 165 126 q 281 56 218 56 m 253 -57 q 311 -82 286 -57 q 336 -140 336 -107 q 311 -197 336 -174 q 253 -219 286 -219 q 194 -197 219 -219 q 169 -140 169 -174 q 194 -81 169 -106 q 253 -57 219 -57 z "},"ờ":{"ha":690,"x_min":46,"x_max":826,"o":"m 46 0 m 826 678 q 774 584 826 622 q 642 533 721 546 q 644 493 644 508 q 595 223 644 338 q 457 48 546 108 q 254 -12 368 -12 q 97 40 149 -12 q 46 199 46 93 q 96 468 46 354 q 234 642 146 582 q 435 701 322 701 q 629 589 590 701 q 692 608 671 592 q 713 663 713 624 q 706 719 713 689 l 714 738 l 808 757 q 822 717 817 739 q 826 678 826 694 m 281 56 q 419 124 364 56 q 500 294 475 193 q 525 496 525 394 q 499 597 525 563 q 411 632 474 632 q 272 564 326 632 q 191 394 217 496 q 165 192 165 293 q 192 91 165 126 q 281 56 218 56 m 536 774 l 239 917 l 239 942 l 344 981 l 558 800 l 536 774 z "},"ở":{"ha":690,"x_min":46,"x_max":826,"o":"m 46 0 m 826 678 q 774 584 826 622 q 642 533 721 546 q 644 493 644 508 q 595 223 644 338 q 457 48 546 108 q 254 -12 368 -12 q 97 40 149 -12 q 46 199 46 93 q 96 468 46 354 q 234 642 146 582 q 435 701 322 701 q 629 589 590 701 q 692 608 671 592 q 713 663 713 624 q 706 719 713 689 l 714 738 l 808 757 q 822 717 817 739 q 826 678 826 694 m 281 56 q 419 124 364 56 q 500 294 475 193 q 525 496 525 394 q 499 597 525 563 q 411 632 474 632 q 272 564 326 632 q 191 394 217 496 q 165 192 165 293 q 192 91 165 126 q 281 56 218 56 m 422 788 q 436 817 424 807 q 469 835 449 826 q 502 853 492 844 q 513 881 513 863 q 471 911 513 911 l 443 910 l 424 865 l 382 865 l 388 939 q 483 947 442 947 q 560 931 532 947 q 589 885 589 915 q 543 821 589 843 q 515 810 532 817 q 487 795 497 803 q 474 774 476 788 l 421 774 l 422 788 z "},"ỡ":{"ha":690,"x_min":46,"x_max":826,"o":"m 46 0 m 826 678 q 774 584 826 622 q 642 533 721 546 q 644 493 644 508 q 595 223 644 338 q 457 48 546 108 q 254 -12 368 -12 q 97 40 149 -12 q 46 199 46 93 q 96 468 46 354 q 234 642 146 582 q 435 701 322 701 q 629 589 590 701 q 692 608 671 592 q 713 663 713 624 q 706 719 713 689 l 714 738 l 808 757 q 822 717 817 739 q 826 678 826 694 m 281 56 q 419 124 364 56 q 500 294 475 193 q 525 496 525 394 q 499 597 525 563 q 411 632 474 632 q 272 564 326 632 q 191 394 217 496 q 165 192 165 293 q 192 91 165 126 q 281 56 218 56 m 658 939 q 610 842 632 875 q 557 810 588 810 q 457 838 532 810 q 360 865 382 865 q 332 854 346 865 q 309 831 318 843 q 297 815 300 819 l 256 832 q 305 930 282 897 q 358 963 328 963 q 401 954 374 963 q 456 935 428 946 q 511 915 483 924 q 556 907 539 907 q 583 918 569 907 q 605 940 596 929 q 615 956 614 951 l 658 939 z "},"ő":{"ha":690,"x_min":46,"x_max":678,"o":"m 251 756 l 225 771 l 350 992 l 454 992 l 454 968 l 251 756 m 475 756 l 449 771 l 574 992 l 678 992 l 678 968 l 475 756 m 435 701 q 644 493 644 701 q 595 223 644 338 q 457 48 546 108 q 254 -12 368 -12 q 97 40 149 -12 q 46 199 46 93 q 96 468 46 354 q 234 642 146 582 q 435 701 322 701 m 281 56 q 419 124 364 56 q 500 294 475 193 q 525 496 525 394 q 499 597 525 563 q 411 632 474 632 q 272 564 326 632 q 191 394 217 496 q 165 192 165 293 q 192 91 165 126 q 281 56 218 56 z "},"ȏ":{"ha":690,"x_min":46,"x_max":644,"o":"m 46 0 m 435 701 q 644 493 644 701 q 595 223 644 338 q 457 48 546 108 q 254 -12 368 -12 q 97 40 149 -12 q 46 199 46 93 q 96 468 46 354 q 234 642 146 582 q 435 701 322 701 m 281 56 q 419 124 364 56 q 500 294 475 193 q 525 496 525 394 q 499 597 525 563 q 411 632 474 632 q 272 564 326 632 q 191 394 217 496 q 165 192 165 293 q 192 91 165 126 q 281 56 218 56 m 468 979 q 608 858 608 979 q 601 818 608 850 l 554 818 q 558 840 558 829 q 535 888 556 871 q 458 904 514 904 q 322 818 339 904 l 276 818 q 468 979 310 979 z "},"ō":{"ha":690,"x_min":46,"x_max":644,"o":"m 288 876 l 589 876 l 578 804 l 276 804 l 288 876 m 435 701 q 644 493 644 701 q 595 223 644 338 q 457 48 546 108 q 254 -12 368 -12 q 97 40 149 -12 q 46 199 46 93 q 96 468 46 354 q 234 642 146 582 q 435 701 322 701 m 281 56 q 419 124 364 56 q 500 294 475 193 q 525 496 525 394 q 499 597 525 563 q 411 632 474 632 q 272 564 326 632 q 191 394 217 496 q 165 192 165 293 q 192 91 165 126 q 281 56 218 56 z "},"ǫ":{"ha":690,"x_min":46,"x_max":644,"o":"m 451 44 q 374 -47 413 14 q 336 -160 336 -108 q 353 -208 336 -192 q 403 -225 371 -225 q 476 -194 442 -225 l 496 -217 q 476 -237 496 -219 q 426 -271 457 -256 q 356 -286 394 -286 q 269 -258 297 -286 q 240 -187 240 -231 q 267 -99 240 -147 q 347 -1 293 -51 q 254 -12 299 -12 q 97 40 149 -12 q 46 199 46 93 q 96 468 46 354 q 234 642 146 582 q 435 701 322 701 q 644 493 644 701 q 593 219 644 335 q 451 44 542 104 m 165 192 q 192 91 165 126 q 281 56 218 56 q 419 124 364 56 q 500 294 475 193 q 525 496 525 394 q 499 597 525 563 q 411 632 474 632 q 272 564 326 632 q 191 394 217 496 q 165 192 165 293 z "},"ø":{"ha":690,"x_min":46,"x_max":644,"o":"m 186 -7 q 46 200 46 25 q 93 462 46 350 q 224 635 140 574 q 417 703 308 697 l 456 818 l 536 818 l 496 699 q 644 493 644 669 q 597 226 644 340 q 463 51 549 113 q 265 -12 376 -10 l 228 -128 l 147 -128 l 186 -7 m 393 632 q 263 556 314 625 q 188 388 211 486 q 164 193 164 290 q 211 71 164 101 l 393 632 m 286 56 q 424 128 369 60 q 502 297 478 197 q 526 496 526 396 q 471 621 526 593 l 286 56 z "},"ǿ":{"ha":690,"x_min":46,"x_max":644,"o":"m 46 0 m 186 -7 q 46 200 46 25 q 93 462 46 350 q 224 635 140 574 q 417 703 308 697 l 456 818 l 536 818 l 496 699 q 644 493 644 669 q 597 226 644 340 q 463 51 549 113 q 265 -12 376 -10 l 228 -128 l 147 -128 l 186 -7 m 393 632 q 263 556 314 625 q 188 388 211 486 q 164 193 164 290 q 211 71 164 101 l 393 632 m 286 56 q 424 128 369 60 q 502 297 478 197 q 526 496 526 396 q 471 621 526 593 l 286 56 m 319 775 l 297 801 l 511 982 l 617 943 l 617 918 l 319 775 z "},"õ":{"ha":690,"x_min":46,"x_max":644,"o":"m 644 940 q 596 844 618 876 q 543 811 574 811 q 443 839 518 811 q 346 867 368 867 q 318 856 332 867 q 295 833 304 844 q 283 817 286 821 l 242 833 q 291 931 268 899 q 344 964 314 964 q 387 956 360 964 q 442 936 414 947 q 497 917 469 925 q 542 908 525 908 q 569 919 556 908 q 591 942 582 931 q 601 957 600 953 l 644 940 m 435 701 q 644 493 644 701 q 595 223 644 338 q 457 48 546 108 q 254 -12 368 -12 q 97 40 149 -12 q 46 199 46 93 q 96 468 46 354 q 234 642 146 582 q 435 701 322 701 m 281 56 q 419 124 364 56 q 500 294 475 193 q 525 496 525 394 q 499 597 525 563 q 411 632 474 632 q 272 564 326 632 q 191 394 217 496 q 165 192 165 293 q 192 91 165 126 q 281 56 218 56 z "},"œ":{"ha":1021,"x_min":46,"x_max":1032,"o":"m 254 -12 q 97 40 149 -12 q 46 199 46 93 q 96 468 46 354 q 234 642 146 582 q 435 701 322 701 q 628 592 588 701 q 886 701 728 701 q 990 666 949 701 q 1032 565 1032 631 q 926 394 1032 457 q 628 332 821 332 q 617 221 617 269 q 633 122 617 157 q 685 73 649 88 q 792 58 722 58 q 899 83 835 58 l 908 38 q 722 -12 817 -12 q 590 15 640 -12 q 518 101 540 43 q 399 17 467 46 q 254 -12 332 -12 m 640 379 q 849 425 772 379 q 925 556 925 471 q 908 613 925 590 q 856 635 890 635 q 721 568 776 635 q 640 379 665 501 m 281 56 q 419 124 364 56 q 500 294 475 193 q 525 496 525 394 q 499 597 525 563 q 411 632 474 632 q 272 564 326 632 q 191 394 217 496 q 165 192 165 293 q 192 91 165 126 q 281 56 218 56 z "},"p":{"ha":747,"x_min":39,"x_max":690,"o":"m 190 611 l 88 621 l 81 654 q 195 689 138 675 q 283 703 253 703 q 308 669 308 703 q 301 604 308 647 q 290 547 293 561 q 417 658 346 614 q 547 703 488 703 q 651 658 613 703 q 690 511 690 613 q 597 145 690 290 q 306 0 503 0 q 200 13 242 0 l 167 -225 l 39 -246 l 190 611 m 319 63 q 476 138 419 63 q 552 311 532 214 q 572 492 572 408 q 485 619 572 619 q 381 571 447 619 q 279 478 314 522 l 214 99 q 262 74 232 85 q 319 63 292 63 z "},"þ":{"ha":717,"x_min":17,"x_max":668,"o":"m 221 913 l 114 926 l 107 957 q 224 995 165 981 q 317 1010 283 1010 q 343 979 343 1010 q 331 901 343 968 l 268 547 q 394 658 324 614 q 525 703 465 703 q 629 658 590 703 q 668 511 668 613 q 574 145 668 290 q 283 0 481 0 q 178 13 219 0 l 144 -225 l 17 -246 l 221 913 m 297 63 q 453 138 397 63 q 530 311 510 214 q 550 492 550 408 q 463 619 550 619 q 358 572 425 619 q 256 479 292 524 q 190 99 243 403 q 239 74 208 85 q 297 63 269 63 z "},"q":{"ha":694,"x_min":46,"x_max":672,"o":"m 672 714 q 595 313 647 588 q 519 -86 543 39 l 504 -225 l 378 -247 l 450 124 q 326 26 400 63 q 194 -11 253 -11 q 85 30 124 -11 q 46 175 46 71 q 94 463 46 344 q 233 641 143 581 q 443 701 322 701 q 596 679 529 701 l 628 725 l 672 714 m 464 208 q 496 364 474 250 q 540 597 518 478 q 496 626 529 614 q 429 639 463 639 q 278 569 338 639 q 194 397 219 499 q 168 194 168 294 q 190 100 168 126 q 257 74 213 74 q 370 117 307 74 q 464 208 433 160 z "},"r":{"ha":543,"x_min":82,"x_max":600,"o":"m 206 607 l 100 618 l 94 653 q 210 688 151 674 q 301 701 269 701 q 320 693 314 701 q 326 671 326 685 q 310 569 326 649 q 289 457 300 519 q 421 652 351 592 q 600 713 490 713 l 558 506 l 507 506 l 490 606 q 383 524 442 594 q 263 317 325 454 l 214 10 l 82 -12 l 206 607 z "},"ŕ":{"ha":543,"x_min":82,"x_max":610,"o":"m 313 775 l 290 801 l 504 982 l 610 943 l 610 918 l 313 775 m 206 607 l 100 618 l 94 653 q 210 688 151 674 q 301 701 269 701 q 320 693 314 701 q 326 671 326 685 q 310 569 326 649 q 289 457 300 519 q 421 652 351 592 q 600 713 490 713 l 558 506 l 507 506 l 490 606 q 383 524 442 594 q 263 317 325 454 l 214 10 l 82 -12 l 206 607 z "},"ř":{"ha":543,"x_min":82,"x_max":600,"o":"m 350 767 l 240 968 l 278 993 l 406 865 l 572 994 l 600 968 l 433 767 l 350 767 m 206 607 l 100 618 l 94 653 q 210 688 151 674 q 301 701 269 701 q 320 693 314 701 q 326 671 326 685 q 310 569 326 649 q 289 457 300 519 q 421 652 351 592 q 600 713 490 713 l 558 506 l 507 506 l 490 606 q 383 524 442 594 q 263 317 325 454 l 214 10 l 82 -12 l 206 607 z "},"ŗ":{"ha":543,"x_min":26,"x_max":600,"o":"m 206 607 l 100 618 l 94 653 q 210 688 151 674 q 301 701 269 701 q 320 693 314 701 q 326 671 326 685 q 310 569 326 649 q 289 457 300 519 q 421 652 351 592 q 600 713 490 713 l 558 506 l 507 506 l 490 606 q 383 524 442 594 q 263 317 325 454 l 214 10 l 82 -12 l 206 607 m 61 -307 l 26 -297 l 75 -65 l 179 -43 l 200 -67 l 61 -307 z "},"ȑ":{"ha":543,"x_min":82,"x_max":600,"o":"m 82 0 m 206 607 l 100 618 l 94 653 q 210 688 151 674 q 301 701 269 701 q 320 693 314 701 q 326 671 326 685 q 310 569 326 649 q 289 457 300 519 q 421 652 351 592 q 600 713 490 713 l 558 506 l 507 506 l 490 606 q 383 524 442 594 q 263 317 325 454 l 214 10 l 82 -12 l 206 607 m 251 758 l 90 971 l 90 994 l 194 994 l 276 774 l 251 758 m 475 758 l 314 971 l 314 994 l 418 994 l 500 774 l 475 758 z "},"ṛ":{"ha":543,"x_min":39,"x_max":600,"o":"m 39 0 m 206 607 l 100 618 l 94 653 q 210 688 151 674 q 301 701 269 701 q 320 693 314 701 q 326 671 326 685 q 310 569 326 649 q 289 457 300 519 q 421 652 351 592 q 600 713 490 713 l 558 506 l 507 506 l 490 606 q 383 524 442 594 q 263 317 325 454 l 214 10 l 82 -12 l 206 607 m 122 -57 q 181 -82 156 -57 q 206 -140 206 -107 q 181 -197 206 -174 q 122 -219 156 -219 q 64 -197 89 -219 q 39 -140 39 -174 q 64 -81 39 -106 q 122 -57 89 -57 z "},"ȓ":{"ha":543,"x_min":82,"x_max":600,"o":"m 82 0 m 206 607 l 100 618 l 94 653 q 210 688 151 674 q 301 701 269 701 q 320 693 314 701 q 326 671 326 685 q 310 569 326 649 q 289 457 300 519 q 421 652 351 592 q 600 713 490 713 l 558 506 l 507 506 l 490 606 q 383 524 442 594 q 263 317 325 454 l 214 10 l 82 -12 l 206 607 m 394 979 q 535 858 535 979 q 528 818 535 850 l 481 818 q 485 840 485 829 q 461 888 482 871 q 385 904 440 904 q 249 818 265 904 l 203 818 q 394 979 236 979 z "},"s":{"ha":544,"x_min":10,"x_max":528,"o":"m 339 635 q 229 603 269 635 q 189 521 189 571 q 208 465 189 486 q 271 422 226 443 l 371 374 q 450 313 422 349 q 478 218 478 278 q 403 49 478 111 q 197 -12 329 -12 q 97 -3 147 -12 q 10 28 47 7 l 53 194 l 94 194 l 104 75 q 215 54 157 54 q 332 85 290 54 q 374 183 374 117 q 293 281 374 244 l 188 329 q 119 385 146 349 q 92 478 92 422 q 124 592 92 542 q 215 672 156 643 q 354 701 275 701 q 443 691 397 701 q 528 661 489 681 l 482 514 l 442 514 l 431 617 q 388 630 415 625 q 339 635 361 635 z "}}}
